<svg width="24" height="24" viewBox="0 0 24 24" fill="none" xmlns="http://www.w3.org/2000/svg"><path d="M21.962 16.986a.83.83 0 00-.364-1.579.833.833 0 00-.459 1.529c-.602-.036-1.325-.074-2.149-.11a1.258 1.258 0 10-1.574-.062c-1.129-.04-2.388-.072-3.746-.089V9.996l.697.258.429-1.163L8.58 6.765 2.26 9.091l.428 1.163.673-.248v6.89c-.847.05-1.7.108-2.555.178h6.406v-3.18h2.607v3.18h13.356s-.433-.037-1.213-.088zM6.968 12.117H4.986v-1.982h1.982v1.982zm2.511 0H7.497v-1.982h1.982v1.982zm2.511 0h-1.982v-1.982h1.982v1.982zm6.252 4.177a.479.479 0 110-.957.479.479 0 010 .957zm3.355.317a.371.371 0 110-.742.371.371 0 010 .742z" fill="#5A62A6"/><path d="M14.088 15.57l2.502.246a1.652 1.652 0 113.304 0v.424h.54a1.164 1.164 0 012.025-.782l.302-.126v-1.656l-2.567-.454-.319-2.625h-2.633v3.191h-.507v-3.99h-.638v5.508h-2.01l.001.264zm3.68-4.579h1.651l.325 2.779h-1.977V10.99z" fill="#5A62A6"/></svg>
