<svg width="24" height="24" viewBox="0 0 24 24" fill="none" xmlns="http://www.w3.org/2000/svg"><path d="M23.498 21.262L19.054 8.47a1.14 1.14 0 00-1.083-.74h-2.194a4.07 4.07 0 00.656-2.365c-.057-2.223-1.88-4.074-4.103-4.16a4.18 4.18 0 00-3.134 1.197 4.223 4.223 0 00-1.31 3.076c0 .827.228 1.596.655 2.28H6.347c-.484 0-.911.313-1.082.769L.877 21.262c-.142.341-.085.74.143 1.054.2.313.57.484.94.484h20.455c.37 0 .713-.17.94-.484.229-.314.257-.712.143-1.054zM9.823 8.869a.584.584 0 00.541-.37.572.572 0 00-.17-.627 3.17 3.17 0 01-1.14-2.422c0-.855.342-1.652.969-2.25a3.133 3.133 0 012.307-.884c1.624.057 2.963 1.425 2.992 3.049a3.066 3.066 0 01-1.14 2.478.572.572 0 00-.17.627c.085.228.284.37.54.37H18l4.415 12.792H1.96L6.376 8.869h3.447v0z" fill="#4D6B87" stroke="#4D6B87" stroke-width=".8"/><path d="M12.182 6.47c.446 0 .816-.36.816-.817a.809.809 0 00-.816-.817.809.809 0 00-.817.817c0 .457.37.816.817.816zm0-1.188c.207 0 .38.175.38.382a.386.386 0 01-.38.38.386.386 0 01-.381-.38c0-.218.174-.381.38-.381z" fill="#4D6B87" stroke="#4D6B87" stroke-width=".8"/></svg>
