<svg xmlns="http://www.w3.org/2000/svg" width="24" height="24" fill="none" viewBox="0 0 24 24"><path fill="#0d0d0d" d="M4 6.633q.21-.085.503-.181A9.8 9.8 0 0 1 7.5 6a9.8 9.8 0 0 1 2.997.452q.293.096.503.181v10.88A11.8 11.8 0 0 0 7.5 17c-1.46 0-2.649.248-3.5.513zm8-1.748a9 9 0 0 0-.888-.337A11.8 11.8 0 0 0 7.5 4c-1.526 0-2.755.271-3.612.548a9 9 0 0 0-1.001.389 6 6 0 0 0-.357.18l-.025.014-.009.005-.003.002h-.001c-.002.002-.247.147-.002.002A1 1 0 0 0 2 6v13a1 1 0 0 0 1.51.86l-.005.003h.001l.002-.001.001-.001.037-.02q.056-.03.182-.09c.17-.078.43-.188.775-.3A9.8 9.8 0 0 1 7.5 19a9.8 9.8 0 0 1 2.997.451 7 7 0 0 1 .775.3 4 4 0 0 1 .223.112m0 0zl-.002-.001-.001-.001c.314.185.704.185 1.018 0l.037-.02q.056-.03.182-.09a7 7 0 0 1 .775-.3A9.8 9.8 0 0 1 16.5 19a9.8 9.8 0 0 1 2.997.451 7 7 0 0 1 .775.3 4 4 0 0 1 .219.11A1 1 0 0 0 22 19V6a1 1 0 0 0-.49-.86l-.002-.001h-.001l-.003-.003-.01-.005-.024-.014a6 6 0 0 0-.357-.18 9 9 0 0 0-1-.389A11.8 11.8 0 0 0 16.5 4c-1.525 0-2.755.271-3.612.548a9 9 0 0 0-.888.337m8 1.748v10.88A11.8 11.8 0 0 0 16.5 17c-1.46 0-2.649.248-3.5.513V6.633q.21-.085.503-.181A9.8 9.8 0 0 1 16.5 6a9.8 9.8 0 0 1 2.997.452q.293.096.503.181m.49.228.005.002h-.001zm0 13 .004.002-.002-.002"/></svg>