<svg xmlns="http://www.w3.org/2000/svg" width="24" height="24" fill="none" viewBox="0 0 24 24"><g fill="#0b301a" clip-path="url(#a)"><path d="M18.111 5.582h-.023c-.818-2.767-3.27-4.66-6.099-4.66-3.177 0-5.864 2.452-6.308 5.655h-.28C2.922 6.577.89 8.663.89 11.26s2.01 4.683 4.51 4.683h.91c-.024-.219 0-.413 0-.631.023-.146.023-.267.046-.413h-.98c-1.94 0-3.506-1.625-3.506-3.64 0-2.013 1.566-3.639 3.505-3.639q.315 0 .63.073c.141.024.281 0 .398-.097a.48.48 0 0 0 .187-.389c.21-2.96 2.57-5.265 5.397-5.265 2.5 0 4.65 1.771 5.235 4.295.046.243.28.412.537.388.14-.024.257-.024.35-.024 2.197 0 3.973 1.844 3.973 4.125s-1.776 4.125-3.973 4.125h-.888c-.07.34-.14.704-.21 1.043h1.098c2.734 0 4.977-2.305 4.977-5.168 0-2.815-2.219-5.144-4.976-5.144"/><path d="M15.424 8.93c-3.014 3.179-7.687 3.082-7.99 6.454-.07.753.116 1.335.583 1.942a17.6 17.6 0 0 1 4.346-3.228c.14-.072.304 0 .35.17.024.122-.023.243-.116.292-2.71 1.722-4.206 3.494-5.842 7.691-.117.292 0 .656.28.777.07.024.14.049.21.049.21 0 .421-.146.515-.364.397-.995 1.402-3.155 1.916-3.883 1.425.801 3.2 1.02 4.44.146 2.08-1.456 2.476-6.6 2.336-9.633-.023-.534-.654-.801-1.028-.413"/></g><defs><clipPath id="a"><path fill="#fff" d="M0 0h24v24H0z"/></clipPath></defs></svg>