<svg xmlns="http://www.w3.org/2000/svg" width="24" height="24" fill="none" viewBox="0 0 24 24"><path fill="#0b301a" d="M3 9.655V21a1 1 0 1 1-2 0V9a1 1 0 0 1 .848-.988l.035-.022 9.71-5.605a1.02 1.02 0 0 1 1.071.026 1 1 0 0 1 .202.089L22.392 8a1 1 0 0 1 .332.31c.171.18.276.423.276.69v12a1 1 0 0 1-2 0V9.506l-8.87-5.122z"/><path fill="#6347e3" d="M9.5 16h-3A1.5 1.5 0 0 0 5 17.5v3A1.5 1.5 0 0 0 6.5 22h3a1.5 1.5 0 0 0 1.5-1.5v-3A1.5 1.5 0 0 0 9.5 16"/><path fill="#6347e3" d="M9.5 16h-3A1.5 1.5 0 0 0 5 17.5v3A1.5 1.5 0 0 0 6.5 22h3a1.5 1.5 0 0 0 1.5-1.5v-3A1.5 1.5 0 0 0 9.5 16M17.5 16h-3a1.5 1.5 0 0 0-1.5 1.5v3a1.5 1.5 0 0 0 1.5 1.5h3a1.5 1.5 0 0 0 1.5-1.5v-3a1.5 1.5 0 0 0-1.5-1.5"/><path fill="#6347e3" d="M17.5 16h-3a1.5 1.5 0 0 0-1.5 1.5v3a1.5 1.5 0 0 0 1.5 1.5h3a1.5 1.5 0 0 0 1.5-1.5v-3a1.5 1.5 0 0 0-1.5-1.5M13.5 8h-3A1.5 1.5 0 0 0 9 9.5v3a1.5 1.5 0 0 0 1.5 1.5h3a1.5 1.5 0 0 0 1.5-1.5v-3A1.5 1.5 0 0 0 13.5 8"/><path fill="#6347e3" d="M13.5 8h-3A1.5 1.5 0 0 0 9 9.5v3a1.5 1.5 0 0 0 1.5 1.5h3a1.5 1.5 0 0 0 1.5-1.5v-3A1.5 1.5 0 0 0 13.5 8"/></svg>