<svg xmlns="http://www.w3.org/2000/svg" width="24" height="24" fill="none" viewBox="0 0 24 24"><path fill="#0b301a" d="M20.8 4H3.2c-.48 0-.8.32-.8.8v9.6c0 .48.32.8.8.8h17.6c.48 0 .8-.32.8-.8V4.8c0-.48-.32-.8-.8-.8M4.4 11.2c-.16 0-.32 0-.4.08V7.92c.08.08.24.08.4.08 1.12 0 2-.88 2-2 0-.16 0-.32-.08-.4H17.6V6c0 1.12.88 2 2 2 .16 0 .32 0 .4-.08v3.28c-.08 0-.24-.08-.4-.08-1.12 0-2 .88-2 2 0 .16 0 .32.08.4H6.32c.08 0 .08-.16.08-.32 0-1.12-.88-2-2-2m5.2-1.6c0-1.36 1.04-2.4 2.4-2.4s2.4 1.04 2.4 2.4S13.36 12 12 12s-2.4-1.04-2.4-2.4m-5.6 8v-.8h16v.8c0 .48-.32.8-.8.8H4.8c-.48 0-.8-.32-.8-.8m1.92 3.2V20h12v.8c0 .48-.32.8-.8.8H6.72c-.48 0-.8-.32-.8-.8"/></svg>