<svg xmlns="http://www.w3.org/2000/svg" width="24" height="24" fill="none" viewBox="0 0 24 24"><path fill="#0b301a" d="M10.697 17.416h6.11c.363 0 .65-.286.65-.65v-6.447a.68.68 0 0 0-.34-.572l-4.73-4.29a.72.72 0 0 0-.65 0l-4.731 4.29a.65.65 0 0 0-.338.572v6.447c0 .364.286.65.65.65zm.65-1.3v-3.535h1.43v3.535zm-3.353-5.433 4.08-3.665 4.082 3.665v5.433h-2.08v-4.185a.644.644 0 0 0-.65-.65h-2.73a.643.643 0 0 0-.65.65v4.185h-2.08v-5.433z"/><path fill="#0b301a" d="M21.51 13.412c-.364-.052-.702.182-.754.52-.727 4.238-4.393 7.305-8.707 7.305-4.264 0-7.851-3.041-8.657-7.097l.364.364c.13.13.286.182.468.182a.63.63 0 0 0 .468-.182c.26-.26.26-.676 0-.91l-1.638-1.637a.4.4 0 0 0-.104-.078c-.026 0-.026-.026-.052-.026s-.052-.026-.052-.026c-.026 0-.052-.026-.078-.026s-.026 0-.052-.026a.44.44 0 0 0-.26 0c-.026 0-.026 0-.052.026-.026 0-.052 0-.052.026-.026 0-.052.026-.052.026-.026 0-.026.026-.052.026-.026.026-.078.052-.104.078L.506 13.594c-.26.26-.26.676 0 .91.13.13.286.182.468.182a.63.63 0 0 0 .468-.182l.624-.624c.702 4.888 4.94 8.683 10.035 8.683 4.938 0 9.15-3.535 9.981-8.397a.726.726 0 0 0-.572-.754m2.002-3.821c-.26-.26-.675-.26-.91 0l-.65.65c-.702-4.887-4.94-8.683-10.035-8.683-4.938 0-9.15 3.536-9.981 8.397-.052.364.182.702.52.754.364.052.702-.182.754-.52.728-4.237 4.393-7.305 8.708-7.305 4.264 0 7.85 3.042 8.657 7.097l-.364-.364c-.26-.26-.676-.26-.91 0-.26.26-.26.676 0 .91l1.638 1.638a.4.4 0 0 0 .104.078c.026 0 .026.026.052.026s.052.026.078.026.052.026.052.026c.025 0 .025 0 .051.026h.26c.026 0 .026 0 .052-.026.026 0 .052 0 .052-.026.026 0 .052-.026.078-.026s.026-.026.052-.026c.027-.026.079-.052.105-.078l1.637-1.638a.71.71 0 0 0 0-.936"/></svg>