<svg xmlns="http://www.w3.org/2000/svg" width="24" height="24" fill="none" viewBox="0 0 24 24"><g clip-path="url(#a)"><path fill="#0b301a" d="M23.498 21.262 19.054 8.47a1.14 1.14 0 0 0-1.083-.74h-2.194a4.07 4.07 0 0 0 .656-2.365c-.057-2.223-1.88-4.074-4.103-4.16a4.18 4.18 0 0 0-3.134 1.197 4.22 4.22 0 0 0-1.31 3.076c0 .827.228 1.596.655 2.28H6.347c-.484 0-.91.313-1.082.769L.877 21.262c-.142.341-.085.74.143 1.054.2.313.57.484.94.484h20.455a1.146 1.146 0 0 0 1.083-1.538M9.823 8.869a.58.58 0 0 0 .541-.37.57.57 0 0 0-.17-.627 3.17 3.17 0 0 1-1.14-2.422c0-.855.342-1.652.97-2.25a3.13 3.13 0 0 1 2.306-.884c1.624.057 2.963 1.425 2.992 3.049a3.07 3.07 0 0 1-1.14 2.478.57.57 0 0 0-.17.627c.085.228.284.37.54.37H18l4.415 12.792H1.96L6.376 8.869z"/><path fill="#0b301a" d="M12.182 6.47c.446 0 .816-.36.816-.817a.81.81 0 0 0-.816-.817.81.81 0 0 0-.817.817c0 .457.37.817.817.817m0-1.188c.207 0 .38.175.38.382a.386.386 0 0 1-.38.38.386.386 0 0 1-.38-.38c0-.218.173-.381.38-.381z"/><path stroke="#0b301a" stroke-width=".8" d="M23.498 21.262 19.054 8.47a1.14 1.14 0 0 0-1.083-.74h-2.194a4.07 4.07 0 0 0 .656-2.365c-.057-2.223-1.88-4.074-4.103-4.16a4.18 4.18 0 0 0-3.134 1.197 4.22 4.22 0 0 0-1.31 3.076c0 .827.228 1.596.655 2.28H6.347c-.484 0-.91.313-1.082.769L.877 21.262c-.142.341-.085.74.143 1.054.2.313.57.484.94.484h20.455a1.146 1.146 0 0 0 1.083-1.538ZM9.823 8.869a.58.58 0 0 0 .541-.37.57.57 0 0 0-.17-.627 3.17 3.17 0 0 1-1.14-2.422c0-.855.342-1.652.97-2.25a3.13 3.13 0 0 1 2.306-.884c1.624.057 2.963 1.425 2.992 3.049a3.07 3.07 0 0 1-1.14 2.478.57.57 0 0 0-.17.627c.085.228.284.37.54.37H18l4.415 12.792H1.96L6.376 8.869z"/><path stroke="#0b301a" stroke-width=".8" d="M12.182 6.47c.446 0 .816-.36.816-.817a.81.81 0 0 0-.816-.817.81.81 0 0 0-.817.817c0 .457.37.817.817.817Zm0-1.188c.207 0 .38.175.38.382a.386.386 0 0 1-.38.38.386.386 0 0 1-.38-.38c0-.218.173-.381.38-.381z"/></g><defs><clipPath id="a"><path fill="#fff" d="M0 0h24v24H0z"/></clipPath></defs></svg>