<svg width="166" height="48" viewBox="0 0 166 48" fill="none" xmlns="http://www.w3.org/2000/svg">
<path d="M87.6696 31.3902C88.3938 23.6817 87.7588 29.6532 90.6745 6.56137H96.8031L91.6492 41.4475H83.6816C80.3518 19.8741 81.059 24.8454 80.0906 17.0051H79.9929C78.827 24.8454 79.6404 19.8656 75.9093 41.4454H68.0372L62.8429 6.55713H70.0822C71.7407 20.2351 73.0361 31.4009 73.034 31.3881L73.2038 31.3924C74.4121 23.0743 74.6564 21.6685 77.0305 6.55713H83.9789C85.7818 19.1669 87.4637 31.403 87.4637 31.3902H87.6718M113.72 24.8942C114.335 25.0896 114.854 25.4187 115.291 25.8562C118.47 29.0352 116.909 38.9417 119.313 41.4496H111.76C111.76 41.4496 111.751 41.4475 111.749 41.4433C110.366 39.2836 110.817 34.1636 110.042 29.1541C109.564 26.0728 106.818 26.3531 105.094 26.3765V41.4475H98.0964L98.1006 6.56137H109.018C115.635 6.56137 118.958 9.28168 118.958 15.9561C118.958 20.0779 117.408 23.3206 113.722 24.8921M105.094 21.8681C108.939 21.8681 111.619 22.3141 111.619 16.5507C111.619 11.2608 109.411 11.7132 105.094 11.7132V21.8681ZM165.074 12.5244C165.414 13.858 165.584 15.4209 165.584 17.209C165.584 20.9189 164.683 23.6052 162.887 25.2637C161.088 26.9222 158.521 27.7526 155.185 27.7504H152.025V41.4518H145.03L145.034 6.56562H155.626C157.474 6.56562 159.028 6.78647 160.29 7.22605C161.553 7.66563 162.581 8.32394 163.375 9.2031C164.169 10.0823 164.734 11.1886 165.076 12.5223M157.444 21.4179C158.075 20.628 158.393 19.2158 158.393 17.1856C158.393 15.1534 158.077 13.7348 157.446 12.9279C156.815 12.123 155.771 11.7195 154.312 11.7195H152.029V22.6029H154.312C155.771 22.6029 156.815 22.2079 157.446 21.4179M135.792 6.56774L143.953 41.4539H136.809L135.45 34.5544C135.204 33.2993 134.938 32.0485 134.679 30.7978C133.32 31.3456 132.018 32.091 130.865 33.0233C128.336 35.064 126.506 37.9733 125.822 40.8062L125.684 41.4539H119.515L127.826 6.56987H135.794L135.792 6.56774ZM128.461 28.6168C130.105 27.1771 131.868 26.0898 133.569 25.3062L132.585 20.4135L131.581 14.4781H131.307L130.205 20.4135L128.464 28.6168M50.1184 8.47684C54.2658 13.3632 56.2598 19.5747 55.7374 25.9624C55.2129 32.3501 52.2335 38.1517 47.345 42.2991C42.3228 46.5611 36.0688 48.4277 29.8595 47.918C24.5229 47.4806 19.6196 45.3485 15.6719 41.7533C15.3873 41.5409 13.0514 39.7593 10.5286 36.2787C8.61096 33.6327 6.29839 29.564 5.03273 24.1467C5.02424 24.1106 4.98389 24.0936 4.95204 24.1127C4.00917 24.6649 3.01534 24.9855 2.1468 24.9855C2.10433 24.9855 2.06186 24.9855 2.01939 24.9855C1.2634 24.9558 0.666671 24.6712 0.295045 24.1595C0.184619 24.0066 -0.157275 23.4438 0.0848129 22.5859C0.43945 21.3372 1.83252 20.1756 4.23217 19.1287C3.99645 16.1578 4.47848 14.1086 5.69954 12.8769C7.05226 11.5157 9.09941 11.4116 10.8429 11.539C10.8811 11.539 10.9172 11.5221 10.9363 11.4902C12.9643 8.27298 15.708 5.56966 19.0059 3.56501C28.9145 -2.45746 42.1826 -0.869024 50.1142 8.47896M4.67811 22.828C4.71634 22.8025 4.73757 22.7558 4.72908 22.7112C4.59104 21.987 4.47212 21.2417 4.37655 20.4729C4.37443 20.4453 4.34257 20.4283 4.31709 20.4411C2.00027 21.522 1.41204 22.4394 1.27401 22.915C1.17633 23.2548 1.29312 23.4332 1.29524 23.4353C1.43752 23.6328 1.69872 23.739 2.06823 23.7539C2.73715 23.7793 3.7225 23.4629 4.68024 22.8301M42.5967 4.27428C42.5967 4.2403 42.5585 4.21907 42.5309 4.2403C39.4517 6.50616 38.4557 9.49403 37.3748 12.6263C36.1771 16.1026 34.8202 20.0418 30.4201 23.3801C26.6189 26.2639 25.0581 29.7869 23.9666 33.3588C23.9517 33.4076 23.9899 33.4607 24.0409 33.4607C25.3256 33.4607 26.6019 33.3312 27.8506 33.0679C27.9164 33.0551 27.9716 33.0127 28.0056 32.9532C29.4581 30.39 31.1145 27.5466 33.2678 24.7477C37.2559 19.5662 39.1777 14.4611 40.4498 11.0825C40.6897 10.4475 40.9148 9.84655 41.1251 9.32415C42.2506 6.52952 42.5648 4.96657 42.5946 4.2764M21.7772 33.2781C20.9171 31.5028 20.7069 29.9483 20.7515 28.757C20.8045 27.2854 21.259 25.8626 22.0235 24.6649C22.0447 24.633 22.015 24.5948 21.9789 24.6054C21.1549 24.839 20.3607 25.149 19.5495 25.9581C18.4134 27.0964 17.5661 29.273 17.2306 31.8319C17.2242 31.8765 17.2476 31.9211 17.2858 31.9424C18.7553 32.7642 20.3968 33.1549 21.7389 33.3354C21.7708 33.3397 21.7942 33.3057 21.7793 33.276M21.981 28.7995C21.9364 30.0545 22.2231 31.3393 22.8283 32.624C22.8432 32.658 22.8942 32.6538 22.9048 32.6198C23.9283 29.3559 25.3809 26.1344 28.5386 23.3355C28.5662 23.3122 28.5514 23.2676 28.5153 23.2654C28.3539 23.2506 28.1925 23.2336 28.0332 23.2145C26.7952 23.0786 25.5125 22.9363 24.4125 23.8112C22.9621 24.9643 22.0511 26.8288 21.981 28.7995ZM30.5624 20.1926C30.5454 19.8528 30.5242 19.4664 30.5242 19.0119C30.5242 16.0431 31.9512 12.0317 34.2468 8.5448C34.4995 8.16255 34.7543 7.7973 35.0113 7.4469C35.041 7.40868 34.9879 7.35984 34.9518 7.38957C32.119 9.70852 29.7427 12.5945 28.3624 15.5526C27.9759 16.3787 27.7996 17.2897 27.6127 18.2559C27.377 19.4664 27.1328 20.7108 26.4533 21.8193C26.4363 21.8469 26.4554 21.8809 26.4894 21.8809C27.0776 21.8681 27.6467 21.9297 28.167 21.987C29.0886 22.089 29.885 22.176 30.2906 21.7874C30.6155 21.4753 30.6134 21.1567 30.5624 20.1905M27.0245 34.686C27.0521 34.6351 27.0118 34.5756 26.9544 34.5841C26.0753 34.7136 25.1855 34.7858 24.2915 34.7943C24.2341 34.7943 24.2023 34.858 24.2363 34.9048C24.6907 35.4994 25.211 36.0897 25.7992 36.6758C25.8183 36.6949 25.8502 36.6907 25.8629 36.6695C26.2452 36.0409 26.6295 35.3741 27.0224 34.6882M41.2291 3.72852C41.2631 3.69879 41.2291 3.64145 41.1888 3.65844C39.371 4.34648 37.1009 6.45307 35.2746 9.22434C33.1043 12.5223 31.7559 16.2704 31.7559 19.0119C31.7559 19.4324 31.7749 19.804 31.7919 20.1289C31.7962 20.216 31.8004 20.3009 31.8047 20.3859C31.8047 20.422 31.8514 20.439 31.8769 20.4113C34.2871 17.8057 35.2619 14.9771 36.2111 12.2228C37.2559 9.18824 38.4876 6.10056 41.2291 3.7264M39.6173 3.01925C39.6598 2.99801 39.6386 2.9343 39.5897 2.9428C34.6928 3.81346 29.2967 8.26661 26.8567 12.278C26.7017 12.5329 26.5552 12.7792 26.415 13.0149C25.2025 15.0536 24.2469 16.6654 20.8534 18.3217C18.9995 19.2264 17.5449 20.9974 16.7549 23.3037C16.0711 25.3019 15.9416 27.5232 16.3493 29.5172C16.3578 29.5597 16.4194 29.5597 16.43 29.5172C16.9269 27.6294 17.7105 26.0537 18.6767 25.0853C19.8829 23.8791 21.0912 23.5585 22.1573 23.2761C23.1957 23.0021 24.0918 22.7643 24.971 21.7662C25.8778 20.7363 26.1326 19.4175 26.4044 18.0202C26.5977 17.0242 26.7973 15.9943 27.2475 15.0323C29.4603 10.2904 34.5462 5.56754 39.6194 3.015M37.2156 2.25901C37.2602 2.24202 37.2432 2.17406 37.1965 2.18043C33.6926 2.61577 29.3562 5.27873 26.8631 7.59131C26.4639 7.96293 26.0689 8.37066 25.6888 8.76777C25.1154 9.36237 24.5229 9.98033 23.8646 10.5197C23.1936 11.0697 22.4142 11.5921 21.6604 12.0997C20.9723 12.5605 20.263 13.0383 19.6642 13.5161C18.1798 14.7053 13.3444 19.0777 13.474 25.4166C13.5164 27.5317 14.1875 29.0947 15.1771 30.2499C15.2068 30.2817 15.2578 30.2541 15.2472 30.2138C14.6823 27.8927 14.7885 25.2574 15.5933 22.9087C16.4895 20.2882 18.1671 18.2687 20.3161 17.2196C23.3783 15.7225 24.1662 14.3974 25.3596 12.3906C25.5019 12.1506 25.6506 11.9 25.8077 11.6431C27.3006 9.18824 29.6025 6.75037 32.1232 4.9517C33.2848 4.12351 35.4063 2.93855 37.2177 2.26325M12.3867 11.5305C12.3676 11.5603 12.3867 11.5985 12.4228 11.5943C13.9305 11.4796 16.5871 10.6896 20.8513 6.88416C23.7308 4.31463 26.999 2.40978 30.2035 1.3671C30.2502 1.35224 30.2354 1.28216 30.1887 1.28641C23.0003 1.77483 16.4194 5.57391 12.3867 11.5284M11.5351 12.8854C11.1083 13.618 10.7197 14.3783 10.3693 15.1661C10.1867 15.5802 10.0168 16.0177 9.84902 16.4679C9.83628 16.504 9.87451 16.5358 9.90636 16.5188C10.639 16.143 11.3079 15.7841 11.9492 15.4401C13.4825 14.6182 14.9286 13.8431 16.6912 13.1147C16.9226 13.017 17.1562 12.9172 17.3877 12.8217C18.768 12.2398 20.0698 11.6919 20.9893 11.0612C21.7134 10.5749 22.4588 10.0738 23.081 9.56411C23.682 9.07144 24.2256 8.50869 24.7969 7.91197C25.1897 7.50212 25.5975 7.08165 26.0201 6.68666C28.0353 4.81792 31.1697 2.69646 34.0875 1.6729C34.1343 1.65591 34.1173 1.58583 34.0684 1.59433C30.1016 2.13159 25.3809 4.49089 21.6667 7.80367C16.241 12.6475 13.0917 12.913 11.6222 12.8344C11.5861 12.8344 11.55 12.8514 11.5309 12.8833M5.42984 18.5596C5.42984 18.5893 5.4617 18.6084 5.48931 18.5957C6.48314 18.1731 7.3708 17.7675 8.17776 17.381C8.20749 17.3661 8.22874 17.3428 8.23936 17.313C8.55365 16.436 8.87218 15.5059 9.24593 14.6671C9.52837 14.0279 9.8384 13.4057 10.1718 12.7983C10.1867 12.7707 10.1676 12.7389 10.1357 12.7367C8.4071 12.6858 7.31346 13.0022 6.57658 13.7433C5.69317 14.6331 5.3088 16.2534 5.43197 18.5596M5.81422 21.7959C5.82059 21.8278 5.86093 21.8426 5.88429 21.8172C5.97348 21.7237 6.06267 21.626 6.14974 21.5241C6.72523 20.8446 7.16907 20.0079 7.54919 19.1096C7.56406 19.0756 7.53008 19.0416 7.4961 19.0565C6.91 19.3219 6.28354 19.598 5.60824 19.8804C5.57214 19.8953 5.54878 19.9335 5.55303 19.9718C5.62523 20.594 5.71229 21.2013 5.8121 21.7938M13.1682 37.6951C13.2 37.7334 13.2573 37.6951 13.234 37.6506C10.8598 33.2887 9.3075 28.1327 9.3075 23.9874C9.3075 21.42 9.79594 19.2434 10.7324 17.5615C10.7515 17.5254 10.7154 17.4872 10.6793 17.5063C10.2249 17.742 9.74921 17.982 9.24168 18.2326C9.22044 18.2432 9.20346 18.2623 9.19497 18.2835C8.65982 19.7403 8.05459 21.1801 7.08624 22.3226C6.79744 22.6623 6.47891 22.9788 6.13913 23.2654C6.11365 23.2867 6.10303 23.3185 6.1094 23.3504C7.29648 28.8101 9.59418 32.8874 11.4905 35.5142C12.0384 36.2723 12.6373 37.0666 13.1639 37.6951M16.9906 41.1927C17.0203 41.2288 17.0777 41.1969 17.0607 41.1523C16.1688 38.8015 15.7207 35.9899 15.8609 33.2505C15.8736 33.0169 15.8906 32.7876 15.9097 32.5582C15.9097 32.5433 15.9055 32.5285 15.8927 32.5221C13.595 30.9146 12.3018 28.4894 12.238 25.4379C12.1382 20.526 14.7417 16.7269 16.8271 14.4844C16.8568 14.4526 16.8207 14.4016 16.7804 14.4186C15.3066 15.0578 13.9008 15.7458 12.994 16.608C11.3886 18.1391 10.5371 20.6917 10.5371 23.9874C10.5371 29.3452 13.1873 36.3785 16.9885 41.1927M19.2437 42.9467C19.2607 42.9744 19.2989 42.9744 19.3138 42.9467C20.5922 40.7722 21.3206 38.2812 22.0192 35.7117C22.1105 35.3762 22.2019 35.0407 22.2953 34.703C22.3038 34.6712 22.2826 34.6393 22.2486 34.6351C20.2907 34.4524 18.5812 33.9853 17.152 33.2675L17.0925 33.3015C16.9078 36.8563 17.6319 40.3008 19.2437 42.9446M20.5094 43.5052C21.0424 43.1018 22.2932 41.8595 24.6461 38.5424C24.8054 38.3174 24.9668 38.0795 25.1281 37.8353C25.1494 37.8013 25.1452 37.7546 25.1154 37.727C24.4316 37.0644 23.8498 36.4125 23.3528 35.7776C23.3295 35.7478 23.2806 35.7563 23.2721 35.7945C22.5884 38.3216 21.7835 41.095 20.4499 43.45C20.4287 43.4883 20.4754 43.5286 20.5094 43.5031M21.5733 44.119C21.5436 44.1487 21.569 44.1997 21.6094 44.189C25.5168 43.2186 32.4694 36.9391 37.9057 27.4C43.7859 17.0837 45.4402 8.15618 43.8135 4.97294C43.7965 4.93896 43.7434 4.94533 43.7371 4.98568C43.4971 6.35539 42.8707 8.28784 42.2697 9.78284C42.0637 10.2946 41.8407 10.8871 41.605 11.5157C40.3075 14.9622 38.3453 20.1735 34.2447 25.4973C31.9533 28.4746 30.2247 31.5325 28.6979 34.2273C27.651 36.0812 26.6614 37.8311 25.6506 39.256C24.7035 40.5917 22.8326 42.9446 21.5733 44.119ZM23.0364 44.9344C22.9961 44.9514 23.0088 45.013 23.0513 45.013C29.1205 44.9641 37.4725 38.6359 42.4141 29.9696C47.4746 21.0909 48.6064 11.2757 45.5336 6.27044C45.5103 6.23222 45.4508 6.25558 45.4593 6.30017C46.1834 11.0103 43.8263 19.5046 38.976 28.0116C34.302 36.2108 27.6807 42.9637 23.0364 44.9344ZM25.7589 45.8497C33.6522 46.0174 42.4799 40.666 47.0732 32.6092C51.7175 24.4589 51.8598 14.5609 47.8335 8.26236C47.808 8.22201 47.7464 8.25174 47.7591 8.29634C48.341 10.2522 48.6255 12.8111 48.445 15.3275C48.101 20.1544 46.3385 25.5716 43.4844 30.5812C40.7917 35.3019 37.1625 39.4513 33.2636 42.263C30.8172 44.0255 28.0714 45.2402 25.7525 45.769C25.7058 45.7796 25.7122 45.8497 25.761 45.8497M54.5079 25.8626C54.9347 20.6577 53.6181 15.8074 50.7406 11.5497C50.713 11.5093 50.6514 11.5433 50.6684 11.5879C53.049 18.0011 52.2356 26.0409 48.1435 33.2186C45.661 37.572 42.0807 41.2033 37.7847 43.7176C35.3596 45.1383 32.8028 46.1236 30.2842 46.6354C30.2375 46.646 30.2417 46.714 30.2885 46.7182C36.2323 47.1196 41.9957 45.2275 46.5487 41.3647C51.1844 37.4297 54.0131 31.9254 54.5079 25.8647" fill="white"/>
</svg>
