<svg xmlns="http://www.w3.org/2000/svg" width="100" height="100" fill="none" viewBox="0 0 100 100"><path fill="#0b301a" d="M36.29 50.014a1 1 0 0 0 1 1h22.866L49.022 61.898a1 1 0 0 0 1.398 1.43l12.888-12.6a1.005 1.005 0 0 0 0-1.432L50.42 36.698a1 1 0 0 0-1.398 1.43l11.134 10.884H37.288a1 1 0 0 0-1 1z"/><path fill="#0b301a" d="M67.398 32.566c-9.622-9.622-25.276-9.622-34.898 0a24.73 24.73 0 0 0-7.086 14.81 1 1 0 1 0 1.988.212 22.72 22.72 0 0 1 6.512-13.608c8.842-8.842 23.228-8.842 32.07 0s8.842 23.228 0 32.07-23.228 8.842-32.07 0a22.68 22.68 0 0 1-6.578-14.32 1 1 0 1 0-1.994.15A24.66 24.66 0 0 0 32.5 67.464a24.52 24.52 0 0 0 17.45 7.228c6.592 0 12.788-2.566 17.448-7.228 9.622-9.622 9.622-25.276 0-34.898"/></svg>