<svg xmlns="http://www.w3.org/2000/svg" width="100" height="100" fill="none" viewBox="0 0 100 100"><path fill="#0b301a" d="M58.686 60.086h.012a1 1 0 0 0 1-.988l.204-18.024a1 1 0 0 0-.292-.718.97.97 0 0 0-.718-.292l-18.022.206a1 1 0 0 0 .012 2h.012l15.57-.178-16.17 16.17a1 1 0 0 0 1.416 1.414l16.17-16.17-.176 15.57a1 1 0 0 0 .988 1.012z"/><path fill="#0b301a" d="M49.95 25.338c-13.606 0-24.676 11.07-24.676 24.676 0 5.62 1.94 11.118 5.462 15.484a1 1 0 0 0 1.556-1.256 22.73 22.73 0 0 1-5.018-14.228c0-12.504 10.172-22.676 22.676-22.676S72.626 37.51 72.626 50.014 62.454 72.69 49.95 72.69a22.68 22.68 0 0 1-14.776-5.474 1 1 0 0 0-1.304 1.516 24.68 24.68 0 0 0 16.08 5.958c13.606 0 24.676-11.07 24.676-24.676S63.556 25.338 49.95 25.338"/></svg>