<svg xmlns="http://www.w3.org/2000/svg" width="100" height="100" fill="none" viewBox="0 0 100 100"><path fill="#0b301a" d="M49.244 23.422C34.774 23.422 23 35.196 23 49.666a26.3 26.3 0 0 0 5.808 16.468 1 1 0 0 0 1.406.15 1 1 0 0 0 .15-1.406A24.3 24.3 0 0 1 25 49.666c0-13.368 10.876-24.244 24.244-24.244s24.244 10.876 24.244 24.244S62.612 73.91 49.244 73.91a24.23 24.23 0 0 1-15.798-5.854 1.001 1.001 0 0 0-1.304 1.516 26.24 26.24 0 0 0 17.102 6.336c14.47 0 26.244-11.774 26.244-26.244S63.714 23.42 49.244 23.42z"/><path fill="#0b301a" d="M33.5 42.288a1 1 0 0 0-1.3.556 18.36 18.36 0 0 0-.328 12.754 18.23 18.23 0 0 0 9.284 10.546 18.3 18.3 0 0 0 8.072 1.888c1.998 0 4.004-.33 5.95-.994a18.23 18.23 0 0 0 10.546-9.284 18.24 18.24 0 0 0 .892-14.022 18.23 18.23 0 0 0-9.284-10.546 18.24 18.24 0 0 0-14.022-.892 18.3 18.3 0 0 0-8.592 6.142 1 1 0 0 0 .918 1.602 1 1 0 0 0 .664-.38 16.3 16.3 0 0 1 7.654-5.472 16.25 16.25 0 0 1 12.494.796 16.25 16.25 0 0 1 8.272 9.398 16.25 16.25 0 0 1-.796 12.494 16.25 16.25 0 0 1-9.398 8.272 16.25 16.25 0 0 1-12.494-.796 16.25 16.25 0 0 1-8.272-9.398 16.36 16.36 0 0 1 .292-11.364 1 1 0 0 0-.556-1.3z"/><path fill="#0b301a" d="M52.322 41.138a9 9 0 0 1 3.578 2.368 1.002 1.002 0 0 0 1.47-1.358 11.1 11.1 0 0 0-4.368-2.892c-5.74-2.072-12.094.912-14.164 6.652a11 11 0 0 0 .392 8.46 10.99 10.99 0 0 0 6.26 5.704c1.226.442 2.498.664 3.764.664 1.604 0 3.202-.354 4.696-1.056a10.99 10.99 0 0 0 5.704-6.26c.855-2.376.874-4.973.054-7.362a1 1 0 0 0-1.272-.618c-.522.18-.8.75-.618 1.272a8.97 8.97 0 0 1-.044 6.03c-1.696 4.702-6.902 7.146-11.604 5.45a9 9 0 0 1-5.128-4.674 9 9 0 0 1-.322-6.93c1.696-4.702 6.904-7.146 11.604-5.45z"/></svg>