<svg xmlns="http://www.w3.org/2000/svg" width="100" height="100" fill="none" viewBox="0 0 100 100"><path fill="#0b301a" d="M39.558 60.222a1.004 1.004 0 0 0 1.416 0L60.006 41.19a1 1 0 0 0-1.414-1.414l-8.808 8.808-8.808-8.808a1 1 0 0 0-1.414 1.414l8.808 8.808-8.808 8.808a1 1 0 0 0 0 1.414zm13.418-8.44a1 1 0 0 0-1.414 1.414l7.028 7.028a1.004 1.004 0 0 0 1.416 0 1 1 0 0 0 0-1.414l-7.028-7.028z"/><path fill="#0b301a" d="M50 25.324c-5.62 0-11.118 1.94-15.484 5.462a.996.996 0 0 0-.15 1.406 1 1 0 0 0 1.406.15A22.73 22.73 0 0 1 50 27.324c12.504 0 22.676 10.172 22.676 22.676S62.504 72.676 50 72.676 27.324 62.504 27.324 50c0-5.422 1.944-10.67 5.474-14.776a1 1 0 0 0-1.516-1.304A24.68 24.68 0 0 0 25.324 50c0 13.606 11.07 24.676 24.676 24.676S74.676 63.606 74.676 50 63.606 25.324 50 25.324"/></svg>