<svg xmlns="http://www.w3.org/2000/svg" width="100" height="100" fill="none" viewBox="0 0 100 100"><path fill="#0b301a" d="M73.58 33.838H24.4c-.226 0-.444.076-.622.216l-.18.142a1 1 0 0 0-.086 1.49l16.424 16.49-12.282 12.278a1 1 0 0 0 1.416 1.414l12.28-12.274 6.146 6.17a3.58 3.58 0 0 0 2.544 1.062h.012c.962 0 1.864-.372 2.544-1.05L73.79 38.67a.999.999 0 1 0-1.412-1.416L51.184 58.36a1.6 1.6 0 0 1-1.134.466h-.004c-.428 0-.83-.168-1.132-.472L26.488 35.84h47.094c.626 0 1.136.51 1.136 1.136v29.892c0 .626-.51 1.136-1.136 1.136H26.608c-.626 0-1.136-.51-1.136-1.136V40.912a1 1 0 0 0-2 0v25.956a3.14 3.14 0 0 0 3.136 3.136h46.974a3.14 3.14 0 0 0 3.136-3.136V36.976a3.14 3.14 0 0 0-3.136-3.136z"/><path fill="#0b301a" d="M71.824 66.16a1 1 0 0 0 .708-1.706L62.508 54.432a1 1 0 0 0-1.414 1.414l10.024 10.022a1 1 0 0 0 .708.292z"/></svg>