<svg xmlns="http://www.w3.org/2000/svg" width="100" height="100" fill="none" viewBox="0 0 100 100"><path fill="#0b301a" d="M60.784 25.042a26.93 26.93 0 0 0-19.424-1.154 26.92 26.92 0 0 0-15.068 12.056 1.001 1.001 0 0 0 .862 1.506 1 1 0 0 0 .864-.496 24.93 24.93 0 0 1 13.95-11.16 25 25 0 0 1 8.66-1.168c-2.13.584-4.332 1.556-6.55 2.908-5.454 3.326-10.172 8.514-12.618 13.878-3.346 7.336-3.552 17.454-.5 24.604q.113.257.228.508a25 25 0 0 1-4.382-6.624 24.98 24.98 0 0 1-1.218-17.322 1 1 0 0 0-1.92-.564 26.98 26.98 0 0 0 1.314 18.71 26.97 26.97 0 0 0 11.924 12.708c.48.306.976.58 1.49.814a1 1 0 0 0 .38.088 26.8 26.8 0 0 0 10.76 2.256c10.252 0 20.074-5.868 24.6-15.788 6.178-13.542.188-29.584-13.354-35.762zm-1.492 1.628q.256.095.51.206c.052.32.088 1.144-.282 3.03-.964 4.896-4.048 13.678-7.336 20.884C50 55.576 47.14 60.946 44.532 65.156c-3.132 5.054-4.89 6.814-5.482 7.106-1.836-1.012-2.702-4.678-2.32-9.884.392-5.344 2.012-11.574 4.334-16.66 2.32-5.088 5.962-10.394 9.742-14.194 3.388-3.406 6.482-5.158 8.488-4.852zm-17.93 46.246c1.068-1.078 2.466-2.908 4.366-5.904 2.798-4.41 5.892-10.164 8.276-15.394 3.398-7.446 6.472-16.216 7.478-21.328.148-.752.272-1.494.328-2.178 1.29 1.194 2.322 2.942 3.028 5.168 2 6.292 1.2 15.5-1.944 22.394-2.3 5.042-6.424 10.07-11.03 13.452-3.816 2.802-7.514 4.114-10.502 3.79M33.28 42.242c3.776-8.276 13.152-15.788 21.25-16.24-2.002 1.152-3.856 2.814-5.144 4.11-3.938 3.96-7.73 9.482-10.144 14.774s-4.1 11.776-4.508 17.344c-.14 1.894-.178 4.512.324 6.85-.874-1.096-1.634-2.384-2.258-3.85-2.848-6.672-2.652-16.124.48-22.988m39.038 17.732c-4.19 9.186-13.284 14.618-22.776 14.618-1.122 0-2.25-.078-3.374-.232 2.19-.672 4.51-1.884 6.878-3.624 4.87-3.574 9.23-8.896 11.666-14.234 3.334-7.306 4.168-17.106 2.032-23.83q-.32-1.002-.72-1.896c8.1 7.084 10.984 18.918 6.296 29.198z"/></svg>