<svg xmlns="http://www.w3.org/2000/svg" width="100" height="100" fill="none" viewBox="0 0 100 100"><path fill="#0b301a" d="M75.4 49.2H28.618l15.334-8.136a.998.998 0 0 0 .168-1.654 1 1 0 0 0-1.106-.112l-16.182 8.584 11.506-23.746a1 1 0 1 0-1.8-.872l-12.84 26.5s-.004.016-.008.022l-.024.056-.018.048-.01.032-.008.024-.006.03-.01.05-.008.05q0 .018-.004.036 0 .014-.004.028v.036l-.002.024.002.024v.046q0 .019.004.038 0 .013.002.026c0 .012.006.026.008.038q.003.026.01.05l.01.04.01.034.006.022q.007.018.016.036.01.03.024.056c.004.008.004.016.008.022l12.84 26.5a1 1 0 1 0 1.8-.872L26.782 52.416l23.68 11.922a1.002 1.002 0 0 0 1.342-.442 1 1 0 0 0-.444-1.342L28.802 51.198h46.59a1 1 0 0 0 0-2zm-4.908 22.986-9.094-4.578a1 1 0 1 0-.898 1.786l9.094 4.578a1.002 1.002 0 0 0 1.342-.442 1 1 0 0 0-.444-1.342z"/><path fill="#0b301a" d="M51.57 36.892c.158 0 .318-.038.468-.116l9.388-4.982a.998.998 0 0 0 .168-1.654 1 1 0 0 0-1.106-.112L51.1 35.01a1 1 0 0 0 .47 1.884z"/></svg>