<svg xmlns="http://www.w3.org/2000/svg" width="100" height="100" fill="none" viewBox="0 0 100 100"><path fill="#0b301a" d="M70.158 23.4h-5.102v-.35a1 1 0 0 0-1-1h-6.028a1 1 0 0 0 0 2h5.028v11.732l-3.642-1.296a1.7 1.7 0 0 0-1.154 0l-3.644 1.296V23.05a.996.996 0 0 0-.998-1 1 1 0 0 0-1 1v.434a1 1 0 0 0-.4-.084H30.304a1 1 0 0 0-1 1v52.2a1 1 0 0 0 1 1h39.852a1 1 0 0 0 1-1V24.4a1 1 0 0 0-1-1zm-1 52.2H31.306V25.4H52.22q.215-.002.4-.084V37.2a1 1 0 0 0 .996 1.002 1 1 0 0 0 .334-.058l4.886-1.738 4.886 1.738a.996.996 0 0 0 1.224-.482 1 1 0 0 0 .112-.46v-11.8h4.102v50.2z"/><path fill="#0b301a" d="M60.932 45h-21.4a1 1 0 0 0 0 2h21.4a1 1 0 0 0 0-2m0 6h-21.4a1 1 0 0 0 0 2h21.4a1 1 0 0 0 0-2m0 15h-21.4a1 1 0 0 0 0 2h21.4a1 1 0 0 0 0-2"/></svg>