<svg xmlns="http://www.w3.org/2000/svg" width="100" height="100" fill="none" viewBox="0 0 100 100"><path fill="#0b301a" d="M57.68 41.108c0-4.396-3.576-7.97-7.97-7.97a7.9 7.9 0 0 0-3.454.788 1 1 0 0 0 .105 1.846 1 1 0 0 0 .765-.044c.81-.392 1.68-.59 2.584-.59a5.977 5.977 0 0 1 5.97 5.97 5.977 5.977 0 0 1-5.97 5.97 5.977 5.977 0 0 1-5.97-5.97c0-1.124.316-2.22.912-3.168a.998.998 0 1 0-1.692-1.064 7.94 7.94 0 0 0-1.22 4.234c0 4.396 3.576 7.97 7.97 7.97s7.97-3.576 7.97-7.97z"/><path fill="#0b301a" d="M55.638 64.462a95 95 0 0 0 3.996-5.216c5.18-7.288 7.806-13.39 7.806-18.138 0-9.776-7.954-17.73-17.73-17.73s-17.73 7.954-17.73 17.73c0 4.748 2.626 10.85 7.806 18.138 3.862 5.436 7.762 9.554 8.194 10.006.45.47 1.08.74 1.73.74s1.282-.27 1.73-.74c.21-.22 1.244-1.312 2.696-3 3.646.5 7.348 1.742 7.348 3.826 0 2.312-5.186 4.122-11.804 4.122s-11.804-1.81-11.804-4.122c0-1.23 1.402-2.332 3.95-3.102a1 1 0 0 0-.578-1.914c-4.44 1.342-5.372 3.468-5.372 5.016 0 1.45.826 3.466 4.76 4.826 2.416.836 5.626 1.296 9.044 1.296s6.628-.46 9.044-1.296c3.934-1.36 4.76-3.376 4.76-4.826 0-2.75-2.768-4.714-7.846-5.616m-5.644 3.408a.41.41 0 0 1-.57 0c-.422-.442-4.23-4.462-8.01-9.782-4.864-6.846-7.436-12.716-7.436-16.98 0-8.674 7.056-15.73 15.73-15.73s15.73 7.056 15.73 15.73c0 4.264-2.572 10.134-7.436 16.98a96 96 0 0 1-5.026 6.442l-.018.022c-1.59 1.872-2.744 3.088-2.964 3.32z"/></svg>