<svg width="100" height="100" viewBox="0 0 100 100" fill="none" xmlns="http://www.w3.org/2000/svg">
<path d="M30.98 52.34V65.44C30.98 69.16 34 72.16 37.7 72.16H67C69.64 72.16 71.78 70.02 71.78 67.38V63.06M42.98 29.56H38.2C34.22 29.56 30.98 32.8 30.98 36.78V46.04M71.78 50.86V40.56C71.78 38.36 69.98 36.56 67.78 36.56H37.18L62.02 27.84L65.78 35.88M37 56.34L31 50.44M24.96 56.34L31 50.46M75.04 50.88H62.54C59.34 50.88 56.74 53.48 56.74 56.68V56.86C56.74 60 59.3 62.56 62.44 62.56H75.04V50.88Z" stroke="#0B301A" stroke-width="2" stroke-linecap="round" stroke-linejoin="round"/>
</svg>
