<svg xmlns="http://www.w3.org/2000/svg" width="100" height="100" fill="none" viewBox="0 0 100 100"><path fill="#0b301a" d="M76.638 24.344a.996.996 0 0 0-.898-1.092 1 1 0 0 0-1.094.898c-.534 5.43-2.58 10.91-5.914 16.01-6.368-4.682-13.094-5.952-19.04-3.564-5.69 2.286-10.078 6.846-14.084 11.324-1.04 1.162-2.036 2.35-3 3.498-2.96 3.53-5.76 6.864-9.602 9.306a.999.999 0 0 0-.298 1.752 33.6 33.6 0 0 0 4.894 4.19 38.275 38.275 0 0 0 4.55 2.75 1 1 0 0 0 .914-1.78 36 36 0 0 1-4.312-2.608 33 33 0 0 1-2.784-2.194c2.104.128 4.24.246 6.382.246s4.244-.116 6.354-.452c8.752-1.396 17.87-6.228 25.014-13.258a50 50 0 0 0 4.83-5.488c1.118 5.05.484 10.378-1.846 15.206-2.518 5.22-6.802 9.286-11.752 11.154-5.024 1.898-11.668 1.544-18.228-.97a1 1 0 0 0-.716 1.868c4.042 1.55 8.04 2.33 11.76 2.33 2.826 0 5.49-.45 7.89-1.356 5.426-2.048 10.108-6.48 12.846-12.156 2.788-5.778 3.336-12.22 1.56-18.198 3.706-5.512 5.984-11.482 6.566-17.414zm-14.314 23.6C55.47 54.688 46.748 59.32 38.396 60.652c-3.97.632-8.094.438-12.11.196 2.998-2.354 5.372-5.184 7.856-8.148.954-1.136 1.94-2.312 2.958-3.45 3.848-4.3 8.05-8.676 13.34-10.802 5.292-2.124 11.356-.928 17.162 3.358a48 48 0 0 1-5.278 6.134z"/></svg>