<svg xmlns="http://www.w3.org/2000/svg" width="100" height="100" fill="none" viewBox="0 0 100 100"><path fill="#0b301a" d="M68.472 65.032a1 1 0 0 0-1.372.342c-1.368 2.272-3.13 4.388-5.238 6.286-2.43 2.188-5.746 2.902-8.654 1.87a8 8 0 0 1-1.45-.682 2.54 2.54 0 0 0-1.326-.37h-.026a2.57 2.57 0 0 0-1.362.362l-.018.012q-.684.421-1.444.68c-2.91 1.034-6.226.318-8.656-1.868-9.308-8.384-9.372-18.592-8.582-23.93.304-2.068 1.09-3.904 2.27-5.316 3.908-4.68 10.524-3.506 14.12-2.388a1.001 1.001 0 0 0 .594-1.91c-9.486-2.946-14.252.624-16.248 3.016-1.418 1.692-2.356 3.874-2.716 6.306-.848 5.734-.778 16.7 9.222 25.708C39.654 75.012 42.26 76 44.862 76c1.142 0 2.282-.19 3.378-.58a9 9 0 0 0 1.822-.858.6.6 0 0 1 .286-.082h.08c.072 0 .178.014.288.08.558.336 1.168.624 1.816.856 3.602 1.28 7.688.412 10.664-2.266 2.256-2.032 4.144-4.3 5.614-6.742a1 1 0 0 0-.342-1.372zm9.77-6.742a1 1 0 0 0-1.328-.488L71.53 60.29c1.542-5.082 1.348-9.758.892-12.844-.352-2.426-1.29-4.608-2.714-6.308-5.442-6.516-15.002-3.56-18.096-2.364-.73-1.99-2.174-6.82-.382-9.928.864-1.5 2.442-2.432 4.694-2.776.628.982 1.926 3.382 1.32 5.63-.428 1.588-1.782 2.858-4.02 3.774a.997.997 0 0 0-.546 1.304 1 1 0 0 0 1.304.546c2.848-1.164 4.594-2.882 5.194-5.106 1.038-3.848-1.856-7.67-1.98-7.83a1 1 0 0 0-.896-.384c-3.24.336-5.528 1.63-6.804 3.846-2.798 4.862.51 12.33.652 12.646a1 1 0 0 0 1.34.492c.028-.014 2.904-1.352 6.446-1.8 4.528-.574 7.974.512 10.244 3.23 1.186 1.418 1.972 3.254 2.27 5.314.436 2.95.614 7.456-.936 12.316L66.87 53.97a1 1 0 0 0-1.834.798l3.474 7.994a1.007 1.007 0 0 0 1.338.51l7.912-3.656a1 1 0 0 0 .488-1.328z"/></svg>