<svg xmlns="http://www.w3.org/2000/svg" width="100" height="100" fill="none" viewBox="0 0 100 100"><path fill="#0b301a" d="M71.536 54.836c-.626-2.596-2.274-4.79-4.644-6.178-.796-.463-1.65-.82-2.538-1.062a1 1 0 1 0-.522 1.93 8.7 8.7 0 0 1 2.054.858c1.894 1.108 3.21 2.856 3.706 4.918a7.46 7.46 0 0 1-.988 5.808c-2.364 3.704-7.442 4.87-11.322 2.604-1.894-1.108-3.21-2.854-3.706-4.918a7.46 7.46 0 0 1 .976-5.788l12.79-18.082a1.002 1.002 0 0 0-.984-1.564 1 1 0 0 0-.648.408L52.906 51.872a.3.3 0 0 0-.026.04c-1.414 2.212-1.856 4.824-1.246 7.352.626 2.596 2.274 4.79 4.642 6.176a10.45 10.45 0 0 0 5.288 1.424c3.442 0 6.806-1.666 8.73-4.678 1.414-2.212 1.856-4.822 1.246-7.352zm-28.43-6.178c-.796-.463-1.65-.82-2.538-1.062a.998.998 0 1 0-.522 1.93 8.7 8.7 0 0 1 2.054.858c1.894 1.108 3.21 2.854 3.706 4.918a7.46 7.46 0 0 1-.988 5.808c-2.362 3.702-7.442 4.87-11.322 2.604-1.894-1.108-3.21-2.854-3.706-4.918a7.46 7.46 0 0 1 .976-5.788l12.79-18.082a1.002 1.002 0 0 0-.984-1.564 1 1 0 0 0-.648.408L29.12 51.872q-.015.019-.026.04c-1.414 2.212-1.856 4.824-1.246 7.352.626 2.596 2.274 4.79 4.642 6.176a10.47 10.47 0 0 0 5.288 1.424c3.442 0 6.808-1.666 8.73-4.678 1.414-2.212 1.856-4.824 1.246-7.352-.626-2.596-2.274-4.79-4.644-6.178z"/></svg>