<svg xmlns="http://www.w3.org/2000/svg" width="100" height="100" fill="none" viewBox="0 0 100 100"><path fill="#0b301a" d="M71.92 70.292 57.302 55.678a16.92 16.92 0 0 0 3.892-10.812c0-3.87-1.336-7.658-3.762-10.666a1 1 0 0 0-1.406-.15 1 1 0 0 0-.15 1.406 14.84 14.84 0 0 1 3.318 9.41c0 8.27-6.728 14.998-14.998 14.998s-14.998-6.728-14.998-14.998 6.728-14.998 14.998-14.998c2.73 0 5.404.74 7.73 2.142a.999.999 0 1 0 1.032-1.712 16.97 16.97 0 0 0-8.762-2.43c-9.372 0-16.998 7.626-16.998 16.998s7.626 16.998 16.998 16.998c4.55 0 8.686-1.802 11.74-4.724l14.57 14.566a1.004 1.004 0 0 0 1.416 0 1 1 0 0 0 0-1.414z"/></svg>