<svg xmlns="http://www.w3.org/2000/svg" width="100" height="100" fill="none" viewBox="0 0 100 100"><path fill="#0b301a" d="M75.426 24.622a2 2 0 0 0-.166-.182 1.6 1.6 0 0 0-.182-.166 2.18 2.18 0 0 0-2.166-.424q-.03.01-.06.022l-48 19.544a2.13 2.13 0 0 0-1.398 1.986c0 .882.47 1.64 1.228 2.018l.018.01 18.956 8.99c.382.182.836.102 1.136-.196l28.536-28.536L54.422 74.12l-.022.06c-.01.028-.068.066-.1.066-.05 0-.17-.012-.226-.116l-7.536-15.888a1 1 0 1 0-1.808.856L52.272 75l.01.018a2.24 2.24 0 0 0 2.018 1.228c.866 0 1.692-.572 1.986-1.398l19.544-48q.013-.03.022-.06a2.18 2.18 0 0 0-.424-2.166zm-31.552 29.69L25.568 45.63c-.104-.056-.116-.176-.116-.226 0-.034.038-.092.066-.1q.03-.01.06-.022l46.096-18.77z"/></svg>