<svg xmlns="http://www.w3.org/2000/svg" width="100" height="100" fill="none" viewBox="0 0 100 100"><path fill="#0b301a" d="M67.042 23.168a1 1 0 0 0-1.388.276L52.748 42.772 39.842 23.444a1 1 0 0 0-1.664 1.11l12.864 19.264a13 13 0 0 0-1.74.052c-2.63.162-5.176.968-7.4 2.296-.014-.026-.024-.052-.04-.076L26.738 23.444a1 1 0 0 0-1.664 1.11L40.198 47.2q.031.046.066.086a15.6 15.6 0 0 0-2.128 1.992c-4.39 4.968-5.29 11.786-2.348 17.796 2.79 5.7 8.254 9.124 14.432 9.124q.532 0 1.07-.034c6.498-.296 11.938-4.364 14.202-10.624 2.29-6.334.634-13.07-4.322-17.578-1.972-1.794-4.446-3.076-7.01-3.708l13.156-19.702a1 1 0 0 0-.276-1.386zM63.614 64.86c-1.984 5.49-6.748 9.056-12.428 9.308h-.02c-5.788.368-10.992-2.688-13.58-7.972-2.578-5.268-1.792-11.242 2.05-15.592 2.458-2.782 6.034-4.508 9.808-4.738q.019.001.038-.004.532-.051 1.078-.052c3.24 0 6.774 1.364 9.266 3.632 4.346 3.952 5.796 9.86 3.788 15.418"/><path fill="#0b301a" d="M48.094 49.722a10.55 10.55 0 0 0-5.968 3.658 1 1 0 0 0 1.552 1.26 8.4 8.4 0 0 1 4.834-2.96c4.594-.984 9.132 1.954 10.114 6.546a8.46 8.46 0 0 1-1.18 6.41 8.47 8.47 0 0 1-5.37 3.7 8.47 8.47 0 0 1-6.414-1.178 8.46 8.46 0 0 1-3.7-5.366 8.5 8.5 0 0 1-.07-3.208 1.002 1.002 0 0 0-1.565-.984 1 1 0 0 0-.407.648 10.5 10.5 0 0 0 .086 3.962c.588 2.746 2.21 5.1 4.57 6.628a10.45 10.45 0 0 0 7.918 1.456 10.46 10.46 0 0 0 6.63-4.568 10.44 10.44 0 0 0 1.458-7.916c-1.212-5.67-6.816-9.296-12.488-8.084z"/></svg>