<svg xmlns="http://www.w3.org/2000/svg" width="100" height="100" fill="none" viewBox="0 0 100 100"><path fill="#0b301a" d="M71.024 51.254a1 1 0 0 0-1-1H59.56a1 1 0 0 0 0 2h10.464a1 1 0 0 0 1-1m-15.592-1H44.966a1 1 0 0 0 0 2h10.466a1 1 0 0 0 0-2m-14.592 0H30.376a1 1 0 0 0 0 2H40.84a1 1 0 0 0 0-2m-11.826-.83a1 1 0 0 0 1-1V29.6a1 1 0 0 0-2 0v18.824a1 1 0 0 0 1 1m0 3.658a1 1 0 0 0-1 1v18.824a1 1 0 0 0 2 0V54.082a1 1 0 0 0-1-1m14.124-3.658a1 1 0 0 0 1-1V29.6a1 1 0 0 0-2 0v18.824a1 1 0 0 0 1 1m0 3.658a1 1 0 0 0-1 1v18.824a1 1 0 0 0 2 0V54.082a1 1 0 0 0-1-1M57.262 28.6a1 1 0 0 0-1 1v18.824a1 1 0 0 0 2 0V29.6a1 1 0 0 0-1-1m0 24.482a1 1 0 0 0-1 1v18.824a1 1 0 0 0 2 0V54.082a1 1 0 0 0-1-1M71.386 28.6a1 1 0 0 0-1 1v18.824a1 1 0 0 0 2 0V29.6a1 1 0 0 0-1-1m0 24.482a1 1 0 0 0-1 1v18.824a1 1 0 0 0 2 0V54.082a1 1 0 0 0-1-1"/></svg>