<svg xmlns="http://www.w3.org/2000/svg" width="100" height="100" fill="none" viewBox="0 0 100 100"><path fill="#0b301a" d="M51.026 53V38.4a1 1 0 0 0-2 0V53a1 1 0 0 0 2 0"/><path fill="#0b301a" d="m67.716 38.696 3.044-2.71a1 1 0 1 0-1.33-1.494l-3.05 2.716c-3.94-4.028-9.35-6.61-15.354-6.87v-4.68h2.53a1 1 0 0 0 0-2h-7.06a1 1 0 0 0 0 2h2.53v4.68c-12.158.526-21.886 10.578-21.886 22.864a22.93 22.93 0 0 0 5.066 14.36 1 1 0 1 0 1.556-1.256 20.94 20.94 0 0 1-4.622-13.104c0-11.516 9.37-20.886 20.886-20.886s20.886 9.37 20.886 20.886-9.37 20.886-20.886 20.886c-4.994 0-9.828-1.79-13.61-5.042a1 1 0 0 0-1.304 1.516 22.88 22.88 0 0 0 14.914 5.526c12.62 0 22.886-10.266 22.886-22.886 0-5.5-1.952-10.554-5.196-14.506"/></svg>