<svg xmlns="http://www.w3.org/2000/svg" width="100" height="100" fill="none" viewBox="0 0 100 100"><path fill="#0b301a" d="M73.544 36.964a7.42 7.42 0 0 0 2.1-5.07 7.42 7.42 0 0 0-2.102-5.316 7.42 7.42 0 0 0-5.246-2.272 7.45 7.45 0 0 0-4.714 1.578 1.002 1.002 0 0 0 .492 1.781c.263.033.529-.04.738-.203a5.43 5.43 0 0 1 3.45-1.154 5.44 5.44 0 0 1 3.842 1.664 5.43 5.43 0 0 1 1.54 3.892 5.43 5.43 0 0 1-1.664 3.842 5.47 5.47 0 0 1-3.892 1.54 5.44 5.44 0 0 1-3.842-1.664 5.43 5.43 0 0 1-1.54-3.892 5.5 5.5 0 0 1 .408-1.992 1.002 1.002 0 0 0-1.85-.762 7.4 7.4 0 0 0-.558 2.72 7.42 7.42 0 0 0 2.102 5.316 7.42 7.42 0 0 0 5.246 2.272h.124c1.346 0 2.64-.356 3.774-1.022 5.318 9.772 3.602 21.912-4.334 29.848a25.1 25.1 0 0 1-12.28 6.768 25.3 25.3 0 0 1-13.624-.712 1 1 0 0 0-1.268.628c-.176.524.104 1.09.628 1.268a27.27 27.27 0 0 0 14.7.77 27.13 27.13 0 0 0 13.258-7.306c8.648-8.648 10.454-21.918 4.512-32.518z"/><path fill="#0b301a" d="M47.608 45.232a.999.999 0 1 0-.8-1.832c-.856.374-1.628.9-2.294 1.566a7.42 7.42 0 0 0-2.188 5.282c0 1.996.776 3.87 2.188 5.282a7.42 7.42 0 0 0 5.282 2.188c1.996 0 3.87-.776 5.282-2.188a7.42 7.42 0 0 0 2.188-5.282c0-1.996-.776-3.87-2.188-5.282a7.5 7.5 0 0 0-4.484-2.146.998.998 0 0 0-.884 1.622 1 1 0 0 0 .672.366 5.4 5.4 0 0 1 3.282 1.57 5.43 5.43 0 0 1 1.602 3.868 5.43 5.43 0 0 1-1.602 3.868 5.43 5.43 0 0 1-3.868 1.602 5.43 5.43 0 0 1-3.868-1.602 5.43 5.43 0 0 1-1.602-3.868 5.43 5.43 0 0 1 1.602-3.868 5.4 5.4 0 0 1 1.678-1.146z"/><path fill="#0b301a" d="M31.894 60.85a7.37 7.37 0 0 0-4.352 1.218 25.17 25.17 0 0 1 4.44-29.648 25.1 25.1 0 0 1 12.28-6.768 25.3 25.3 0 0 1 13.624.712 1 1 0 0 0 1.268-.628 1 1 0 0 0-.628-1.268 27.27 27.27 0 0 0-14.7-.768 27.13 27.13 0 0 0-13.258 7.306c-8.618 8.618-10.442 21.828-4.57 32.412a7.4 7.4 0 0 0-1.826 4.642 7.42 7.42 0 0 0 2.004 5.354 7.42 7.42 0 0 0 5.204 2.368 7.5 7.5 0 0 0 4.74-1.492 1 1 0 1 0-1.202-1.598 5.4 5.4 0 0 1-3.472 1.09 5.43 5.43 0 0 1-3.81-1.734 5.44 5.44 0 0 1-1.468-3.92 5.43 5.43 0 0 1 1.466-3.54.98.98 0 0 0 .558-.52 5.43 5.43 0 0 1 3.63-1.216 5.43 5.43 0 0 1 3.81 1.734 5.44 5.44 0 0 1 1.468 3.92 5.5 5.5 0 0 1-.444 1.984.999.999 0 1 0 1.834.794 7.4 7.4 0 0 0 .608-2.708c.142-4.116-3.092-7.58-7.208-7.722z"/></svg>