<svg xmlns="http://www.w3.org/2000/svg" width="100" height="100" fill="none" viewBox="0 0 100 100"><path fill="#0b301a" d="M45.73 59.048h-.082c-.266 0-.52-.106-.708-.292l-8.108-8.108a1 1 0 0 1 1.414-1.414l7.442 7.442 15.568-15.568a1 1 0 0 1 1.414 1.414L46.436 58.756a1 1 0 0 1-.708.292z"/><path fill="#0b301a" d="M50.044 74.678q-1.155 0-2.32-.108c-6.564-.608-12.496-3.736-16.708-8.806-4.21-5.07-6.196-11.478-5.586-18.042.608-6.564 3.736-12.496 8.806-16.708 5.07-4.21 11.478-6.196 18.042-5.586a24.67 24.67 0 0 1 15.462 7.416 1.001 1.001 0 0 1-1.438 1.39 22.67 22.67 0 0 0-14.208-6.814 22.53 22.53 0 0 0-16.58 5.134 22.52 22.52 0 0 0-8.092 15.354 22.53 22.53 0 0 0 5.134 16.58A22.52 22.52 0 0 0 47.91 72.58a23 23 0 0 0 2.132.098c5.276 0 10.338-1.82 14.446-5.232a22.52 22.52 0 0 0 8.092-15.354 22.73 22.73 0 0 0-3.684-14.63 1 1 0 1 1 1.666-1.106 24.74 24.74 0 0 1 4.01 15.922c-.608 6.564-3.736 12.496-8.806 16.708-4.472 3.712-9.982 5.694-15.72 5.694z"/></svg>