<svg xmlns="http://www.w3.org/2000/svg" width="100" height="100" fill="none" viewBox="0 0 100 100"><path fill="#0b301a" d="M77.2 42.412c-1.75-4.032-5.274-7.27-8.492-9.904-3.736-3.06-7.562-5.164-11.372-6.256a1.37 1.37 0 0 0-1.512.56c-1.27 1.896-3.652 3.074-6.218 3.074s-4.948-1.178-6.218-3.074a1.37 1.37 0 0 0-1.514-.56c-4.446 1.272-8.43 4.226-11.404 6.658-3.932 3.214-6.58 6.482-8.094 9.986-.082.188-.144.49.014.864.412.966 6.678 8.926 8.294 9.532.662.25 1.416.092 1.934-.414l1.702-1.726V71.77a1.83 1.83 0 0 0 1.828 1.828h27.71a1.83 1.83 0 0 0 1.828-1.826v-9.326l4.21 4.368a1 1 0 0 0 .72.306 1.001 1.001 0 0 0 .72-1.694l-6.048-6.274a1 1 0 0 0-.712-.306 1.02 1.02 0 0 0-.718.296l-6.136 6.19a1 1 0 0 0 1.42 1.408l4.544-4.584V71.6H36.318V48.716a1.002 1.002 0 0 0-1.2-.98c-.194.039-.373.135-.512.276l-3.3 3.346c-.406-.308-1.548-1.416-3.72-4.024-1.526-1.832-2.726-3.406-3.182-4.08 1.414-3.044 3.818-5.926 7.33-8.796 2.726-2.23 6.332-4.916 10.26-6.154 1.684 2.22 4.554 3.582 7.608 3.582s5.926-1.362 7.61-3.584c3.406 1.048 6.844 2.982 10.224 5.752 2.904 2.38 6.068 5.26 7.716 8.7-.46.626-1.602 2.022-3.196 3.816-1.716 1.93-2.772 2.99-3.334 3.498L65.31 47.16a.998.998 0 0 0-1.66.75v8.222a1 1 0 0 0 2 0V50.12l2.258 1.984a1 1 0 0 0 1.01.186c.256-.096.938-.352 4.496-4.352.35-.392 3.422-3.858 3.768-4.674.154-.366.09-.666.01-.852z"/></svg>