<svg xmlns="http://www.w3.org/2000/svg" width="100" height="100" fill="none" viewBox="0 0 100 100"><path fill="#0b301a" d="M49.824 46.726q.38 0 .764-.024c4.64-.212 8.524-3.118 10.14-7.586 1.634-4.522.452-9.33-3.086-12.548-2.296-2.088-5.542-3.208-8.48-2.924-3.062.19-5.966 1.598-7.966 3.862-3.136 3.548-3.778 8.418-1.678 12.708 1.992 4.068 5.894 6.514 10.306 6.514zM42.696 28.83c1.656-1.874 4.064-3.038 6.608-3.192q.019.001.038-.004.356-.035.722-.034c2.178 0 4.556.918 6.234 2.446 2.928 2.664 3.906 6.644 2.552 10.39-1.338 3.698-4.544 6.1-8.368 6.27h-.02a10 10 0 0 1-.63.02c-3.644 0-6.87-2.024-8.518-5.392-1.738-3.55-1.208-7.574 1.38-10.504zm23.688 26.554c-4.88-4.44-11.778-6.82-18.006-6.21-6.522.402-12.702 3.396-16.958 8.212-3.876 4.388-5.998 9.71-6.136 15.388a1.96 1.96 0 0 0 .562 1.428 1.96 1.96 0 0 0 1.416.598h5.69a1 1 0 0 0 0-2h-5.668c.13-5.192 2.078-10.064 5.634-14.09 3.912-4.426 9.598-7.176 15.6-7.542q.017.001.038-.004c5.602-.552 12.07 1.684 16.482 5.698 4.64 4.224 7.252 9.85 7.42 15.936H39.162a1 1 0 0 0 0 2h34.302a1 1 0 0 0 1-.984c.11-7.044-2.76-13.59-8.08-18.432z"/></svg>