<svg xmlns="http://www.w3.org/2000/svg" width="100" height="100" fill="none" viewBox="0 0 100 100"><path fill="#0b301a" d="M77.09 48.812C70.62 42.068 60.826 38.2 50.22 38.2s-20.414 3.868-26.884 10.612a1 1 0 1 0 1.444 1.384c6.094-6.354 15.368-9.998 25.44-9.998s19.332 3.644 25.426 9.998a1 1 0 0 0 1.414.03 1 1 0 0 0 .03-1.414"/><path fill="#0b301a" d="M50.212 42.914c-2.652 0-5.246.916-7.306 2.576a1 1 0 1 0 1.256 1.556 9.53 9.53 0 0 1 6.05-2.134c5.316 0 9.642 4.326 9.642 9.642s-4.326 9.642-9.642 9.642-9.642-4.326-9.642-9.642c0-1.756.476-3.474 1.378-4.97a.999.999 0 1 0-1.712-1.032 11.63 11.63 0 0 0-1.664 6.002c0 6.42 5.222 11.642 11.642 11.642s11.642-5.222 11.642-11.642-5.222-11.642-11.642-11.642z"/></svg>