<svg xmlns="http://www.w3.org/2000/svg" width="100" height="100" fill="none" viewBox="0 0 100 100"><path fill="#0b301a" d="M78.498 59.164a3.23 3.23 0 0 0-1.398-1.918l-2.974-1.82c-.69-.406-1.318-1.52-1.318-2.34v-5.488c-.04-.746.584-1.864 1.276-2.296l2.968-1.816c1.46-.912 1.924-2.78 1.06-4.248l-4.292-7.436c-.87-1.48-2.728-2.016-4.228-1.222l-3.08 1.63-.022.012c-.68.382-1.932.358-2.634-.056l-4.704-2.714c-.734-.432-1.38-1.498-1.38-2.278v-.036l-.122-3.46c-.088-1.688-1.512-3.062-3.172-3.062h-8.516c-1.75 0-3.174 1.396-3.174 3.096l-.06 3.364c-.052.848-.68 1.904-1.372 2.312l-4.71 2.718-.03.018c-.642.4-1.892.412-2.626.024l-3.08-1.63c-1.5-.794-3.358-.258-4.234 1.23l-4.28 7.416c-.87 1.412-.39 3.358 1.06 4.266l2.974 1.82c.69.406 1.318 1.52 1.318 2.34v5.436c0 .778-.652 1.922-1.334 2.348l-2.968 1.816c-1.46.912-1.924 2.78-1.058 4.25l4.29 7.372c.87 1.48 2.728 2.016 4.228 1.222l3.08-1.63.022-.012c.68-.382 1.932-.358 2.634.056l4.704 2.714c.734.432 1.38 1.498 1.38 2.278v.036l.122 3.46c.088 1.688 1.512 3.062 3.172 3.062h8.516c1.688 0 3.082-1.344 3.172-3.06l.182-3.324c.044-.85.676-1.918 1.374-2.326l4.71-2.718.03-.018c.642-.402 1.892-.412 2.618-.028l3.028 1.634c1.5.794 3.358.258 4.234-1.23l4.28-7.416a3 3 0 0 0 .336-2.348zm-2.044 1.304-.018.03-4.284 7.422c-.332.564-1.006.766-1.562.472l-3.028-1.634c-1.372-.726-3.348-.69-4.606.086l-4.704 2.714c-1.29.758-2.284 2.42-2.364 3.948l-.182 3.324c-.03.566-.452 1.166-1.176 1.166h-8.516c-.604 0-1.142-.534-1.174-1.15l-.12-3.426c-.008-1.484-1.022-3.194-2.372-3.988l-4.704-2.714c-1.296-.762-3.318-.796-4.608-.076l-3.07 1.626c-.562.298-1.238.096-1.566-.464l-4.29-7.372a1.136 1.136 0 0 1 .384-1.54l2.968-1.816c1.28-.8 2.282-2.578 2.282-4.048v-5.436c0-1.544-.99-3.29-2.29-4.054l-2.952-1.808c-.51-.32-.704-1.044-.406-1.522l.018-.03 4.284-7.422c.332-.564 1.008-.766 1.57-.468l3.08 1.63c1.374.726 3.348.69 4.606-.086l4.704-2.714c1.29-.758 2.284-2.42 2.364-3.95v-.034l.06-3.4c0-.604.538-1.114 1.174-1.114h8.516c.604 0 1.142.534 1.174 1.15l.12 3.426c.008 1.484 1.022 3.194 2.372 3.988l4.704 2.714c1.296.762 3.318.796 4.608.076l3.07-1.626c.562-.298 1.236-.096 1.566.462l4.292 7.436c.314.532.14 1.21-.386 1.54l-2.968 1.816c-1.314.822-2.284 2.604-2.222 4.072v5.412c0 1.544.99 3.29 2.29 4.054l2.952 1.808c.25.156.436.416.512.714.074.29.038.578-.106.806z"/><path fill="#0b301a" d="M58.926 42.052a.997.997 0 0 0-.15 1.406 10.8 10.8 0 0 1 2.416 6.85c0 6.02-4.898 10.916-10.916 10.916S39.36 56.326 39.36 50.308s4.898-10.916 10.916-10.916c1.988 0 3.934.54 5.626 1.558a.999.999 0 1 0 1.032-1.712 12.9 12.9 0 0 0-6.658-1.846c-7.122 0-12.916 5.794-12.916 12.916s5.794 12.916 12.916 12.916 12.916-5.794 12.916-12.916a12.96 12.96 0 0 0-2.858-8.106 1 1 0 0 0-1.406-.15z"/></svg>