<svg xmlns="http://www.w3.org/2000/svg" width="400" height="300" viewBox="0 0 400 300"><rect width="100%" height="100%" fill="#c2cbc6"/><path fill="#486453" d="M87.305 150.365h4.63q1.7 0 2.96-.42 1.27-.43 2.11-1.22.84-.8 1.25-1.93.41-1.14.41-2.55 0-1.33-.41-2.41t-1.24-1.84-2.09-1.16q-1.27-.4-2.99-.4h-4.63zm-6.18-16.72h10.81q3.33 0 5.77.78 2.44.79 4.02 2.19 1.59 1.4 2.36 3.36.77 1.95.77 4.27 0 2.42-.8 4.43-.81 2.02-2.42 3.46-1.61 1.45-4.03 2.26-2.43.8-5.67.8h-4.63v11.71h-6.18zm27.64-.92h5.68v34.18h-5.68zm23.83 28.09v-3.98q-2.46.11-4.14.42t-2.69.79q-1.01.49-1.45 1.13-.44.65-.44 1.4 0 1.5.89 2.14.88.65 2.31.65 1.75 0 3.02-.63 1.28-.64 2.5-1.92m-12.01-12.4-1.01-1.82q4.07-3.73 9.8-3.73 2.07 0 3.7.68 1.64.68 2.76 1.89 1.13 1.21 1.72 2.89.58 1.67.58 3.68v14.9h-2.57q-.81 0-1.25-.24-.43-.24-.69-.98l-.5-1.7q-.9.8-1.75 1.41t-1.77 1.03q-.92.41-1.97.63-1.04.22-2.31.22-1.49 0-2.76-.4-1.26-.41-2.18-1.21-.92-.81-1.43-2-.51-1.2-.51-2.79 0-.89.3-1.78.3-.88.98-1.69.68-.8 1.76-1.52 1.08-.71 2.66-1.24 1.57-.53 3.67-.86 2.09-.34 4.78-.4v-1.38q0-2.37-1.01-3.51t-2.92-1.14q-1.38 0-2.29.32t-1.6.73q-.69.4-1.25.72-.57.32-1.26.32-.6 0-1.01-.31t-.67-.72m41.29-2.19-1.5 2.07q-.25.32-.49.51-.24.18-.7.18-.44 0-.85-.26-.42-.27-.99-.6-.58-.33-1.37-.6-.79-.26-1.97-.26-1.49 0-2.62.54t-1.87 1.55q-.75 1.01-1.12 2.45t-.37 3.25q0 1.89.41 3.36.4 1.48 1.16 2.48t1.84 1.51q1.08.52 2.43.52 1.36 0 2.2-.33.84-.34 1.42-.74.57-.4 1-.73.42-.34.95-.34.69 0 1.04.53l1.63 2.07q-.94 1.1-2.05 1.85-1.1.75-2.29 1.2-1.18.45-2.43.63-1.26.18-2.5.18-2.19 0-4.12-.81-1.93-.82-3.38-2.38-1.45-1.57-2.29-3.83-.84-2.27-.84-5.17 0-2.59.75-4.81t2.2-3.84q1.45-1.63 3.59-2.55 2.13-.92 4.92-.92 2.64 0 4.63.86 1.99.85 3.58 2.43m8.26 6.17h10.71q0-1.11-.31-2.08-.31-.98-.93-1.72-.62-.73-1.57-1.16-.96-.42-2.22-.42-2.46 0-3.88 1.4-1.41 1.4-1.8 3.98m14.49 3.42h-14.61q.14 1.82.64 3.14.51 1.33 1.34 2.19t1.97 1.29q1.13.42 2.51.42t2.38-.32 1.75-.71 1.31-.72q.57-.32 1.1-.32.71 0 1.05.53l1.64 2.07q-.95 1.1-2.12 1.85t-2.45 1.2-2.6.63-2.56.18q-2.46 0-4.58-.81-2.12-.82-3.68-2.42t-2.46-3.95q-.9-2.36-.9-5.46 0-2.42.78-4.55.79-2.13 2.25-3.7 1.46-1.58 3.56-2.5 2.11-.92 4.75-.92 2.23 0 4.12.72 1.88.71 3.24 2.08t2.13 3.36.77 4.54q0 1.29-.28 1.74-.27.44-1.05.44m11.27-23.09v13.11q1.38-1.29 3.03-2.09 1.66-.81 3.89-.81 1.93 0 3.43.66 1.49.65 2.49 1.84 1 1.18 1.52 2.83.52 1.64.52 3.62v15.02h-5.68v-15.02q0-2.16-.99-3.35-.99-1.18-3.02-1.18-1.47 0-2.76.67-1.28.66-2.43 1.81v17.07h-5.69v-34.18zm30.7 10.21q2.62 0 4.77.86 2.15.85 3.68 2.41t2.36 3.82q.83 2.25.83 5.03 0 2.81-.83 5.06-.83 2.26-2.36 3.85-1.53 1.58-3.68 2.43t-4.77.85q-2.64 0-4.81-.85-2.16-.85-3.69-2.43-1.53-1.59-2.37-3.85-.84-2.25-.84-5.06 0-2.78.84-5.03.84-2.26 2.37-3.82t3.69-2.41q2.17-.86 4.81-.86m0 19.94q2.94 0 4.36-1.97 1.41-1.98 1.41-5.8t-1.41-5.82q-1.42-2-4.36-2-2.99 0-4.43 2.01-1.43 2.02-1.43 5.81 0 3.8 1.43 5.79 1.44 1.98 4.43 1.98m16.05-30.15h5.69v34.18h-5.69zm26.18 27.19v-10.58q-.97-1.18-2.11-1.66-1.13-.48-2.45-.48-1.28 0-2.32.48-1.03.48-1.77 1.46t-1.13 2.49q-.39 1.5-.39 3.55 0 2.07.34 3.51.33 1.43.95 2.34t1.52 1.31q.9.41 2 .41 1.77 0 3.01-.74 1.24-.73 2.35-2.09m0-27.19h5.68v34.18h-3.47q-1.13 0-1.43-1.03l-.48-2.28q-1.43 1.63-3.28 2.64t-4.31 1.01q-1.93 0-3.54-.8t-2.78-2.33q-1.16-1.53-1.79-3.79-.63-2.25-.63-5.15 0-2.62.71-4.88.71-2.25 2.05-3.91 1.33-1.65 3.19-2.58 1.87-.94 4.19-.94 1.98 0 3.38.63 1.4.62 2.51 1.68zm15.78 19.67h10.71q0-1.11-.31-2.08-.31-.98-.93-1.72-.62-.73-1.57-1.16-.96-.42-2.22-.42-2.46 0-3.88 1.4-1.41 1.4-1.8 3.98m14.49 3.42h-14.61q.14 1.82.65 3.14.5 1.33 1.33 2.19t1.97 1.29q1.13.42 2.51.42t2.39-.32q1-.32 1.74-.71.75-.39 1.31-.72.57-.32 1.1-.32.71 0 1.05.53l1.64 2.07q-.95 1.1-2.12 1.85t-2.45 1.2q-1.27.45-2.6.63-1.32.18-2.56.18-2.46 0-4.58-.81-2.11-.82-3.68-2.42-1.56-1.6-2.46-3.95-.9-2.36-.9-5.46 0-2.42.79-4.55.78-2.13 2.24-3.7 1.46-1.58 3.56-2.5 2.11-.92 4.75-.92 2.23 0 4.12.72 1.89.71 3.24 2.08 1.36 1.37 2.13 3.36t.77 4.54q0 1.29-.28 1.74-.27.44-1.05.44m10.6-11.08.34 2.67q1.11-2.12 2.63-3.33 1.51-1.21 3.58-1.21 1.64 0 2.63.72l-.37 4.25q-.12.42-.33.59-.22.17-.59.17-.35 0-1.02-.11-.68-.12-1.33-.12-.94 0-1.68.28-.73.27-1.32.79t-1.03 1.26q-.45.73-.84 1.67v14.54h-5.68v-23.6h3.33q.87 0 1.22.31.34.31.46 1.12"/></svg>