<svg width="24" height="24" fill="none"  viewBox="0 0 24 29" xmlns="http://www.w3.org/2000/svg"><path d="M20.373 6.047h-.026A7.146 7.146 0 0013.487 1C9.91 1 6.887 3.655 6.388 7.125h-.316A5.076 5.076 0 001 12.198a5.06 5.06 0 005.073 5.073H7.1c-.027-.236 0-.446 0-.683.026-.158.026-.29.052-.447H6.047a3.938 3.938 0 01-3.943-3.943 3.938 3.938 0 013.943-3.943c.237 0 .473.026.71.079a.55.55 0 00.447-.105.51.51 0 00.21-.42c.236-3.208 2.891-5.705 6.072-5.705a6.045 6.045 0 015.889 4.653c.052.263.315.447.604.42.158-.026.29-.026.394-.026a4.465 4.465 0 014.469 4.469 4.465 4.465 0 01-4.469 4.469h-.999c-.078.368-.157.762-.236 1.13h1.235a5.604 5.604 0 005.6-5.6c0-3.048-2.498-5.572-5.6-5.572z" fill="#228524"/><path d="M17.35 9.675c-3.391 3.443-8.648 3.338-8.99 6.992-.079.815.131 1.446.657 2.103a19.73 19.73 0 014.89-3.496c.157-.08.341 0 .394.184.026.131-.027.263-.132.315-3.049 1.867-4.731 3.785-6.572 8.333-.131.315 0 .71.316.841.079.027.158.053.236.053a.656.656 0 00.579-.394c.447-1.078 1.577-3.418 2.155-4.206 1.604.867 3.602 1.104 4.995.157 2.34-1.577 2.786-7.15 2.628-10.435-.026-.579-.735-.868-1.156-.447z" fill="#228524"/></svg>
