<svg width="24" height="24" fill="none" xmlns="http://www.w3.org/2000/svg"><path d="M16.525 8.486h4.709l1.593 2.5v3.478h.516v1.119H21.72l.001-.023a1.79 1.79 0 00-1.787-1.788 1.79 1.79 0 00-1.788 1.788l.001.023h-1.622V8.486zm2.674 2.605h.006v.005h2.792v-.107h-.012l-1.199-1.882v-.034h-1.48v-.001h-.107v2.019zM7.52 17.26c.805 0 1.46-.655 1.46-1.46 0-.805-.655-1.46-1.46-1.46-.806 0-1.461.655-1.461 1.46 0 .805.655 1.46 1.46 1.46zm0-2.295a.836.836 0 010 1.67.836.836 0 010-1.67z" fill="#F2994A"/><path d="M19.934 17.043c.805 0 1.46-.655 1.46-1.46 0-.805-.654-1.46-1.46-1.46-.805 0-1.46.655-1.46 1.46 0 .805.655 1.46 1.46 1.46zm0-2.296a.836.836 0 010 1.671.836.836 0 010-1.67zM7.932 6.74h8.166v9.06h-6.78a1.788 1.788 0 00-1.783-1.677c-.949 0-1.725.743-1.782 1.677H3.128M.727 13.825c0-.49.18-.939.477-1.284l4.438-5.002a1.97 1.97 0 011.78-.79L2.624 15.8l.002-.003a1.974 1.974 0 01-1.898-1.97z" fill="#F2994A"/></svg>