<svg width="24" height="24" viewBox="0 0 24 24" fill="none" xmlns="http://www.w3.org/2000/svg"><path d="M3 9.655V21a1 1 0 11-2 0V9a1 1 0 01.848-.988 1.08 1.08 0 01.035-.022l9.71-5.605c.347-.201.762-.177 1.071.026a1 1 0 01.202.089L22.392 8c.138.08.25.187.332.31.171.18.276.423.276.69v12a1 1 0 11-2 0V9.506l-8.87-5.122L3 9.654z" fill="#5A62A6"/><mask id="a" fill="#fff"><rect x="5" y="16" width="6" height="6" rx="1.5"/></mask><rect x="5" y="16" width="6" height="6" rx="1.5" stroke="#5A62A6" stroke-width="6" mask="url(#a)"/><mask id="b" fill="#fff"><rect x="13" y="16" width="6" height="6" rx="1.5"/></mask><rect x="13" y="16" width="6" height="6" rx="1.5" stroke="#5A62A6" stroke-width="6" mask="url(#b)"/><mask id="c" fill="#fff"><rect x="9" y="8" width="6" height="6" rx="1.5"/></mask><rect x="9" y="8" width="6" height="6" rx="1.5" stroke="#5A62A6" stroke-width="6" mask="url(#c)"/></svg>
