<svg width="24" height="24" fill="none" xmlns="http://www.w3.org/2000/svg"><path d="M21.204 13.597L17.88 15.33v-.56l3.605-1.876a.305.305 0 00.129-.41.302.302 0 00-.41-.127l-3.324 1.732v-.6l3.605-1.877a.305.305 0 00.129-.41.305.305 0 00-.41-.127l-3.324 1.73v-.565l3.543-1.842a.3.3 0 00.162-.273.297.297 0 00-.168-.269l-5.519-2.728a.296.296 0 00-.268 0L3.745 12.935a.306.306 0 000 .547l5.943 2.887a.295.295 0 00.271-.004l3.835-1.998v.564l-3.98 2.072-5.806-2.82a.301.301 0 00-.402.143.301.301 0 00.14.404l5.942 2.886a.294.294 0 00.271-.004l3.834-1.998v.597l-3.98 2.072-5.805-2.819a.298.298 0 00-.402.144.3.3 0 00.14.404l5.942 2.884a.284.284 0 00.27-.004l3.835-1.996v.556l-3.98 2.072-5.805-2.817a.3.3 0 00-.403.142.3.3 0 00.14.404l5.943 2.884a.284.284 0 00.27-.004l4.28-2.224 7.246-3.772a.303.303 0 00.13-.408.303.303 0 00-.41-.131zm-7.109-.07l-5.07-2.496 2.877-1.407 4.983 2.451-2.79 1.452zm1.666-5.789l4.85 2.396-3.059 1.592-4.958-2.441 3.167-1.547zm-5.945 8.017l-5.244-2.548 3.763-1.838 5.09 2.505-3.61 1.881zm5.342-2.098l.008-.004 2.107-1.096v3.086l-2.87 1.495v-3.085l.755-.396zM9.006 7.892c2.45 0 4.3-.874 4.3-2.031s-1.848-2.031-4.3-2.031-4.302.874-4.302 2.03c0 1.158 1.85 2.032 4.302 2.032zm0-3.455c2.177 0 3.693.751 3.693 1.424 0 .673-1.516 1.424-3.693 1.424S5.313 6.534 5.313 5.86c0-.673 1.516-1.424 3.693-1.424z" fill="#3CB848"/><path d="M13.232 7.63a.304.304 0 10-.554-.25c-.21.465-1.672.967-3.673.967-2 0-3.462-.502-3.674-.968-.07-.152-.248-.222-.402-.152a.305.305 0 00-.152.402c.413.911 2.48 1.328 4.228 1.328 1.748 0 3.818-.417 4.226-1.328z" fill="#3CB848"/><path d="M9.309 9.8a.302.302 0 00-.302-.304c-2 0-3.462-.503-3.674-.97-.072-.15-.25-.22-.404-.15-.152.07-.222.248-.152.402.413.91 2.48 1.327 4.228 1.327A.305.305 0 009.31 9.8zM7.116 10.963a.302.302 0 00.299-.259.301.301 0 00-.254-.344c-1.274-.191-1.763-.515-1.84-.657a.304.304 0 00-.534.292c.308.56 1.412.835 2.283.966.017.002.031.002.046.002zM5.305 10.8a.303.303 0 00-.423-.077.305.305 0 00-.078.423c.168.242.556.435 1.186.586a.304.304 0 10.144-.59c-.704-.17-.825-.335-.83-.343zM14.219 11.008c.111.267-.365.72-1.063 1.009-.698.29-1.354.307-1.465.039-.111-.268.365-.72 1.063-1.01.698-.289 1.354-.306 1.465-.038" fill="#3CB848"/></svg>