<svg width="24" height="24" viewBox="0 0 24 24" fill="none" xmlns="http://www.w3.org/2000/svg"><path d="M10.697 17.416H16.807c.363 0 .65-.286.65-.65v-6.447a.677.677 0 00-.339-.572l-4.731-4.29a.716.716 0 00-.65 0l-4.731 4.29a.646.646 0 00-.338.572v6.447c0 .364.286.65.65.65h3.38zm.65-1.3v-3.535h1.43v3.535h-1.43zm-3.353-5.433l4.081-3.665 4.081 3.665v5.433h-2.08v-4.185a.644.644 0 00-.65-.65h-2.729a.644.644 0 00-.65.65v4.185h-2.08v-5.433h.027z" fill="#4D6B87"/><path d="M21.511 13.412c-.364-.052-.702.182-.754.52-.728 4.238-4.393 7.305-8.708 7.305-4.264 0-7.851-3.041-8.657-7.097l.364.364c.13.13.286.182.468.182a.626.626 0 00.468-.182c.26-.26.26-.676 0-.91l-1.638-1.637a.359.359 0 00-.104-.078c-.026 0-.026-.026-.052-.026s-.052-.026-.052-.026c-.026 0-.052-.026-.078-.026-.026 0-.026 0-.052-.026a.443.443 0 00-.26 0c-.026 0-.026 0-.052.026-.026 0-.052 0-.052.026-.026 0-.052.026-.052.026-.026 0-.026.026-.052.026-.026.026-.078.052-.104.078L.506 13.594c-.26.26-.26.676 0 .91.13.13.286.182.468.182a.626.626 0 00.468-.182l.624-.624c.702 4.888 4.94 8.683 10.035 8.683 4.939 0 9.15-3.535 9.982-8.397a.726.726 0 00-.572-.754zM23.512 9.591c-.26-.26-.675-.26-.91 0l-.65.65c-.701-4.887-4.939-8.683-10.034-8.683-4.939 0-9.15 3.536-9.982 8.397-.052.364.182.702.52.754.364.052.702-.182.754-.52.728-4.237 4.393-7.305 8.708-7.305 4.264 0 7.851 3.042 8.657 7.097l-.364-.364c-.26-.26-.676-.26-.91 0-.26.26-.26.676 0 .91l1.638 1.638c.026.026.052.052.104.078.026 0 .026.026.052.026s.052.026.078.026c.026 0 .052.026.052.026.026 0 .026 0 .052.026h.26c.026 0 .026 0 .052-.026.026 0 .052 0 .052-.026.026 0 .052-.026.078-.026.026 0 .026-.026.052-.026.026-.026.078-.052.104-.078l1.637-1.638a.712.712 0 000-.936z" fill="#4D6B87"/></svg>
