<svg xmlns="http://www.w3.org/2000/svg" width="100" height="100" fill="none" viewBox="0 0 100 100"><path fill="#0b301a" d="M82.433 24.863 71.231 14.97c-1.387-1.225-3.43-1.187-4.554.086l-4.688 5.307L21.573 66.13a.36.36 0 0 0-.088.192L18.91 85.02v.096q0 .011.004.023.002.015.007.03l.002.01q0 .002.002.004l.01.024.012.026q0 .004.004.009 0 .003.003.005l.016.022.015.023.006.007.006.006.016.017.006.006.002.002.011.012.005.005q.001 0 .002.002l.013.01.017.013.01.007.02.012.011.007.006.003h.002l.017.008.015.005q.009.005.02.008l.018.005.012.002.013.003.01.002a.3.3 0 0 0 .054.005h.003l.049-.004q.006 0 .012-.002h.01q.004-.002.01-.003.006 0 .013-.002L37.61 80.56a.37.37 0 0 0 .18-.111l40.35-45.69a.4.4 0 0 0 .079-.065l1.362-1.54q.015-.014.028-.027.028-.031.052-.065l1.627-1.84s.01-.006.014-.012l.034-.041 1.574-1.78c1.124-1.272.91-3.305-.477-4.53zm-16.819-7.504c.56-.633 1.934-.373 3.001.571l11.203 9.893c1.058.934 1.487 2.25.95 2.89l-.997 1.127a3 3 0 0 0-.148-.383c-.28-.606-.785-1.249-1.419-1.808l-11.202-9.893c-.815-.72-1.67-1.163-2.373-1.281zm-1.692 1.918c.125-.14.465-.145.888-.01.535.172 1.157.549 1.71 1.037l11.202 9.893c.552.487 1.004 1.06 1.24 1.569.177.386.219.71.114.861l-1.163 1.315-1.966-1.738a.35.35 0 0 0-.156-.136l-2.138-1.889a.343.343 0 0 0-.165-.145l-2.059-1.818a.4.4 0 0 0-.074-.094.4.4 0 0 0-.102-.063l-1.828-1.614a.35.35 0 0 0-.176-.157l-2.06-1.818a.4.4 0 0 0-.07-.088.4.4 0 0 0-.094-.06l-2.138-1.888a.33.33 0 0 0-.155-.136l-1.954-1.726 1.145-1.297zm2.429 5.425-39.537 44.77a.4.4 0 0 0-.052.076l-5.925 11.64 3.959-12.96 39.803-45.072 1.75 1.547zm2.23 1.97L29.364 71.079l-.017.022-7.868 10.434 5.913-11.616 39.505-44.735zm2.004 1.77L31.378 72.838l-9.031 8.759L29.92 71.55l39.207-44.397zm2.23 1.97L33.31 75.145 22.513 82.45l9.383-9.098.02-.02 39.216-44.408 1.683 1.486zM33.757 75.723a.4.4 0 0 0 .069-.06l39.536-44.77 1.751 1.547L35.31 77.513l-12.372 5.53zM22.192 66.53l40.102-45.41 1.758 1.553-39.856 45.131a.4.4 0 0 0-.075.135l-3.868 12.663L22.19 66.53zm15.124 13.356L23.592 83.55l12.088-5.404a.35.35 0 0 0 .124-.092L75.66 32.923l1.758 1.553zM82.363 28.91l-.656.742c-.112-.794-.6-1.663-1.407-2.375l-11.202-9.893c-.806-.711-1.73-1.088-2.531-1.102l.655-.742c.858-.972 2.44-.982 3.525-.023l11.202 9.892c1.085.96 1.27 2.53.413 3.501z"/></svg>