<svg xmlns="http://www.w3.org/2000/svg" width="100" height="100" fill="none" viewBox="0 0 100 100"><path fill="#0b301a" d="M86.007 64.936a.36.36 0 0 0-.12-.279L71.253 51.63a.364.364 0 0 0-.606.271l-.015 3.746h-4.11c-3.162 0-5.954-1.042-8.788-3.278q-.008-.006-.015-.01a.3.3 0 0 0-.062-.035q-.019-.008-.038-.015l-.027-.007-.043-.007-.026-.002h-.045l-.024.003-.046.01q-.01.001-.02.007a.3.3 0 0 0-.064.03l-.04.027-.018.015q-.01.008-.02.017l-.271.286c-1.892 2.02-3.882 4.62-5.926 7.332l-.637.845c-.952 1.264-1.936 2.572-2.972 3.886l-.006.008-.02.034q-.01.014-.017.029l-.014.034q-.006.017-.01.034-.004.016-.006.034-.005.017-.005.035v.035q0 .017.002.034l.008.034q.004.018.01.034.005.015.013.031.007.017.016.033l.02.028q.01.016.024.03l.006.01c5.93 6.252 11.988 9.165 19.063 9.165h4.047l-.025 4.041a.366.366 0 0 0 .423.362.36.36 0 0 0 .187-.09l14.736-13.493a.37.37 0 0 0 .116-.278zm-15.228-.28-.017.001-.017-.002h-4.223c-4.959 0-9.28-1.886-13.58-5.929q.587-.766 1.163-1.503c3.938 3.517 7.893 5.158 12.417 5.158h4.161q.014.005.027.009l11.893 2.299zm-15.007-9.497c3.427 2.876 6.853 4.22 10.752 4.22h4.16L82.5 64.166 70.889 61.68a.4.4 0 0 0-.142-.029h-4.223c-4.347 0-8.156-1.592-11.964-5.003q.612-.77 1.212-1.49zm15.602-2.447 11.75 10.413L71.36 55.79l.002-.1.012-2.976zm-13.867.474.04-.041c2.847 2.173 5.786 3.231 8.977 3.231h4.399l11.474 7.062-11.517-4.766a.36.36 0 0 0-.17-.023h-4.185c-3.717 0-6.992-1.288-10.28-4.046q.64-.748 1.264-1.417zM52.5 59.31c4.423 4.142 8.888 6.075 14.023 6.075h4.223q.008 0 .017-.002l.018.002h.002l11.821-.072-11.87 2.346h-4.21c-5.562 0-10.386-2.177-15.16-6.843l.268-.357zm-1.58 2.093c4.898 4.763 9.865 6.986 15.603 6.986h4.223q.015-.001.028-.004h.007a.4.4 0 0 0 .074-.007l11.54-2.44-11.721 4.723h-4.151c-6.165 0-11.488-2.47-16.731-7.764q.573-.755 1.129-1.495zm5.116 9.678c-2.657-1.406-5.22-3.414-7.829-6.128q.58-.74 1.139-1.47c5.365 5.39 10.834 7.908 17.177 7.908h4.223q.072 0 .138-.028l11.616-4.8-11.693 7.103h-4.284c-3.771 0-7.201-.846-10.487-2.585M71.3 74.218l11.286-6.967L71.28 77.605zM15.46 42.39h7.084c3.695 0 7.035 1.628 10.51 5.124l.011.009.017.017.02.013.019.013.042.023.02.008a.3.3 0 0 0 .05.014q.006.004.014.004a.4.4 0 0 0 .066.006h.003a.4.4 0 0 0 .072-.008q.012-.001.022-.006a.3.3 0 0 0 .05-.016l.024-.013a.3.3 0 0 0 .065-.045l.022-.017.014-.018q.006-.005.01-.01a93 93 0 0 0 1.612-2.048l.004-.006q.762-.993 1.553-2.05l.002-.003q.21-.278.42-.56.423-.56.847-1.126.137-.181.274-.364l.005-.007q.76-1.009 1.545-2.032l.008-.01a104 104 0 0 1 3.041-3.796l.132-.156.002-.002a.3.3 0 0 0 .036-.053l.004-.007a.4.4 0 0 0 .025-.058q0-.004.003-.008a.4.4 0 0 0 .013-.058q0-.004.002-.01a.3.3 0 0 0 0-.059v-.013a.3.3 0 0 0-.01-.053l-.003-.016-.016-.044-.01-.023a.4.4 0 0 0-.04-.061l-.005-.007C38.59 29.636 32.24 23.643 22.544 23.643H15.46a.365.365 0 0 0-.364.364v18.018c0 .201.163.365.364.365m24.089-3.893c-2.495-2.767-4.805-4.732-7.243-6.163-3.081-1.807-6.275-2.685-9.762-2.685h-6.72v-2.274h6.72c8.463 0 14.126 5.127 18.129 9.688q-.572.719-1.123 1.433zm-1.56 2.045c-2.26-2.446-4.436-4.254-6.64-5.516-2.792-1.598-5.672-2.375-8.806-2.375h-6.72v-2.274h6.72c7.69 0 12.878 4.602 16.554 8.705q-.561.733-1.109 1.459m-3.113 4.128c-4.018-4.1-7.946-6.013-12.333-6.013h-6.72v-2.274h6.72c4.852 0 9.01 2.104 13.449 6.812q-.566.753-1.116 1.474m-19.051-3.01v-2.274h6.719c4.262 0 7.938 1.814 11.884 5.868q-.579.752-1.147 1.459c-3.518-3.445-6.938-5.054-10.737-5.054zm20.776.724-.166.22c-2.05-2.16-4.025-3.758-6.027-4.874-2.504-1.396-5.077-2.075-7.867-2.075h-6.718v-2.274h6.718c5.441 0 10.077 2.395 15 7.753l-.091.121q-.427.566-.85 1.13M22.543 24.372c4.897 0 11.556 1.227 19.74 10.724q-.587.694-1.149 1.39c-4.099-4.653-9.897-9.84-18.591-9.84h-6.72v-2.274z"/><path fill="#0b301a" d="m48.6 58.207.017-.022c5.52-7.326 10.287-13.652 17.906-13.652h4.024l.014 3.745a.364.364 0 0 0 .608.27L85.8 35.52l.006-.006.01-.008.018-.022q.012-.011.02-.025l.005-.006.014-.025.017-.03.004-.007.008-.028.01-.032.002-.007v-.001q.003-.015.004-.027.001-.017.004-.033v-.036l-.001-.017-.002-.023-.001-.017-.002-.007-.005-.016-.005-.02-.008-.025-.008-.019q-.002-.007-.006-.013l-.016-.028-.01-.016-.006-.008-.01-.012-.023-.028-.01-.008-.005-.006L71.07 21.472a.364.364 0 0 0-.61.269l-.003 4.044h-3.933c-12.671 0-19.781 9.423-26.057 17.74q-.426.564-.844 1.123c-2.619 3.488-5.092 6.783-7.827 9.208-3.027 2.684-5.967 3.932-9.252 3.932H15.46a.365.365 0 0 0-.364.365v18.018c0 .2.163.364.364.364h7.084c5.475 0 10.4-1.877 15.055-5.737 4.05-3.359 7.268-7.633 10.38-11.767q.313-.413.622-.825zM71.275 44.36l11.85-7.172-11.839 10.28-.012-3.108m-.521-3.558h-4.231c-8.764 0-14.101 7.08-19.751 14.577l-.013.017-.647.858c-2.993 3.978-6.088 8.092-9.866 11.251-4.265 3.567-8.747 5.3-13.703 5.3h-6.72v-2.274h6.72c4.793 0 9.14-1.7 13.285-5.202 3.633-3.068 6.656-7.086 9.58-10.973q.337-.45.674-.896l.01-.012c5.784-7.673 11.249-14.921 20.43-14.921h4.224q.027-.001.053-.005l.02.002a.3.3 0 0 0 .072-.007l12.13-2.58zm-.056-11.283 12.323 4.96-12.126-2.678a.4.4 0 0 0-.108-.005l-.041-.004h-4.223c-4.981 0-9.462 1.72-13.7 5.261-3.725 3.114-6.83 7.231-9.84 11.22l-.746.991c-2.705 3.6-5.503 7.323-8.657 10.045-3.547 3.06-7.053 4.486-11.036 4.486h-6.72V61.52h6.72c8.359 0 13.515-6.865 18.974-14.132l.792-1.056c3.064-4.06 6.231-8.26 10.097-11.46 4.354-3.603 8.972-5.356 14.117-5.356h4.175zm.061 8.281-.013-.001h-4.223c-4.298 0-8.202 1.55-11.936 4.737-3.315 2.832-6.114 6.544-9.077 10.473l-.01.013-.674.897c-2.899 3.854-5.897 7.838-9.468 10.854-4.01 3.384-8.2 5.03-12.814 5.03h-6.72V67.53h6.72c9.918 0 15.843-7.88 21.574-15.5q.353-.471.707-.94l.007-.01c2.894-3.837 5.887-7.806 9.345-10.725 3.848-3.249 7.886-4.827 12.347-4.827h4.223a.4.4 0 0 0 .08-.01l12.299-.097-12.366 2.383zm-.013-5.278.02-.002 12.359 2.376-12.302-.11h-.002a.4.4 0 0 0-.08.009h-4.217c-10.327 0-16.4 8.054-22.274 15.843l-.007.009-.709.94c-5.622 7.479-11.436 15.21-20.99 15.21h-6.72v-2.273h6.72c4.11 0 7.877-1.525 11.512-4.663 3.214-2.772 6.036-6.528 8.765-10.159l.75-.997c6.002-7.957 12.207-16.185 22.952-16.185h4.223zm.44-9.952L83.23 33.646l-12.044-7.667.002-3.408zM22.543 58.519c3.474 0 6.567-1.309 9.736-4.116 2.79-2.473 5.285-5.797 7.926-9.315q.419-.558.845-1.124c6.17-8.179 13.166-17.447 25.473-17.447h4.142l12.564 7.65-12.27-5.329a.4.4 0 0 0-.079-.021.4.4 0 0 0-.133-.026h-4.223c-5.322 0-10.09 1.807-14.581 5.525-3.932 3.254-7.125 7.487-10.217 11.586q-.397.527-.79 1.052c-5.346 7.118-10.395 13.84-18.391 13.84h-6.72v-2.273h6.72zm0 17.288h-6.72v-2.274h6.72c11.478 0 18.211-8.948 24.152-16.841l.645-.859.013-.016c2.849-3.78 5.54-7.351 8.593-9.99 3.39-2.931 6.75-4.297 10.576-4.297h4.223l.018-.002q.099.014.191-.022l12.273-5.048-12.446 7.347H66.52c-7.983 0-12.851 6.46-18.489 13.942l-.017.022-.621.825c-6.074 8.068-12.959 17.213-24.853 17.213z"/></svg>