<svg xmlns="http://www.w3.org/2000/svg" width="100" height="100" fill="none" viewBox="0 0 100 100"><path fill="#0b301a" d="M83.84 52.577a.37.37 0 0 0-.412.07l-8.087 7.988-2.28-1.475-.005-.003-7.756-5.016a.365.365 0 0 0-.547.2q-.076.254-.16.503a15.04 15.04 0 0 1-4.752 6.834 15.23 15.23 0 0 1-7.376 3.256c-8.251 1.244-15.963-4.37-17.189-12.512s4.489-15.777 12.74-17.021a15.3 15.3 0 0 1 6.511.418 15.2 15.2 0 0 1 4.578 2.21 15 15 0 0 1 2.687 2.44 14.7 14.7 0 0 1 3.35 7.065.37.37 0 0 0 .16.243l3.239 2.095 5.811 3.76h.001l.04.025a.36.36 0 0 0 .452-.047l8.77-8.663a.36.36 0 0 0 .104-.319c-1.445-8.73-6.228-16.4-13.469-21.599-7.247-5.203-16.127-7.331-25.005-5.994-8.962 1.35-16.87 6.066-22.266 13.278s-7.634 16.058-6.3 24.908c1.333 8.85 6.078 16.645 13.36 21.947a33.84 33.84 0 0 0 19.997 6.517c1.721 0 3.457-.129 5.191-.39a34.3 34.3 0 0 0 11.005-3.624 34 34 0 0 0 8.854-6.78c5.134-5.48 8.315-12.567 8.957-19.953a.36.36 0 0 0-.208-.361zm-14.935-5.223c-1.53-10.161-11.148-17.166-21.44-15.615-4.985.75-9.382 3.372-12.382 7.383-3.003 4.012-4.247 8.932-3.506 13.856s3.382 9.258 7.432 12.208a18.8 18.8 0 0 0 11.121 3.625q1.439 0 2.888-.217c6.795-1.024 12.454-5.569 14.878-11.908l1.948 1.26a21.15 21.15 0 0 1-6.273 8.39 21.35 21.35 0 0 1-10.218 4.477C41.817 72.55 31.036 64.701 29.32 53.317s6.275-22.06 17.812-23.8c5.59-.841 11.167.515 15.707 3.82 4.538 3.305 7.495 8.16 8.326 13.676.191 1.27.264 2.554.22 3.827l-2.288-1.48a19 19 0 0 0-.19-2.008zm6.12 5.057c.19-1.975.136-3.974-.162-5.955-.978-6.494-4.46-12.213-9.803-16.104-5.342-3.89-11.906-5.486-18.482-4.496s-12.378 4.45-16.336 9.74c-3.96 5.294-5.601 11.784-4.623 18.278s4.46 12.214 9.803 16.103a24.83 24.83 0 0 0 14.672 4.782c1.262 0 2.536-.094 3.81-.286a25.14 25.14 0 0 0 11.766-5.065 24.9 24.9 0 0 0 7.348-9.41l1.93 1.25a27.25 27.25 0 0 1-8.053 10.063 27.5 27.5 0 0 1-12.658 5.382 28 28 0 0 1-4.16.313 27.1 27.1 0 0 1-16.02-5.22c-5.83-4.246-9.629-10.486-10.696-17.571s.724-14.168 5.044-19.942c4.322-5.776 10.657-9.553 17.838-10.636 1.39-.209 2.78-.313 4.16-.313a27.1 27.1 0 0 1 16.02 5.22c5.83 4.247 9.628 10.486 10.696 17.572.196 1.3.296 2.614.299 3.93zM72.09 51.3c.081-1.46.013-2.937-.206-4.394-.86-5.708-3.921-10.735-8.618-14.156C58.57 29.33 52.8 27.927 47.02 28.798c-11.934 1.798-20.199 12.847-18.424 24.63 1.61 10.681 10.927 18.355 21.547 18.355 1.093 0 2.202-.081 3.316-.249a22.1 22.1 0 0 0 10.567-4.63 21.87 21.87 0 0 0 6.436-8.556l1.938 1.254a24.2 24.2 0 0 1-7.181 9.236 24.4 24.4 0 0 1-11.425 4.916c-6.385.962-12.757-.587-17.944-4.363-5.184-3.775-8.562-9.323-9.511-15.623-.95-6.3.644-12.597 4.485-17.733 3.843-5.136 9.476-8.494 15.862-9.457a25 25 0 0 1 3.699-.278c5.109 0 10.062 1.597 14.243 4.642 5.185 3.775 8.563 9.322 9.512 15.623.308 2.043.348 4.106.12 6.14l-2.172-1.406m6.047-1.96a28 28 0 0 0-.296-3.332c-1.097-7.279-5-13.69-10.989-18.05-5.988-4.361-13.346-6.15-20.716-5.04-7.372 1.111-13.875 4.99-18.313 10.92-4.438 5.933-6.279 13.209-5.182 20.488 1.097 7.28 4.999 13.69 10.988 18.051a27.84 27.84 0 0 0 16.447 5.36q2.127 0 4.27-.32a28.2 28.2 0 0 0 12.995-5.525 27.95 27.95 0 0 0 8.403-10.629l3.71-3.663c-1.42 5.37-4.312 10.222-8.413 14.095-4.515 4.262-10.172 7.008-16.36 7.94-1.53.231-3.075.348-4.621.348a30.12 30.12 0 0 1-17.795-5.799c-6.477-4.716-10.697-11.648-11.882-19.518s.804-15.738 5.604-22.154S37.824 21.9 45.8 20.698a31 31 0 0 1 4.621-.348 30.12 30.12 0 0 1 17.795 5.799c6.477 4.715 10.697 11.648 11.883 19.518.077.509.14 1.027.19 1.542l-2.153 2.128zM59.528 37.433a17 17 0 0 0-.318-.22c-3.314-2.236-7.312-3.135-11.303-2.534-8.648 1.303-14.638 9.31-13.352 17.85a15.4 15.4 0 0 0 3.424 7.614q.11.131.223.261a15.9 15.9 0 0 0 14.371 5.251 15.95 15.95 0 0 0 8.165-3.782 15.76 15.76 0 0 0 4.566-6.86l1.965 1.27c-2.299 6.169-7.777 10.598-14.363 11.59-4.793.722-9.577-.442-13.47-3.276-3.892-2.833-6.427-7-7.14-11.727-.712-4.73.483-9.456 3.368-13.31 2.885-3.857 7.113-6.378 11.907-7.1q1.388-.209 2.75-.207c8.803 0 16.528 6.36 17.862 15.21.07.468.122.941.156 1.41l-2.507-1.621c-.744-3.973-2.979-7.455-6.305-9.818zm15.03 34.96a33.2 33.2 0 0 1-8.664 6.634 33.5 33.5 0 0 1-10.77 3.547c-8.772 1.322-17.527-.807-24.652-5.995-7.123-5.186-11.765-12.81-13.069-21.465-1.303-8.656.886-17.309 6.164-24.364 5.28-7.057 13.019-11.67 21.79-12.993 8.69-1.31 17.38.774 24.471 5.866 7.032 5.048 11.694 12.479 13.144 20.94l-2.02 1.994a31 31 0 0 0-.132-.998c-1.215-8.064-5.538-15.166-12.175-19.999-6.634-4.83-14.786-6.813-22.953-5.582s-15.373 5.527-20.29 12.098-6.956 14.633-5.741 22.698c1.214 8.065 5.538 15.168 12.174 19.999a30.84 30.84 0 0 0 18.222 5.94c1.568 0 3.15-.118 4.73-.357 6.337-.955 12.13-3.766 16.753-8.132 4.494-4.244 7.569-9.635 8.899-15.6l2.778-2.744c-.818 6.86-3.87 13.4-8.66 18.513z"/></svg>