<svg xmlns="http://www.w3.org/2000/svg" width="100" height="100" fill="none" viewBox="0 0 100 100"><path fill="#0b301a" d="M77.08 27.7c-3.413-3.79-8.152-5.877-13.342-5.877-5.582 0-10.078 2.468-13.738 7.537-3.658-5.07-8.156-7.537-13.737-7.537-5.191 0-9.93 2.087-13.343 5.877-3.26 3.62-5.055 8.419-5.055 13.516 0 8.254 3.973 16.398 11.807 24.204 7.724 7.704 17.093 12.898 19.78 14.305q.06.028.122.036a.36.36 0 0 0 .28.046.4.4 0 0 0 .145.007.4.4 0 0 0 .057.005q.046 0 .088-.012.045.011.089.012.102-.001.191-.058a.4.4 0 0 0 .122-.036c2.688-1.408 12.056-6.601 19.78-14.305 7.836-7.806 11.808-15.95 11.808-24.204 0-5.096-1.796-9.896-5.056-13.516zM50 30.533c.38.419 1.126 1.36 1.89 2.986 1.822 3.87 2.335 8.558 2.444 11.81.445 13.169-3.25 28.677-4.334 32.913-1.085-4.236-4.78-19.743-4.334-32.914.11-3.252.623-7.94 2.444-11.81.764-1.624 1.511-2.566 1.89-2.985m-5.063 14.771c-.43 12.715 2.964 27.57 4.209 32.536a94 94 0 0 1-5.493-10.002c-2.86-6.072-6.165-14.991-5.666-22.991.215-3.466.984-6.383 2.284-8.672 1.031-1.817 2.4-3.244 4.067-4.243a11.3 11.3 0 0 1 4.823-1.546c-1.241 1.523-3.916 5.832-4.223 14.918zm10.127 0c-.308-9.086-2.983-13.395-4.223-14.918a11.34 11.34 0 0 1 4.823 1.546c1.666 1 3.035 2.426 4.066 4.243 1.3 2.289 2.068 5.206 2.285 8.672.498 7.999-2.806 16.917-5.667 22.991a94 94 0 0 1-5.493 10.002c1.245-4.966 4.64-19.821 4.21-32.536zM49.056 29.66a12 12 0 0 0-5.06 1.629c-1.784 1.06-3.246 2.576-4.346 4.504-1.362 2.39-2.167 5.42-2.39 9.01C36.75 52.959 40.1 62.007 43 68.16a95 95 0 0 0 5.025 9.26c-1.6-1.562-3.757-4.055-6.188-7.185-3.232-4.157-6.254-8.544-7.186-10.432-2.186-4.427-3.342-9.163-3.342-13.697 0-2.676.486-5.424 1.405-7.947 1.031-2.83 2.335-4.934 3.877-6.253 1.796-1.535 4.098-2.574 6.482-2.924 1.334-.196 2.636-.123 3.736-.027q1.418.127 2.249.704zm2.92 47.762a95 95 0 0 0 5.025-9.26c2.9-6.155 6.25-15.202 5.74-23.359-.223-3.59-1.027-6.62-2.39-9.01-1.1-1.928-2.562-3.444-4.346-4.504a12 12 0 0 0-5.06-1.629q.83-.578 2.249-.704c1.098-.097 2.401-.169 3.735.027 2.385.35 4.687 1.389 6.483 2.924 1.541 1.319 2.845 3.423 3.877 6.253a23.5 23.5 0 0 1 1.404 7.947c0 4.533-1.155 9.27-3.342 13.697-.932 1.888-3.954 6.275-7.185 10.432-2.432 3.13-4.588 5.623-6.189 7.186m-4.003-49.014a7 7 0 0 0-1.102-.179c-1.074-.095-2.489-.176-3.905.031-2.519.37-4.952 1.468-6.85 3.092-1.639 1.401-3.014 3.607-4.089 6.558a24.2 24.2 0 0 0-1.449 8.197c0 4.645 1.181 9.493 3.417 14.02 1.477 2.992 7.606 11.448 12.048 16.282-3.425-2.752-7.422-6.719-10.83-10.103l-1.01-1.002c-5.276-5.22-9.253-14.492-9.253-21.564 0-3.991 1.459-8.414 3.902-11.832 2.728-3.816 6.337-5.917 10.16-5.917 2.755 0 4.709.273 6.335.886a8.8 8.8 0 0 1 2.626 1.532m18.031 31.719c2.236-4.527 3.417-9.375 3.417-14.02 0-2.76-.501-5.595-1.449-8.197-1.074-2.95-2.45-5.156-4.088-6.558-1.9-1.624-4.332-2.722-6.85-3.092-1.417-.208-2.832-.126-3.906-.03a7 7 0 0 0-1.102.178 8.8 8.8 0 0 1 2.626-1.532c1.626-.613 3.58-.887 6.335-.887 3.824 0 7.433 2.103 10.16 5.918 2.443 3.418 3.902 7.84 3.902 11.831 0 7.073-3.977 16.344-9.252 21.566l-1.01 1.002c-3.409 3.384-7.406 7.351-10.83 10.103 4.441-4.835 10.57-13.29 12.047-16.282m-47.41-18.91c0-4.916 1.73-9.542 4.869-13.027 3.274-3.635 7.82-5.637 12.8-5.637 4.043 0 7.496 1.364 10.461 4.147-2.165-1.137-4.736-1.439-7.71-1.439-4.067 0-7.886 2.21-10.755 6.223-2.528 3.537-4.037 8.118-4.037 12.256 0 3.6.987 7.844 2.78 11.95 1.743 3.99 4.118 7.588 6.688 10.133q.498.492 1.01 1.002c3.118 3.097 6.49 6.445 9.553 9.056-4.024-2.52-9.355-6.277-14.066-10.976-7.693-7.664-11.593-15.634-11.593-23.687zm51.22 23.687C65.102 69.602 59.77 73.36 55.747 75.88c3.063-2.612 6.435-5.96 9.554-9.056l1.01-1.001c2.57-2.544 4.945-6.143 6.688-10.134 1.793-4.105 2.78-8.349 2.78-11.95 0-4.136-1.509-8.717-4.037-12.255-2.869-4.013-6.688-6.223-10.754-6.223-2.974 0-5.545.302-7.71 1.439 2.964-2.782 6.417-4.147 10.46-4.147 4.98 0 9.527 2.002 12.8 5.637 3.14 3.485 4.87 8.111 4.87 13.027 0 8.053-3.9 16.023-11.593 23.687z"/></svg>