<svg xmlns="http://www.w3.org/2000/svg" width="100" height="100" fill="none" viewBox="0 0 100 100"><path fill="#0b301a" d="M89.74 69.416c0-6.704-1.224-12.7-3.445-16.885-1.395-2.627-3.345-4.9-5.216-6.08-.46-.29-.945-.523-1.413-.748-1.313-.63-2.554-1.225-3.453-3.056-.582-1.186-1.016-2.677-1.436-4.119-.383-1.317-.78-2.678-1.298-3.854-1.169-2.652-2.617-4.838-4.305-6.496-2.669-2.62-5.886-4.2-9.302-4.567a8 8 0 0 0-.893-.05c-4.375 0-10.79 3.61-13 8.788a.38.38 0 0 1-.247.211c-.09.026-.156.013-.179-.003-1.124-.769-3.242-1.229-4.64-1.229-2.475 0-5.603 1.544-8.166 4.03-2.889 2.8-4.7 6.339-5.1 9.965a.95.95 0 0 1-.234.494.08.08 0 0 1-.058.025c-1.996.013-3.94.599-5.781 1.74-1.833 1.135-3.475 2.766-4.88 4.848-2.954 4.377-4.583 10.413-4.583 16.993a.365.365 0 0 0 .366.364l76.898-.011a.364.364 0 0 0 .363-.354c.006-.196 0 0 0-.001v-.01zm-62.311-2.82c-3.948 0-7.673.245-10.488.688-1.012.16-2.186.378-3.123.706-.086.03-.15-.082-.082-.141 2.053-1.75 7.416-3 13.693-3 .007 0 .719-.017.905-.376.124-.239.83-1.078 4.74-1.886 2.476-.511 5.48-.828 7.84-.828 1.33 0 3.333.092 4.382.244.31.045.908.024 1.182-.112 2.048-1.022 8.29-1.786 12.502-1.786.27 0 .555.003.846.01 3.311.076 6.43.402 9.019.943 1.626.34 3.02.788 4.142 1.33.479.232.841.497 1.225.778.441.321.896.655 1.53.929 1.006.436 2.39.578 3.729.714.456.047.928.095 1.364.153 1.792.241 3.662.706 5.001 1.242 1.101.442 1.936.976 2.472 1.572.06.066-.01.166-.093.132q-.85-.351-2.171-.615c-1.382-.276-3.301-.515-5.136-.638-.446-.03-.922-.054-1.382-.077-1.297-.066-2.638-.134-3.564-.334a10 10 0 0 1-1.411-.43c-.39-.142-.793-.29-1.32-.417-1.167-.281-2.604-.512-4.276-.686-2.62-.272-5.774-.437-9.119-.476a77 77 0 0 0-.858-.005c-4.282 0-10.573.378-12.753.921-.114.028-.582.049-.852.03-1.074-.079-3.112-.126-4.46-.126-3.944 0-11.76.512-13.08 1.49a.1.1 0 0 1-.03.014 2 2 0 0 1-.375.038zm0-2.476c-5.27 0-10.775.937-13.526 2.714-.077.05-.166-.044-.11-.118.729-.993 1.866-1.893 3.368-2.646 2.75-1.378 6.396-2.138 10.27-2.138.307 0 .815-.191.927-.537.755-2.316 7.65-4.376 12.556-4.376 1.294 0 3.326.147 4.352.385.334.077.98.04 1.276-.194 2.035-1.614 8.244-2.82 12.438-2.82q.405 0 .842.015c3.3.12 6.406.636 8.983 1.493 1.617.537 3.003 1.245 4.12 2.104.478.368.843.79 1.227 1.239.44.51.894 1.04 1.53 1.477 1.022.704 2.418.93 3.769 1.15.476.078.925.15 1.358.243 1.78.38 3.637 1.114 4.968 1.963 1.056.673 1.87 1.494 2.419 2.413.046.079-.046.165-.119.11-.535-.398-1.195-.756-1.969-1.068-1.392-.558-3.327-1.04-5.175-1.287a43 43 0 0 0-1.387-.157c-1.284-.13-2.61-.266-3.514-.658-.56-.243-.962-.538-1.39-.849-.393-.287-.8-.584-1.338-.845-1.176-.569-2.627-1.035-4.311-1.387-2.632-.55-5.796-.881-9.152-.959-.296-.006-.587-.01-.863-.01-3.718 0-10.424.664-12.825 1.861-.095.042-.51.08-.753.045-1.082-.157-3.131-.252-4.488-.252-3.987 0-11.904 1.032-13.168 3.008a.1.1 0 0 1-.04.032 1 1 0 0 1-.276.05zm-13.35 1.177c-.069.065-.175-.018-.128-.101.74-1.33 1.837-2.534 3.257-3.544 2.738-1.949 6.367-3.023 10.221-3.023.36 0 .848-.3.937-.688.359-1.568 2.105-3.185 4.79-4.436 2.452-1.144 5.424-1.854 7.757-1.854 1.286 0 3.304.207 4.321.542.358.116 1.045.066 1.353-.28 1.674-1.887 7.33-3.996 12.392-3.996.267 0 .548.007.835.021 3.287.17 6.382.9 8.95 2.112 1.612.761 2.996 1.766 4.113 2.985.484.529.85 1.134 1.239 1.774.436.72.886 1.465 1.516 2.08 1.028 1.007 2.435 1.332 3.795 1.645.474.11.922.213 1.352.344 1.77.536 3.62 1.575 4.949 2.778a9.7 9.7 0 0 1 2.293 3.123c.04.085-.072.158-.136.09a8.9 8.9 0 0 0-1.716-1.41c-1.401-.895-3.348-1.664-5.209-2.061-.45-.096-.93-.174-1.393-.25-1.271-.206-2.586-.42-3.473-1.031-.558-.385-.962-.855-1.39-1.352-.392-.457-.798-.928-1.335-1.341-1.183-.908-2.641-1.654-4.335-2.218-2.643-.878-5.819-1.407-9.187-1.529-.298-.01-.59-.017-.868-.017-3.731 0-10.463 1.06-12.881 2.971l-.012.008c-.096.054-.454.1-.657.054-1.09-.253-3.153-.404-4.517-.404-4.6 0-12.156 1.91-13.221 4.8a.1.1 0 0 1-.038.044.6.6 0 0 1-.225.069c-3.984 0-7.748.787-10.596 2.215-1.102.553-2.025 1.185-2.753 1.879m72.139-4.181c-1.405-1.272-3.359-2.37-5.228-2.936a22 22 0 0 0-1.4-.356c-1.261-.292-2.566-.593-3.449-1.455-.563-.551-.97-1.224-1.402-1.938-.39-.642-.791-1.307-1.325-1.888-1.18-1.29-2.641-2.35-4.34-3.152-2.652-1.252-5.842-2.007-9.223-2.18a17 17 0 0 0-.873-.024c-2.093 0-4.754.425-7.12 1.137-2.69.81-4.753 1.91-5.81 3.097l-.01.01c-.084.066-.407.125-.577.069-1.1-.363-3.177-.578-4.548-.578-2.432 0-5.522.736-8.065 1.922-2.914 1.358-4.752 3.097-5.185 4.9a.1.1 0 0 1-.014.03c-.048.055-.166.125-.22.126-4.004 0-7.784 1.122-10.644 3.158a12.4 12.4 0 0 0-2.437 2.262c-.062.076-.18 0-.139-.088a13.8 13.8 0 0 1 3.037-4.157c2.73-2.558 6.347-3.968 10.183-3.968.401 0 .868-.413.94-.835.374-2.136 2.086-4.237 4.822-5.916 2.444-1.499 5.403-2.43 7.721-2.43 1.279 0 3.282.27 4.291.707.419.18 1.127.062 1.413-.362.974-1.442 2.92-2.795 5.482-3.809 2.294-.907 4.865-1.45 6.881-1.45q.4 0 .83.03c3.275.221 6.359 1.179 8.918 2.77a14 14 0 0 1 4.12 3.935c.49.703.876 1.542 1.25 2.353.433.94.88 1.912 1.503 2.713 1.026 1.321 2.438 1.75 3.804 2.165.473.144.919.28 1.347.45 1.767.704 3.614 2.07 4.944 3.654.848 1.01 1.544 2.198 2.077 3.519.036.09-.086.158-.143.08a10.3 10.3 0 0 0-1.41-1.565zm.034-2.502c-1.403-1.672-3.36-3.116-5.232-3.863-.458-.182-.94-.33-1.406-.47-1.314-.399-2.555-.776-3.44-1.913-.57-.735-.98-1.627-1.416-2.572-.386-.84-.786-1.71-1.313-2.466a14.8 14.8 0 0 0-4.334-4.138c-2.66-1.653-5.86-2.648-9.253-2.877-.302-.021-.598-.032-.879-.032-4.353 0-10.749 2.292-12.967 5.58-.06.088-.376.162-.52.1-1.109-.48-3.198-.766-4.579-.766-2.445 0-5.55.972-8.102 2.537-2.917 1.79-4.75 4.067-5.159 6.412-.012.068-.14.198-.217.227a.1.1 0 0 1-.026.004c-4.014.005-7.8 1.483-10.66 4.165-.866.81-1.63 1.724-2.274 2.72-.054.085-.182.02-.146-.075.731-1.879 1.72-3.586 2.949-5.05 2.728-3.256 6.333-5.048 10.153-5.048.447 0 .881-.544.943-.995.378-2.76 2.102-5.463 4.854-7.613 2.436-1.903 5.382-3.085 7.688-3.085 1.268 0 3.257.341 4.259.893.224.123.53.145.819.058.29-.088.52-.266.644-.502.979-1.847 2.928-3.576 5.491-4.868 2.285-1.152 4.847-1.84 6.851-1.84q.396 0 .823.037a16.6 16.6 0 0 1 8.89 3.519c1.617 1.279 3.008 2.971 4.134 5.03.495.905.883 1.979 1.258 3.018.43 1.19.875 2.421 1.49 3.43 1.02 1.673 2.434 2.22 3.802 2.748.472.182.917.354 1.343.57 1.765.897 3.615 2.64 4.949 4.663.794 1.207 1.458 2.61 1.979 4.166.031.094-.1.154-.15.067a13 13 0 0 0-1.246-1.774zm-69.199 9.39c2.78-.437 6.465-.678 10.376-.678.106 0 .645-.01.834-.192.238-.229 1.632-.611 4.775-.934a83 83 0 0 1 7.875-.415c1.337 0 3.352.046 4.409.123.273.02.843.01 1.081-.049 2.128-.53 8.337-.899 12.577-.899q.425 0 .85.006c3.323.037 6.453.2 9.052.471 1.64.171 3.046.396 4.18.67.488.118.853.251 1.241.393.435.16.886.323 1.507.457.984.213 2.355.283 3.68.35.458.023.932.048 1.371.077 1.804.121 3.69.355 5.04.625 1.376.275 2.22.598 2.675.89.069.046.036.153-.046.153l-74.998.01c-.088 0-.116-.12-.035-.157.562-.264 1.61-.594 3.557-.9zm.246-15.162c2.728-4.042 6.326-6.268 10.13-6.268.498 0 .892-.692.944-1.168.381-3.458 2.115-6.84 4.882-9.523 2.432-2.358 5.367-3.824 7.658-3.824 1.26 0 3.235.421 4.23 1.102a.94.94 0 0 0 .794.101c.324-.094.584-.322.713-.625.984-2.307 2.94-4.462 5.507-6.068 2.278-1.425 4.83-2.276 6.822-2.276q.391 0 .816.046c3.25.347 6.317 1.856 8.868 4.36 1.622 1.594 3.018 3.703 4.15 6.27.498 1.132.888 2.47 1.265 3.764.428 1.472.872 2.995 1.482 4.237 1.01 2.057 2.424 2.735 3.792 3.391.47.226.914.439 1.34.708 1.768 1.114 3.623 3.284 4.96 5.805.735 1.384 1.358 2.976 1.86 4.732.028.097-.11.15-.154.06a17 17 0 0 0-1.08-1.913c-1.4-2.124-3.353-3.96-5.227-4.911-.46-.234-.943-.42-1.41-.601-1.313-.508-2.552-.987-3.442-2.447-.577-.947-1.01-2.143-1.428-3.3-.385-1.065-.783-2.166-1.305-3.12-1.172-2.145-2.627-3.913-4.32-5.252a17.3 17.3 0 0 0-9.28-3.673c-.305-.026-.603-.04-.886-.04-4.365 0-10.772 2.914-12.986 7.095-.032.06-.113.116-.21.145-.124.036-.225.02-.26.002-1.116-.616-3.22-.984-4.61-.984-2.459 0-5.577 1.241-8.136 3.24-2.903 2.268-4.724 5.14-5.127 8.088a.63.63 0 0 1-.224.352.1.1 0 0 1-.042.011c-4.022.015-7.808 1.898-10.665 5.31-.798.952-1.5 2.002-2.1 3.13-.047.09-.184.033-.151-.064.72-2.183 1.67-4.17 2.832-5.892z"/></svg>