<svg xmlns="http://www.w3.org/2000/svg" width="100" height="100" fill="none" viewBox="0 0 100 100"><path fill="#0b301a" d="M73.419 46.902c-2.242-3.976-5.717-7.024-10.33-9.057-2.811-1.24-6.056-2.08-9.56-2.493 2.593-.501 6.14-1.637 8.534-4.207 1.923-2.065 3.08-5.056 3.347-8.65.2-2.698-.161-4.76-.177-4.846v-.003q-.001-.007-.004-.016l-.007-.026-.002-.01-.002-.004v-.003l-.002-.004v-.005l-.008-.014-.011-.023-.005-.01q0-.003-.003-.005 0-.002-.002-.003v-.002l-.003-.003-.012-.017q-.004-.007-.009-.014l-.005-.005-.005-.007-.004-.004-.002-.003-.003-.003-.003-.003-.016-.014-.018-.017-.005-.005-.004-.003-.004-.003q-.001-.001-.005-.002l-.004-.003q-.006-.005-.013-.008h-.003l-.022-.014q-.005-.002-.01-.006l-.006-.002h-.003l-.003-.003h-.003q-.01-.005-.019-.007l-.02-.007q-.006 0-.01-.003h-.002l-.005-.002h-.01l-.02-.004-.022-.003h-.024c-.135-.006-2.318-.076-5.088.448-2.6.492-6.21 1.624-8.635 4.227-1.922 2.065-3.08 5.057-3.346 8.65-.148 1.987.009 3.626.109 4.389-5.28.053-10.182 1.01-14.2 2.782-4.612 2.033-8.088 5.08-10.33 9.057-2.156 3.828-2.821 8.442-1.92 13.343.78 4.236 2.746 8.69 5.537 12.542 2.233 3.081 5.243 5.673 8.705 7.495 3.53 1.857 7.661 2.77 12.63 2.791h.043q.009 0 .017-.002l.018.002h.042c4.97-.02 9.1-.934 12.631-2.791 3.461-1.822 6.472-4.414 8.705-7.495 2.79-3.851 4.757-8.305 5.537-12.542.9-4.901.237-9.515-1.921-13.343zM48.405 82.316c-.099-.121-.36-.597-.63-2.412-.265-1.785-.495-4.328-.666-7.353-.38-6.731-.654-16.953-.28-25.454.42-9.557 1.294-11.046 1.533-11.276q.03 0 .088.002c.242.237 1.111 1.747 1.531 11.274.374 8.502.1 18.724-.28 25.454-.171 3.025-.401 5.568-.666 7.353-.268 1.815-.53 2.29-.63 2.412m-1.506-44.2c-.358 2.016-.625 5.028-.798 8.95-.375 8.529-.101 18.779.28 25.528.172 3.047.405 5.611.673 7.419.149 1.002.303 1.718.487 2.206-.987-.288-1.833-1.08-2.614-2.442-1.013-1.764-1.896-4.282-2.553-7.282-1.469-6.707-2.525-16.888-1.084-25.352.657-3.855 1.67-6.8 3.012-8.758.944-1.376 2.011-2.209 3.182-2.49-.22.498-.41 1.227-.586 2.22m2.37 44.102c.184-.488.34-1.205.487-2.207.268-1.806.5-4.371.673-7.418.381-6.75.655-17 .28-25.528-.173-3.922-.44-6.934-.798-8.95-.176-.994-.366-1.723-.586-2.22 1.17.28 2.238 1.113 3.182 2.49 1.342 1.957 2.355 4.903 3.012 8.757 1.441 8.464.386 18.645-1.084 25.352-.657 3-1.54 5.519-2.553 7.282-.781 1.36-1.627 2.154-2.614 2.442m8.234-54.865a101 101 0 0 0 6.351-7.561c-.876 2.109-2.673 5.485-5.34 8.349-2.655 2.85-6.095 5.141-8.202 6.234 1.702-1.492 4.572-4.212 7.191-7.022m-8.336 7.022c1.344-1.758 4.673-5.472 7.085-8.061 2.425-2.605 5.715-5.663 7.394-7.147-1.345 1.759-4.266 5.1-6.677 7.69-2.427 2.603-6.125 6.034-7.803 7.518m6.552-8.558c-2.662 2.857-5.208 5.837-6.553 7.62.877-2.109 2.874-5.544 5.542-8.408 2.654-2.85 6.312-4.978 8.417-6.07-1.702 1.491-4.789 4.046-7.406 6.858M40.573 47.02c-1.46 8.567-.394 18.857 1.09 25.63.672 3.072 1.583 5.661 2.633 7.49q.64 1.113 1.378 1.8c-1.313-.413-2.477-1.148-3.56-2.238-1.746-1.76-3.268-4.27-4.4-7.258-2.532-6.685-4.353-16.83-1.87-25.26 1.13-3.836 2.878-6.773 5.194-8.727 1.293-1.09 2.727-1.849 4.286-2.272-1.788 1.41-3.665 4.464-4.75 10.835zm11.942 33.12c1.05-1.829 1.96-4.418 2.634-7.49 1.483-6.773 2.549-17.063 1.09-25.63-1.086-6.371-2.963-9.424-4.75-10.835 1.559.423 2.993 1.182 4.285 2.272 2.315 1.954 4.063 4.89 5.194 8.727 2.482 8.43.662 18.575-1.87 25.26-1.13 2.988-2.652 5.498-4.4 7.258-1.083 1.09-2.247 1.826-3.56 2.239.494-.459.951-1.058 1.379-1.801zm6.532-51.502c2.5-2.685 4.178-5.987 5.12-8.117-.514 2.412-1.73 6.138-4.22 8.812-2.47 2.652-6.335 4.247-8.801 5.042 2.115-1.167 5.471-3.13 7.9-5.738m-4.873-4.106c-2.5 2.685-4.483 6.671-5.424 8.801.513-2.412 2.033-6.823 4.524-9.497 2.47-2.652 6.552-4.395 9.017-5.19-2.115 1.166-5.687 3.278-8.117 5.886M40.566 37.9c-2.427 2.048-4.252 5.102-5.422 9.078-2.534 8.602-.687 18.928 1.886 25.723 1.168 3.083 2.747 5.681 4.566 7.514a10.2 10.2 0 0 0 1.899 1.518 14.8 14.8 0 0 1-4.578-2.077c-2.594-1.764-4.852-4.276-6.526-7.262-2.114-3.77-3.604-8.126-4.192-12.267-.676-4.749-.183-9.21 1.427-12.9 1.672-3.832 4.265-6.77 7.706-8.731 1.64-.936 3.482-1.635 5.46-2.09-.796.414-1.542.915-2.227 1.494zm14.648 42.316c1.82-1.833 3.398-4.43 4.566-7.514 2.573-6.795 4.42-17.12 1.886-25.723-1.17-3.976-2.995-7.03-5.422-9.078a12 12 0 0 0-2.227-1.494c1.978.456 3.818 1.155 5.46 2.09 3.443 1.961 6.035 4.899 7.706 8.731 1.61 3.69 2.103 8.152 1.427 12.9-.59 4.14-2.078 8.497-4.191 12.267-1.675 2.986-3.932 5.498-6.526 7.262a14.8 14.8 0 0 1-4.579 2.077q1.003-.614 1.9-1.518m6.314-49.568c-2.435 2.615-6.36 3.699-9.236 4.144 2.47-.855 5.771-2.366 8.19-4.962 2.492-2.677 3.745-6.331 4.31-8.788-.078 2.764-.773 6.933-3.264 9.606m-9.835-8.126c2.435-2.616 6.784-3.848 9.661-4.293-2.47.854-6.196 2.515-8.614 5.11-2.49 2.675-3.737 6.392-4.303 8.849.078-2.766.77-6.998 3.256-9.666m-15.64 57.113c-3.364-1.77-6.286-4.286-8.454-7.277-2.73-3.764-4.65-8.113-5.41-12.246-.87-4.73-.235-9.175 1.838-12.852 2.162-3.836 5.523-6.779 9.988-8.747a29.6 29.6 0 0 1 5.059-1.68q-1.095.459-2.101 1.03c-3.583 2.04-6.278 5.093-8.015 9.072-1.663 3.815-2.176 8.413-1.481 13.295.602 4.228 2.12 8.674 4.278 12.521 1.73 3.085 4.065 5.681 6.752 7.51q.878.595 1.82 1.062a21.6 21.6 0 0 1-4.274-1.686zm38.569-19.523c-.76 4.133-2.682 8.482-5.41 12.246-2.168 2.99-5.092 5.508-8.455 7.277a21.7 21.7 0 0 1-4.275 1.687q.945-.468 1.821-1.063c2.686-1.827 5.022-4.424 6.752-7.509 2.157-3.846 3.676-8.293 4.278-12.52.695-4.883.183-9.481-1.481-13.296-1.736-3.98-4.432-7.032-8.015-9.072a20 20 0 0 0-2.1-1.03c1.802.431 3.5.993 5.058 1.68 4.465 1.968 7.826 4.91 9.988 8.747 2.073 3.677 2.709 8.122 1.839 12.853"/></svg>