<svg xmlns="http://www.w3.org/2000/svg" width="100" height="100" fill="none" viewBox="0 0 100 100"><path fill="#0b301a" d="M80.098 38.76c-3.002-8.04-8.955-14.428-16.762-17.99S46.8 16.9 38.762 19.902c-8.04 3.002-14.429 8.955-17.991 16.763-3.562 7.807-3.87 16.534-.868 24.574s8.955 14.428 16.763 17.99a32 32 0 0 0 13.32 2.916c3.792 0 7.595-.68 11.255-2.047 8.04-3.002 14.428-8.955 17.99-16.763 3.562-7.807 3.87-16.534.868-24.574zM35.921 77.854c-2.025-1.89-2.923-6.25-2.478-12.306.486-6.627 2.495-14.347 5.37-20.651 2.877-6.304 7.391-12.88 12.077-17.592C55.172 23 59.053 20.82 61.808 21.11c-.516.35-1.115.916-1.811 1.71-1.272 1.45-2.807 3.592-4.566 6.363-3.398 5.359-7.158 12.351-10.057 18.708-2.899 6.355-5.717 13.779-7.536 19.857-.942 3.144-1.552 5.707-1.814 7.619-.144 1.045-.18 1.868-.104 2.488m23.584-57.26c-2.617.683-5.737 2.782-9.132 6.197-4.744 4.77-9.314 11.425-12.223 17.803s-4.942 14.191-5.434 20.9c-.353 4.803.106 8.535 1.306 10.96q-1.38-1.43-2.402-3.522c-1.225-2.51-2.028-5.737-2.322-9.331-.58-7.099.785-15.09 3.654-21.378s8.009-12.557 13.75-16.772c2.907-2.134 5.87-3.643 8.569-4.363q2.25-.599 4.233-.493zm-4.42-.21c-2.827.753-5.791 2.26-8.813 4.479-5.838 4.285-11.065 10.661-13.982 17.057-2.918 6.396-4.308 14.523-3.718 21.74.305 3.737 1.11 6.964 2.394 9.592q.496 1.016 1.077 1.886a20.8 20.8 0 0 1-2.68-3.267c-1.879-2.814-3.306-6.33-4.129-10.168-1.621-7.565-.88-15.826 1.98-22.098 2.862-6.273 8.616-12.246 15.392-15.98 3.439-1.895 7.03-3.12 10.386-3.546a21 21 0 0 1 4.224-.117 16 16 0 0 0-2.13.422zm8.994 1.762c2.025 1.89 2.923 6.25 2.478 12.306-.486 6.627-2.494 14.347-5.37 20.651s-7.391 12.88-12.076 17.592C44.828 77 40.946 79.18 38.19 78.89c.518-.35 1.116-.916 1.812-1.71 1.272-1.45 2.807-3.592 4.566-6.363 3.398-5.359 7.158-12.351 10.057-18.708 2.9-6.355 5.717-13.779 7.537-19.857.941-3.144 1.55-5.707 1.813-7.619.144-1.046.18-1.868.104-2.488m-23.581 57.26c2.617-.684 5.735-2.784 9.13-6.197 4.743-4.77 9.313-11.425 12.222-17.803 2.91-6.378 4.942-14.191 5.434-20.9.354-4.803-.106-8.535-1.306-10.96q1.38 1.43 2.402 3.522c1.225 2.51 2.028 5.737 2.322 9.331.58 7.099-.785 15.09-3.654 21.378S59.04 70.334 53.298 74.55c-2.907 2.134-5.87 3.643-8.569 4.362-1.497.4-2.91.564-4.23.494zm4.418.21c2.826-.754 5.79-2.26 8.812-4.478 5.838-4.286 11.065-10.662 13.982-17.058 2.918-6.396 4.308-14.523 3.718-21.74-.305-3.737-1.11-6.964-2.394-9.592a16 16 0 0 0-1.077-1.886 20.7 20.7 0 0 1 2.68 3.268c1.879 2.814 3.306 6.33 4.129 10.168 1.622 7.564.88 15.826-1.98 22.098-2.862 6.273-8.616 12.247-15.392 15.98-3.439 1.895-7.03 3.12-10.386 3.546a21 21 0 0 1-4.223.118 16 16 0 0 0 2.13-.423m16.548-47.572c-1.81 6.049-4.615 13.436-7.501 19.763s-6.629 13.288-10.01 18.619c-4.108 6.476-6.178 8.164-6.861 8.164a.3.3 0 0 1-.124-.024c-.525-.24-.786-2.744 1.568-10.61 1.81-6.049 4.615-13.436 7.502-19.763s6.628-13.288 10.009-18.619c4.398-6.933 6.458-8.38 6.984-8.14s.786 2.744-1.568 10.61m-40.878 28.94c-2.935-7.857-2.633-16.386.848-24.016 3.482-7.63 9.725-13.448 17.583-16.383 5.524-2.062 11.379-2.524 17.02-1.408a22 22 0 0 0-3.138.177c-3.495.444-7.077 1.665-10.645 3.631-6.908 3.807-12.779 9.907-15.703 16.316-2.924 6.41-3.683 14.842-2.03 22.554.854 3.983 2.28 7.49 4.235 10.42a22 22 0 0 0 1.923 2.486c-4.54-3.529-8.03-8.254-10.092-13.778zm57.98 2.048c-3.482 7.63-9.725 13.448-17.583 16.383a31.4 31.4 0 0 1-10.999 2c-2.015 0-4.028-.198-6.014-.591q.154.003.31.004 1.381 0 2.822-.182c3.446-.438 7.127-1.693 10.645-3.631 6.908-3.807 12.78-9.906 15.703-16.316s3.683-14.842 2.03-22.554c-.854-3.984-2.279-7.49-4.235-10.42a22 22 0 0 0-1.923-2.487c4.54 3.53 8.03 8.255 10.093 13.779 2.934 7.857 2.632 16.386-.85 24.016"/></svg>