<svg xmlns="http://www.w3.org/2000/svg" width="100" height="100" fill="none" viewBox="0 0 100 100"><path fill="#0b301a" d="M81.403 36.705c-.903-2.623-2.57-4.923-4.822-6.65-2.348-1.803-5.246-2.892-8.395-3.16-1.471-3.63-4.041-6.625-7.445-8.673-3.088-1.858-6.712-2.876-10.509-2.956v-.007h-.002l-.23.002-.23-.002h-.002v.007c-3.797.08-7.421 1.098-10.508 2.956-3.405 2.048-5.974 5.044-7.445 8.673-3.15.267-6.048 1.356-8.396 3.16-2.251 1.727-3.919 4.027-4.822 6.65-.828 2.405-.956 4.947-.372 7.351.61 2.502 1.994 4.808 4.008 6.677-.61 3.702-.004 6.713 1.805 8.951 3.433 4.251 10.594 5.001 15.682 5.196a.76.76 0 0 1 .566.27c.11.134.156.298.129.46l-.002.016-2.177 17.663a.364.364 0 0 0 .361.41H61.4a.364.364 0 0 0 .361-.41l-2.177-17.663s0-.01-.002-.016a.57.57 0 0 1 .129-.46.76.76 0 0 1 .567-.27c5.088-.195 12.25-.945 15.682-5.196 1.809-2.238 2.415-5.25 1.805-8.95 2.015-1.872 3.399-4.176 4.008-6.678.585-2.404.456-4.947-.372-7.35zM70.76 50.14c.584 3.44-.114 6.41-2.076 8.828-2.195 2.705-5.868 4.483-9.947 4.847a10.3 10.3 0 0 0 3.728-2.81c2.85-3.398 3.055-7.734 2.707-10.826 3.219-4.422 2.888-12.232.69-17.288-1.432-3.29-3.527-5.287-5.92-5.655-1.103-3.987-3.35-8.103-6.09-10.32 1.369.604 2.728 1.491 4.016 2.634 2.42 2.15 4.464 5.12 5.607 8.145a.37.37 0 0 0 .315.234c2.149.16 4.174 1.06 5.858 2.604 1.563 1.434 2.807 3.378 3.599 5.623.846 2.401 1.114 5.027.752 7.396-.389 2.545-1.47 4.71-3.127 6.26a.36.36 0 0 0-.11.327zm-14.04 15.27 1.647 17.56H56.44L55.278 65.34v-.017c-.037-.319.132-.676.233-.725a9 9 0 0 0 1.48-.208c-.216.304-.32.684-.27 1.02zm-5.315-.055c-.008-.311.02-.656.051-.832 1.645-.78 2.622-6.59 2.394-14.417.558-3.033.74-8.31.465-13.463-.133-2.463-.356-4.616-.645-6.226-.373-2.074-.769-2.784-1.105-3.06-.209-3.07-.558-5.96-.987-8.15-.252-1.284-.495-2.157-.726-2.749 1.72 1.416 3.513 5.886 4.331 11.165a.37.37 0 0 0 .296.303c.675.122 1.346.777 1.94 1.894 1.138 2.138 1.931 5.812 2.12 9.828.195 4.174-.287 7.923-1.326 10.284a.4.4 0 0 0-.03.172c.362 5.2-.538 8.433-1.357 10.23-.962 2.113-2.331 3.402-3.754 3.539-.627.06-.68 1.211-.66 1.506l.678 17.59h-1.396l-.288-17.614m-5.253-15.248c-.227 7.828.75 13.638 2.394 14.417.03.176.06.52.05.836l-.287 17.61h-1.395l.677-17.58c.02-.305-.033-1.456-.66-1.516-1.423-.136-2.791-1.426-3.754-3.539-.819-1.797-1.72-5.03-1.356-10.23a.36.36 0 0 0-.03-.172c-1.039-2.361-1.522-6.11-1.326-10.284.188-4.015.98-7.689 2.118-9.828.595-1.118 1.266-1.772 1.941-1.894a.36.36 0 0 0 .296-.303c.82-5.278 2.612-9.748 4.331-11.165-.232.592-.475 1.465-.726 2.75-.43 2.191-.78 5.079-.986 8.15-.337.274-.733.985-1.106 3.059-.29 1.61-.512 3.763-.644 6.226-.277 5.153-.094 10.43.464 13.463M43.01 64.39q.733.165 1.482.208c.1.049.269.406.233.725l-.001.017-1.163 17.628h-1.925l1.646-17.56c.05-.334-.054-.715-.27-1.02zM29.13 49.812c-1.657-1.55-2.738-3.715-3.127-6.26-.361-2.369-.093-4.995.752-7.396.792-2.245 2.036-4.19 3.6-5.623 1.684-1.544 3.709-2.444 5.858-2.604a.37.37 0 0 0 .314-.234c1.143-3.026 3.187-5.995 5.608-8.145 1.286-1.143 2.646-2.03 4.015-2.633-2.74 2.216-4.985 6.332-6.09 10.32-2.393.367-4.488 2.364-5.92 5.654-2.198 5.056-2.529 12.866.69 17.288-.624 5.53 1.124 8.938 2.708 10.826a10.3 10.3 0 0 0 3.727 2.81c-4.08-.364-7.752-2.142-9.947-4.847-1.962-2.418-2.66-5.388-2.076-8.828a.36.36 0 0 0-.11-.328zM45.45 65.397c.045-.422-.099-.923-.352-1.223-.199-.235-.413-.295-.557-.303-2.433-.137-4.782-1.352-6.444-3.335-2.727-3.25-2.88-7.458-2.526-10.415a.36.36 0 0 0-.071-.263c-1.408-1.871-2.23-4.676-2.314-7.895-.078-3.03.514-6.232 1.623-8.782 1.371-3.152 3.352-5.017 5.578-5.253a.37.37 0 0 0 .314-.269c.806-3.033 2.246-6.005 3.949-8.156 1.08-1.362 2.227-2.356 3.366-2.932-1.76 2.093-3.183 6.395-3.879 10.699-.813.252-1.55.992-2.196 2.206-2.365 4.444-3.192 15.22-.853 20.666-.358 5.3.577 8.63 1.427 10.494 1.05 2.305 2.59 3.737 4.238 3.95.06.133.131.451.11.766l-.679 17.618h-1.892zm7.689-.056c-.02-.306.052-.623.111-.756 1.648-.212 3.189-1.644 4.239-3.95.849-1.863 1.783-5.192 1.427-10.494 2.338-5.445 1.511-16.222-.853-20.666-.646-1.213-1.384-1.954-2.197-2.206-.495-3.068-1.322-5.953-2.338-8.147-.494-1.068-1.012-1.922-1.543-2.554 1.139.576 2.288 1.57 3.367 2.933 1.703 2.151 3.143 5.124 3.95 8.156a.36.36 0 0 0 .314.27c2.226.233 4.206 2.1 5.577 5.252 1.11 2.55 1.7 5.751 1.623 8.781-.084 3.221-.904 6.025-2.314 7.896a.36.36 0 0 0-.07.263c.352 2.957.2 7.164-2.527 10.415-1.662 1.983-4.011 3.198-6.443 3.335-.144.008-.359.068-.558.303-.253.3-.397.8-.352 1.223l1.158 17.572h-1.892l-.68-17.628zm-28.533-6.114c-1.702-2.107-2.247-4.99-1.62-8.564a.36.36 0 0 0-.114-.334c-1.986-1.796-3.348-4.024-3.938-6.445-.552-2.268-.43-4.668.352-6.941.857-2.488 2.44-4.669 4.576-6.31 2.292-1.758 5.14-2.806 8.234-3.028a.36.36 0 0 0 .313-.231c1.396-3.574 3.895-6.522 7.227-8.527a19.7 19.7 0 0 1 5.465-2.238 16.8 16.8 0 0 0-3.452 2.395 21.8 21.8 0 0 0-5.723 8.218c-2.227.217-4.32 1.173-6.065 2.774-1.652 1.514-2.963 3.56-3.794 5.918-.886 2.511-1.164 5.263-.786 7.747.402 2.637 1.51 4.896 3.209 6.547-.553 3.529.227 6.713 2.26 9.218 1.822 2.246 4.596 3.883 7.774 4.668-4.812-.268-10.932-1.17-13.919-4.868zm16.531 6.496c.06-.37-.04-.736-.283-1.033a1.4 1.4 0 0 0-.21-.209q.72.088 1.456.118c.131.005.238.111.289.175.126.154.195.373.17.533l-.003.024-1.653 17.639H39.01l2.127-17.246zm8.63 17.246h-.728l.287-17.594c.039-1.39-.297-1.467-.424-1.496-.299-.067-.938-.874-1.438-3.463-.352-1.817-.737-5.084-.582-10.327a.4.4 0 0 0-.006-.078c-.554-2.975-.734-8.207-.46-13.33.13-2.432.35-4.554.634-6.136.438-2.428.864-2.637.882-2.644a.37.37 0 0 0 .221-.311c.196-2.975.528-5.81.938-7.984.366-1.948.695-2.85.911-3.267.216.416.545 1.318.912 3.267.409 2.174.741 5.01.937 7.984.01.137.095.257.22.311.019.007.446.216.883 2.644.285 1.581.504 3.703.635 6.136.273 5.122.093 10.354-.46 13.33a.3.3 0 0 0-.007.078c.155 5.242-.231 8.509-.581 10.327-.5 2.59-1.14 3.396-1.439 3.463-.126.03-.462.105-.424 1.492l.288 17.598h-1.198m11.224 0h-1.892L57.445 65.33l-.003-.024c-.026-.16.044-.378.17-.533.053-.063.158-.17.29-.175q.735-.03 1.455-.118a1.4 1.4 0 0 0-.21.209 1.3 1.3 0 0 0-.283 1.033l2.126 17.246m20.076-39.085c-.59 2.421-1.951 4.65-3.938 6.445a.37.37 0 0 0-.114.334c.627 3.576.082 6.457-1.62 8.564-2.988 3.698-9.108 4.6-13.919 4.868 3.178-.785 5.952-2.423 7.774-4.668 2.033-2.505 2.813-5.69 2.26-9.218 1.698-1.652 2.807-3.91 3.209-6.547.379-2.485.1-5.236-.786-7.747-.83-2.358-2.142-4.403-3.793-5.918-1.746-1.601-3.839-2.557-6.066-2.774a21.8 21.8 0 0 0-5.723-8.218 16.8 16.8 0 0 0-3.452-2.395 19.8 19.8 0 0 1 5.466 2.238c3.33 2.004 5.829 4.953 7.226 8.527a.36.36 0 0 0 .313.231c3.095.222 5.942 1.269 8.233 3.028 2.138 1.641 3.72 3.822 4.577 6.31.782 2.273.904 4.673.352 6.941"/></svg>