<svg xmlns="http://www.w3.org/2000/svg" width="100" height="100" fill="none" viewBox="0 0 100 100"><path fill="#0b301a" d="M48.42 42.669a10 10 0 0 0-2.292-3.045 9.6 9.6 0 0 0-1.245-.946q-.443-.284-.912-.52c-2.252-1.138-4.453-1.24-5.16-1.24h-.237q-.034 0-.061.002-.03-.003-.063-.002c-.028 0-.065-.002-.099 0h-.09c-1.132-.012-6.93.236-9.656 5.75-1.736 3.513-2.623 7.432-3.323 11.145-.63 3.343-1.413 7.504-.672 11.257.457 2.31 2.35 3.312 4.088 4.072 1.835.8 2.833 1.49 3.195 3.036.174.742.255 2.182.35 3.85.133 2.345.299 5.264.792 7.944a.365.365 0 0 0 .359.299h10.235a.364.364 0 0 0 .359-.3c.493-2.68.659-5.597.792-7.943.095-1.668.177-3.108.35-3.85.09-.386.221-.72.394-1.013.519-.884 1.425-1.422 2.801-2.023 1.086-.475 2.233-1.045 3.052-1.97a4.4 4.4 0 0 0 1.036-2.102c.742-3.757-.042-7.916-.672-11.257-.7-3.714-1.588-7.634-3.322-11.145m-6.702 40.873h-.693c.18-2.558.245-5.3.298-7.525.04-1.678.074-3.127.147-3.886.168-1.743.669-2.398 1.306-3.072.9-.952 1.532-2 1.698-4.029.303-3.715-.019-7.852-.278-11.176-.286-3.696-.651-7.599-1.364-11.095-.42-2.059-1.065-3.605-1.92-4.603 1.322.609 2.882 1.933 3.856 4.794 1.172 3.444 1.774 7.313 2.249 10.98.427 3.29.958 7.385.463 11.023-.243 1.789-1.138 2.685-2.503 3.55-1.137.72-2.185 1.533-2.507 3.537-.128.793-.182 2.19-.252 3.957-.088 2.234-.196 4.993-.501 7.547zm-6.912-7.547c-.068-1.768-.124-3.164-.252-3.958-.322-2.002-1.37-2.815-2.508-3.537-1.365-.866-2.258-1.761-2.502-3.55-.496-3.639.036-7.732.463-11.023.476-3.668 1.078-7.536 2.25-10.98.974-2.865 2.535-4.189 3.857-4.796-.856.998-1.501 2.545-1.921 4.605-.712 3.492-1.076 7.396-1.365 11.095-.258 3.324-.58 7.46-.277 11.176.166 2.028.798 3.077 1.698 4.03.637.674 1.137 1.328 1.306 3.071.073.76.108 2.208.147 3.885.052 2.225.117 4.968.298 7.525h-.693c-.305-2.554-.413-5.312-.5-7.546zm3.688-38.582.003-.122.014-.028.015.028v.161l-.006.015-.027-.056zM36.43 75.999c-.041-1.761-.074-3.153-.15-3.939-.19-1.97-.792-2.752-1.502-3.503-.816-.863-1.352-1.765-1.5-3.587-.3-3.659.02-7.763.276-11.06.287-3.677.648-7.554 1.352-11.007.71-3.484 1.939-4.661 2.733-5.056-.267.774-.538 2.223-.708 4.961-.215 3.48-.327 7.374-.413 11.065-.078 3.318-.176 7.446-.084 11.136.048 1.96.235 2.977.5 3.9.194.677.36 1.385.414 3.198.022.767.032 2.146.045 3.893.016 2.231.035 4.981.09 7.543h-.753c-.182-2.556-.247-5.31-.3-7.543zm1.692-.005c-.012-1.751-.022-3.135-.045-3.909-.056-1.897-.233-2.652-.442-3.377-.2-.7-.42-1.623-.472-3.716-.092-3.673.006-7.792.084-11.101.088-3.684.197-7.57.413-11.037.248-4.014.696-4.964.85-5.177.155.213.603 1.16.853 5.177.213 3.453.325 7.345.412 11.037.078 3.308.175 7.427.084 11.1-.052 2.094-.27 3.017-.471 3.717-.209.724-.386 1.478-.442 3.377-.023.78-.033 2.174-.046 3.94a527 527 0 0 1-.09 7.518h-.598a532 532 0 0 1-.091-7.548zm1.507.035c.013-1.761.023-3.152.046-3.923.053-1.814.219-2.522.414-3.198.265-.923.452-1.94.5-3.9.092-3.691-.006-7.82-.084-11.136-.088-3.7-.2-7.6-.413-11.065-.171-2.748-.443-4.197-.71-4.968.238.115.512.299.797.59.86.881 1.514 2.387 1.94 4.474.705 3.457 1.066 7.333 1.35 11.006.257 3.298.577 7.404.279 11.06-.149 1.823-.684 2.724-1.501 3.588-.71.751-1.312 1.533-1.502 3.503-.076.786-.108 2.177-.15 3.939-.052 2.232-.118 4.987-.3 7.543h-.754c.055-2.55.075-5.29.09-7.513zm-7.027-4.016c-.472-2.018-1.978-2.826-3.612-3.54-2.003-.873-3.315-1.772-3.665-3.544-.715-3.614.055-7.699.673-10.98.69-3.66 1.563-7.522 3.26-10.956 1.288-2.607 3.32-3.945 5.144-4.632-1.061.855-2.106 2.209-2.836 4.354-1.193 3.504-1.801 7.415-2.282 11.12-.433 3.333-.971 7.48-.463 11.215.28 2.061 1.335 3.117 2.834 4.067 1.067.676 1.904 1.329 2.18 3.037.12.751.177 2.196.242 3.87.087 2.222.195 4.96.495 7.518h-.872l-.019-.105-.038-.232a23 23 0 0 1-.077-.494l-.039-.261-.032-.237-.035-.26-.03-.238q-.016-.131-.03-.263l-.028-.236-.03-.264-.024-.236q-.014-.132-.026-.264l-.023-.234-.024-.265-.02-.231-.024-.267-.019-.225-.02-.27-.017-.216-.02-.274-.014-.209-.02-.272q-.006-.102-.013-.203l-.017-.277q-.008-.094-.012-.188l-.018-.298-.009-.156-.019-.321-.007-.128-.025-.43c-.101-1.772-.18-3.172-.368-3.975m19.095-7.084c-.35 1.772-1.662 2.67-3.663 3.545-1.635.713-3.142 1.52-3.613 3.538-.187.804-.268 2.204-.368 3.975-.127 2.238-.284 5.002-.728 7.555h-.873c.3-2.559.408-5.296.495-7.518.066-1.674.122-3.12.243-3.87.275-1.708 1.112-2.361 2.178-3.037 1.499-.95 2.554-2.006 2.835-4.067.509-3.734-.03-7.882-.462-11.215-.48-3.705-1.09-7.616-2.282-11.12-.73-2.144-1.777-3.498-2.838-4.353 1.764.664 3.72 1.938 5.014 4.375q.066.127.13.257c1.697 3.432 2.57 7.294 3.26 10.956.619 3.28 1.389 7.361.673 10.98zM37.847 35.583q.273.038.548.04h.013v-.018h.013q.101 0 .202-.005c4.71-.101 8.518-3.953 8.532-8.69a8.66 8.66 0 0 0-2.535-6.174 8.66 8.66 0 0 0-5.989-2.568h-.028c-.047 0-.093-.005-.142-.005a8.65 8.65 0 0 0-6.173 2.536 8.66 8.66 0 0 0-2.573 6.158 8.66 8.66 0 0 0 2.535 6.174 8.65 8.65 0 0 0 5.598 2.551zm.617-16.532c.144.337.359 1.124.547 2.65.194 1.572.307 3.51.302 5.185a44 44 0 0 1-.333 5.185c-.2 1.554-.426 2.342-.573 2.665-.144-.336-.359-1.123-.547-2.65a44 44 0 0 1-.302-5.185c.006-1.675.13-3.613.333-5.184.2-1.554.426-2.342.573-2.666m.78 15.522c.144-.469.281-1.135.413-2.073.236-1.665.379-3.762.385-5.611.005-1.85-.125-3.948-.35-5.614-.113-.832-.236-1.54-.397-2.07.552.401 1.094 1.18 1.558 2.268.687 1.608 1.093 3.635 1.088 5.422-.006 1.786-.424 3.811-1.12 5.415-.472 1.089-1.02 1.865-1.576 2.263zm-1.617-15.357c-.144.468-.281 1.134-.413 2.072-.236 1.665-.378 3.763-.385 5.612-.006 1.849.125 3.948.35 5.614.113.832.236 1.54.397 2.07-.552-.4-1.094-1.18-1.558-2.268-.687-1.609-1.093-3.636-1.088-5.422.005-1.787.424-3.812 1.12-5.416.472-1.088 1.02-1.865 1.576-2.262zm3.014 14.93a8.5 8.5 0 0 0 .848-1.545c.733-1.69 1.175-3.823 1.18-5.703s-.423-4.016-1.146-5.71a8.6 8.6 0 0 0-.839-1.55c.658.446 1.28 1.086 1.839 1.903 1.09 1.594 1.736 3.599 1.73 5.361-.005 1.763-.664 3.763-1.763 5.351-.564.814-1.191 1.45-1.851 1.893zm-4.47-14.418q-.423.616-.79 1.46c-.733 1.69-1.175 3.822-1.18 5.703-.005 1.88.423 4.015 1.146 5.71q.385.901.835 1.545c-2.073-1.41-3.575-4.562-3.566-7.26.01-3.082 1.658-5.842 3.555-7.159zm10.255 7.18a8 8 0 0 1-4.57 7.196q.66-.61 1.234-1.436c1.179-1.704 1.887-3.86 1.892-5.764.007-1.904-.688-4.063-1.857-5.775a8.7 8.7 0 0 0-1.24-1.458c.814.39 1.563.92 2.217 1.578a7.94 7.94 0 0 1 2.324 5.658zm-13.625-5.691a8 8 0 0 1 2.27-1.585 8.6 8.6 0 0 0-1.292 1.489c-1.179 1.704-1.887 3.858-1.893 5.763-.005 1.906.69 4.064 1.858 5.775q.556.812 1.197 1.417a8 8 0 0 1-2.174-1.557 7.94 7.94 0 0 1-2.324-5.659 7.94 7.94 0 0 1 2.358-5.643m25.007 9.79h.029q.069.002.141.003h.027c2.319 0 4.501-.9 6.147-2.535a8.66 8.66 0 0 0 2.573-6.158 8.66 8.66 0 0 0-2.535-6.174 8.65 8.65 0 0 0-5.598-2.551 4 4 0 0 0-.546-.041h-.016v.018h-.012q-.102 0-.202.005c-4.71.1-8.519 3.953-8.533 8.69a8.66 8.66 0 0 0 2.536 6.174 8.66 8.66 0 0 0 5.988 2.568zm.224-16.57c.145.337.36 1.124.548 2.65.194 1.572.307 3.51.301 5.186a44 44 0 0 1-.332 5.184c-.201 1.554-.426 2.342-.573 2.666-.145-.337-.36-1.124-.548-2.65a44 44 0 0 1-.3-5.185c.004-1.675.128-3.614.331-5.185.201-1.554.426-2.342.573-2.666m.78 15.522c.144-.468.282-1.134.414-2.073.236-1.664.378-3.762.385-5.611.006-1.849-.125-3.948-.35-5.614-.113-.832-.236-1.54-.397-2.07.552.402 1.093 1.18 1.558 2.268.686 1.609 1.093 3.636 1.088 5.422-.006 1.787-.424 3.812-1.12 5.416-.472 1.088-1.02 1.866-1.576 2.262zm-1.616-15.358c-.144.469-.281 1.134-.414 2.073-.235 1.665-.378 3.761-.384 5.611s.125 3.948.35 5.614c.113.832.235 1.54.397 2.07-.552-.401-1.094-1.18-1.559-2.268-.686-1.608-1.092-3.635-1.087-5.422s.424-3.81 1.12-5.416c.472-1.088 1.02-1.864 1.576-2.262m3.073 14.846q.423-.616.79-1.46c.733-1.691 1.174-3.823 1.18-5.704.005-1.88-.423-4.015-1.146-5.71a8.6 8.6 0 0 0-.836-1.545c2.073 1.41 3.575 4.562 3.567 7.26-.01 3.082-1.658 5.842-3.555 7.159M55.74 15.114q-.423.615-.79 1.459c-.733 1.69-1.175 3.823-1.18 5.703s.423 4.016 1.146 5.71q.385.902.835 1.545c-2.073-1.41-3.575-4.561-3.567-7.26.01-3.081 1.659-5.842 3.556-7.158m10.255 7.2a7.94 7.94 0 0 1-2.358 5.643 8 8 0 0 1-2.27 1.585 8.6 8.6 0 0 0 1.291-1.489c1.18-1.704 1.888-3.858 1.893-5.763s-.688-4.064-1.857-5.775a8.7 8.7 0 0 0-1.197-1.417c.797.387 1.531.91 2.174 1.557a7.94 7.94 0 0 1 2.324 5.659M54.582 15.07q-.66.61-1.233 1.436c-1.18 1.704-1.887 3.859-1.893 5.764-.006 1.904.689 4.063 1.858 5.775a8.7 8.7 0 0 0 1.24 1.458 8 8 0 0 1-2.218-1.578 7.94 7.94 0 0 1-2.323-5.658 8 8 0 0 1 4.568-7.196zm7.08 18.987a7.15 7.15 0 0 0-2.124 5.084 7.15 7.15 0 0 0 2.092 5.096 7.15 7.15 0 0 0 5.084 2.124h.022c3.959 0 7.186-3.214 7.197-7.177.012-3.822-2.971-6.964-6.736-7.204a4 4 0 0 0-.326-.027l-.068-.003-.046-.002v.015h-.026a7.15 7.15 0 0 0-5.07 2.093zm5.459 9.282c-.139 1.087-.292 1.72-.406 2.045-.112-.33-.259-.96-.389-2.032a36 36 0 0 1-.24-4.19 36 36 0 0 1 .266-4.19c.139-1.088.292-1.72.406-2.046.112.331.259.96.389 2.032.155 1.274.245 2.84.24 4.19a36 36 0 0 1-.266 4.19M65.955 33.06c-.1.371-.193.86-.284 1.5a36 36 0 0 0-.315 4.598 36 36 0 0 0 .287 4.6c.085.637.177 1.123.273 1.494-1.056-.967-1.988-3.63-1.98-6.099.004-1.453.344-3.099.91-4.403.331-.765.718-1.344 1.108-1.69zm1.562 12.19c.1-.37.194-.86.284-1.5.193-1.364.31-3.083.315-4.598a36 36 0 0 0-.287-4.6 13 13 0 0 0-.273-1.494c1.057.967 1.988 3.63 1.98 6.1-.004 1.452-.344 3.098-.91 4.402-.331.765-.718 1.345-1.108 1.691zm-2.848-11.743a8 8 0 0 0-.492.954c-.603 1.391-.965 3.144-.97 4.691-.006 1.792.5 4.078 1.383 5.59-1.4-1.141-2.555-3.257-2.548-5.594.004-1.43.538-3.051 1.43-4.339a6 6 0 0 1 1.196-1.302m4.134 11.296q.26-.423.492-.954c.603-1.39.965-3.144.97-4.69.006-1.792-.5-4.079-1.383-5.591 1.4 1.141 2.554 3.257 2.548 5.595-.004 1.429-.538 3.05-1.43 4.338-.365.527-.77.964-1.196 1.302m-8.536-5.66a6.43 6.43 0 0 1 1.908-4.57c.426-.423.902-.778 1.414-1.064q-.391.416-.715.886c-.972 1.404-1.555 3.181-1.56 4.75-.006 1.57.567 3.35 1.53 4.761q.34.494.712.892a6.5 6.5 0 0 1-1.409-1.075 6.43 6.43 0 0 1-1.881-4.58m12.938.04a6.47 6.47 0 0 1-3.348 5.644q.406-.427.741-.911c.972-1.405 1.555-3.182 1.56-4.751s-.567-3.35-1.53-4.76a7.6 7.6 0 0 0-.67-.848 6.47 6.47 0 0 1 3.247 5.626m.273 10.3c-1.547-.888-3.706-1.37-6.426-1.433v-.007q-.16 0-.317.002l-.316-.002v.007c-2.719.064-4.88.546-6.426 1.433-2.012 1.156-3.032 3-3.032 5.48v28.942c0 .201.163.365.364.365h18.82a.365.365 0 0 0 .365-.365V54.964c0-2.482-1.02-4.325-3.033-5.48zm-.38 34.059h-1.954V55.049c0-2.419-.456-4.227-1.354-5.375a4 4 0 0 0-.351-.393c2.456.78 3.659 2.686 3.659 5.768zm-10.77 0h-1.954V55.049c0-3.082 1.204-4.989 3.66-5.768a4 4 0 0 0-.352.393c-.899 1.148-1.354 2.956-1.354 5.375zm.73-28.493c0-3.457.906-5.434 2.759-6.002-.545 1.046-.805 3.019-.805 6.002v28.493h-1.955zm2.683 0c0-2.299.16-3.997.476-5.045.111-.369.281-.786.52-.995.238.209.409.627.52.995.315 1.048.475 2.746.475 5.045v28.493h-1.991zm1.914-6.001c1.853.567 2.76 2.544 2.76 6.002v28.493H68.46V55.05c0-2.983-.26-4.955-.805-6.002m-9.964 5.917c0-2.233.872-3.818 2.665-4.848a8.4 8.4 0 0 1 1.852-.764 5 5 0 0 0-.362.26c-1.46 1.156-2.201 2.985-2.201 5.437v28.493H57.69zm18.09 28.577h-1.954V55.049c0-2.452-.74-4.281-2.2-5.437a5 5 0 0 0-.363-.26 8.4 8.4 0 0 1 1.852.764c1.793 1.03 2.665 2.615 2.665 4.848V83.54"/></svg>