<svg width="100" height="100" viewBox="0 0 100 100" fill="none" xmlns="http://www.w3.org/2000/svg">
<path d="M48.4199 42.6687C47.7886 41.3916 46.9928 40.3979 46.1282 39.6239C45.9027 39.422 45.6677 39.2308 45.424 39.051C45.2479 38.921 45.0676 38.7966 44.8834 38.6781C44.5882 38.4893 44.2837 38.3154 43.9709 38.1573C41.7188 37.0198 39.5178 36.9177 38.8115 36.9177H38.574C38.5522 36.9177 38.5313 36.9177 38.5126 36.9198C38.4928 36.9177 38.473 36.9167 38.4501 36.9177C38.422 36.9177 38.3855 36.9156 38.3511 36.9177H38.2615C37.1293 36.9062 31.3303 37.1541 28.6053 42.6677C26.8688 46.1812 25.9824 50.1 25.2824 53.8125C24.6522 57.1562 23.8688 61.3166 24.6105 65.0698C25.0668 67.3791 26.9595 68.3823 28.698 69.1417C30.5334 69.9427 31.5313 70.6323 31.8928 72.1781C32.0668 72.9198 32.148 74.3604 32.2428 76.0281C32.3761 78.3729 32.5418 81.2917 33.0355 83.9719C33.0509 84.0557 33.0952 84.1315 33.1607 84.1861C33.2261 84.2407 33.3086 84.2707 33.3938 84.2708H43.6293C43.8053 84.2708 43.9563 84.1448 43.9876 83.9719C44.4813 81.2917 44.647 78.3739 44.7803 76.0281C44.8751 74.3604 44.9574 72.9198 45.1303 72.1781C45.2209 71.7916 45.3511 71.4583 45.524 71.1646C46.0428 70.2812 46.949 69.7427 48.3251 69.1417C49.4115 68.6667 50.5584 68.0969 51.3772 67.1729C51.8688 66.6187 52.2418 65.9364 52.4126 65.0698C53.1553 61.3125 52.3709 57.1541 51.7407 53.8125C51.0407 50.0989 50.1532 46.1791 48.4188 42.6677L48.4199 42.6687ZM41.7178 83.5416H41.0251C41.2053 80.9844 41.2699 78.2417 41.323 76.0167C41.3626 74.3385 41.397 72.8896 41.4699 72.1312C41.6376 70.3875 42.1386 69.7333 42.7761 69.0594C43.6761 68.1073 44.3084 67.0583 44.474 65.0302C44.7772 61.3146 44.4553 57.1781 44.1959 53.8541C43.9095 50.1583 43.5449 46.2552 42.8324 42.7594C42.4126 40.7 41.7668 39.1541 40.9126 38.1562C42.2345 38.7646 43.7938 40.0885 44.7678 42.95C45.9397 46.3937 46.5418 50.2625 47.0168 53.9302C47.4438 57.2198 47.9751 61.3146 47.4803 64.9531C47.2365 66.7416 46.3418 67.6375 44.9772 68.5021C43.8397 69.2239 42.7918 70.0364 42.4699 72.0396C42.3418 72.8333 42.2876 74.2302 42.2178 75.9969C42.1303 78.2312 42.022 80.9896 41.7168 83.5437L41.7178 83.5416ZM34.8063 75.9948C34.7376 74.2271 34.6824 72.8312 34.5543 72.0375C34.2324 70.0354 33.1845 69.2219 32.0459 68.5C30.6813 67.6344 29.7876 66.7385 29.5438 64.95C29.048 61.3114 29.5803 57.2177 30.0074 53.9271C30.4834 50.2594 31.0855 46.3906 32.2563 42.9469C33.2313 40.0823 34.7918 38.7583 36.1136 38.151C35.2584 39.1489 34.6126 40.6958 34.1928 42.7562C33.4813 46.2479 33.1168 50.1521 32.8282 53.851C32.5699 57.175 32.248 61.3114 32.5511 65.0271C32.7168 67.0552 33.349 68.1041 34.249 69.0562C34.8865 69.7312 35.3865 70.3854 35.5553 72.1281C35.6282 72.8875 35.6626 74.3364 35.7022 76.0135C35.7543 78.2385 35.8188 80.9812 36.0001 83.5385H35.3074C35.0022 80.9844 34.8938 78.226 34.8063 75.9917V75.9948ZM38.4938 37.4125L38.497 37.2906L38.5115 37.2625L38.5261 37.2906V37.4521L38.5199 37.4667L38.4928 37.4114L38.4938 37.4125ZM36.4313 75.9989C36.3897 74.2375 36.3574 72.8458 36.2813 72.0604C36.0907 70.0906 35.4886 69.3083 34.7793 68.5573C33.9626 67.6937 33.4272 66.7917 33.2782 64.9698C32.9793 61.3114 33.299 57.2073 33.5553 53.9094C33.8418 50.2333 34.2032 46.3562 34.9074 42.9031C35.6178 39.4187 36.8459 38.2416 37.6397 37.8469C37.373 38.6208 37.1022 40.0698 36.9324 42.8083C36.7168 46.2875 36.6053 50.1823 36.5188 53.8729C36.4407 57.1906 36.3428 61.3187 36.4345 65.0094C36.4834 66.9698 36.6699 67.9864 36.9355 68.9094C37.1293 69.5864 37.2949 70.2937 37.349 72.1073C37.3709 72.8739 37.3813 74.2531 37.3938 76C37.4095 78.2312 37.4293 80.9812 37.4845 83.5427H36.7313C36.549 80.9875 36.4845 78.2323 36.4313 76V75.9989ZM38.123 75.9937C38.1105 74.2427 38.1011 72.8594 38.0782 72.0854C38.022 70.1875 37.8449 69.4333 37.6365 68.7083C37.4355 68.0083 37.2157 67.0854 37.1636 64.9916C37.072 61.3187 37.1699 57.2 37.248 53.8906C37.3355 50.2073 37.4449 46.3208 37.6605 42.8541C37.9095 38.8396 38.3574 37.8896 38.5115 37.6771C38.6657 37.8896 39.1136 38.8375 39.3636 42.8541C39.5772 46.3073 39.6886 50.1989 39.7761 53.8906C39.8543 57.1989 39.9511 61.3177 39.8605 64.9916C39.8084 67.0854 39.5897 68.0083 39.3886 68.7083C39.1803 69.4323 39.0032 70.1864 38.947 72.0854C38.924 72.8646 38.9136 74.2594 38.9011 76.025C38.8855 78.25 38.8657 80.9937 38.8105 83.5427H38.2126C38.1574 80.9823 38.1376 78.2281 38.122 75.9948L38.123 75.9937ZM39.6303 76.0292C39.6428 74.2677 39.6532 72.8771 39.6761 72.1062C39.7293 70.2916 39.8949 69.5844 40.0897 68.9083C40.3553 67.9854 40.5418 66.9687 40.5907 65.0083C40.6824 61.3167 40.5845 57.1885 40.5063 53.8719C40.4178 50.1729 40.3063 46.2729 40.0928 42.8073C39.922 40.0594 39.6501 38.6104 39.3834 37.8385C39.6209 37.9541 39.8949 38.1375 40.1803 38.4292C41.0407 39.3104 41.6938 40.8156 42.1199 42.9031C42.8251 46.3604 43.1855 50.2364 43.4709 53.9094C43.7272 57.2073 44.047 61.3125 43.749 64.9698C43.6001 66.7917 43.0647 67.6927 42.248 68.5573C41.5386 69.3083 40.9355 70.0896 40.7459 72.0604C40.6699 72.8458 40.6376 74.2375 40.5959 75.9989C40.5438 78.2312 40.4782 80.9864 40.2959 83.5416H39.5418C39.597 80.9917 39.6168 78.2521 39.6324 76.0292H39.6303ZM32.6032 72.0125C32.1313 69.9948 30.6251 69.1875 28.9907 68.4739C26.9876 67.6 25.6761 66.701 25.3261 64.9291C24.6115 61.3146 25.3813 57.2302 25.999 53.9489C26.6897 50.2885 27.5615 46.4271 29.2595 42.9927C30.547 40.3864 32.5782 39.0479 34.4032 38.3614C33.3418 39.2156 32.297 40.5698 31.5668 42.7146C30.374 46.2187 29.7657 50.1302 29.2845 53.8354C28.8522 57.1677 28.3136 61.3156 28.822 65.05C29.1022 67.1114 30.1574 68.1667 31.6563 69.1167C32.723 69.7927 33.5605 70.4458 33.8355 72.1541C33.9563 72.9052 34.0126 74.35 34.0782 76.0239C34.1647 78.2458 34.273 80.9844 34.573 83.5416H33.7011L33.6824 83.4375C33.6688 83.3604 33.6563 83.2823 33.6438 83.2052C33.6293 83.1187 33.6157 83.0323 33.6022 82.9458C33.5897 82.8677 33.5782 82.7896 33.5668 82.7114C33.5543 82.625 33.5407 82.5375 33.5282 82.45C33.5168 82.3708 33.5063 82.2927 33.4959 82.2135L33.4615 81.9521C33.4511 81.8729 33.4407 81.7937 33.4313 81.7146C33.4209 81.6271 33.4095 81.5396 33.4001 81.4521C33.3907 81.3729 33.3813 81.2937 33.373 81.2156C33.3626 81.1281 33.3532 81.0396 33.3438 80.9521L33.3188 80.7156C33.3095 80.6281 33.3011 80.5396 33.2928 80.4521C33.2855 80.3739 33.2772 80.2958 33.2699 80.2177C33.2615 80.1292 33.2532 80.0416 33.2459 79.9531C33.2386 79.876 33.2324 79.7989 33.2251 79.7219C33.2178 79.6323 33.2095 79.5437 33.2022 79.4552L33.1834 79.2302C33.1761 79.1396 33.1688 79.05 33.1626 78.9604C33.1574 78.8885 33.1511 78.8156 33.1459 78.7437C33.1386 78.6521 33.1324 78.5614 33.1261 78.4698C33.1209 78.4 33.1157 78.3312 33.1115 78.2614L33.0928 77.9885C33.0886 77.9208 33.0834 77.8531 33.0793 77.7864C33.073 77.6937 33.0678 77.6021 33.0615 77.5094C33.0574 77.4469 33.0532 77.3833 33.0501 77.3208C33.0438 77.2208 33.0376 77.1219 33.0324 77.0229L33.023 76.8666L33.0043 76.5458C33.0022 76.5031 32.999 76.4604 32.997 76.4177L32.972 75.9875C32.8709 74.2156 32.7918 72.8156 32.6043 72.0125H32.6032ZM51.698 64.9291C51.348 66.701 50.0365 67.5989 48.0345 68.4739C46.4001 69.1875 44.8928 69.9948 44.422 72.0125C44.2345 72.8156 44.1543 74.2156 44.0543 75.9875C43.9272 78.225 43.7699 80.9885 43.3261 83.5416H42.4532C42.7532 80.9833 42.8615 78.2458 42.948 76.0239C43.0136 74.35 43.0699 72.9041 43.1907 72.1541C43.4657 70.4458 44.3032 69.7927 45.3688 69.1167C46.8678 68.1667 47.923 67.1114 48.2043 65.05C48.7126 61.3156 48.174 57.1677 47.7418 53.8354C47.2615 50.1302 46.6522 46.2187 45.4595 42.7146C44.7303 40.5708 43.6834 39.2167 42.622 38.3625C44.3855 39.026 46.3428 40.3 47.6355 42.7375C47.6803 42.8219 47.724 42.9073 47.7668 42.9937C49.4626 46.426 50.3355 50.2885 51.0261 53.95C51.6449 57.2302 52.4147 61.3114 51.699 64.9302L51.698 64.9291ZM37.847 35.5833C38.0293 35.6083 38.2115 35.6219 38.3949 35.6239H38.4084V35.6052H38.4209C38.4886 35.6052 38.5553 35.6031 38.623 35.6C43.3324 35.4989 47.1407 31.6469 47.1553 26.9104C47.1626 24.5812 46.2615 22.3885 44.6199 20.7364C43.0178 19.125 40.897 18.2177 38.6313 18.1677H38.6032C38.5563 18.1677 38.5095 18.1635 38.4615 18.1635C36.1324 18.1521 33.9397 19.0573 32.2876 20.6989C30.6355 22.3406 29.722 24.5281 29.7147 26.8573C29.7074 29.1864 30.6084 31.3792 32.2501 33.0312C33.7595 34.55 35.7303 35.4427 37.848 35.5823L37.847 35.5833ZM38.4636 19.051C38.6084 19.3875 38.823 20.175 39.0115 21.701C39.2053 23.2729 39.3178 25.2114 39.3126 26.8864C39.3074 28.5614 39.1834 30.5 38.9803 32.0708C38.7793 33.625 38.5543 34.4125 38.4074 34.7364C38.2626 34.4 38.048 33.6125 37.8595 32.0864C37.6657 30.5146 37.5532 28.576 37.5584 26.901C37.5636 25.226 37.6876 23.2875 37.8907 21.7167C38.0918 20.1625 38.3168 19.375 38.4636 19.051ZM39.2438 34.5729C39.3876 34.1041 39.5251 33.4385 39.6574 32.5C39.8928 30.8354 40.0355 28.7375 40.0418 26.8885C40.047 25.0396 39.9168 22.9406 39.6918 21.275C39.5793 20.4427 39.4563 19.7344 39.2949 19.2042C39.847 19.6062 40.3886 20.3844 40.8532 21.4729C41.5397 23.0812 41.9459 25.1083 41.9407 26.8948C41.9355 28.6812 41.5168 30.7062 40.8209 32.3104C40.349 33.3989 39.8011 34.175 39.2449 34.5729H39.2438ZM37.6272 19.2156C37.4834 19.6844 37.3459 20.35 37.2136 21.2885C36.9782 22.9531 36.8355 25.051 36.8293 26.9C36.823 28.7489 36.9543 30.8479 37.1793 32.5135C37.2918 33.3458 37.4147 34.0542 37.5761 34.5844C37.024 34.1833 36.4824 33.4042 36.0178 32.3156C35.3313 30.7073 34.9251 28.6802 34.9303 26.8937C34.9355 25.1073 35.3543 23.0823 36.0501 21.4781C36.522 20.3896 37.0699 19.6135 37.6261 19.2156H37.6272ZM40.6407 34.1458C40.9438 33.7187 41.2282 33.2021 41.4886 32.601C42.222 30.9104 42.6636 28.7781 42.6688 26.8979C42.674 25.0177 42.2459 22.8823 41.523 21.1875C41.2657 20.5854 40.9845 20.0667 40.6845 19.6375C41.3418 20.0844 41.9647 20.7239 42.523 21.5406C43.6126 23.1354 44.2595 25.1396 44.2532 26.9021C44.248 28.6646 43.5886 30.6646 42.4897 32.2531C41.9261 33.0667 41.299 33.7031 40.6386 34.1458H40.6407ZM36.1709 19.7281C35.8897 20.1385 35.6251 20.626 35.3813 21.1875C34.648 22.8781 34.2063 25.0104 34.2011 26.8906C34.1959 28.7708 34.624 30.9062 35.347 32.601C35.6032 33.201 35.8834 33.7177 36.1824 34.1458C34.1095 32.7354 32.6074 29.5844 32.6157 26.8854C32.6251 23.8042 34.274 21.0437 36.1709 19.7271V19.7281ZM46.4261 26.9083C46.4168 30.0823 44.548 32.8239 41.8563 34.1041C42.2959 33.6979 42.7084 33.2177 43.0897 32.6677C44.2688 30.9635 44.9772 28.8083 44.9824 26.9042C44.9886 25 44.2938 22.8406 43.1251 21.1292C42.7438 20.5708 42.3282 20.0833 41.8855 19.6708C42.699 20.0604 43.448 20.5906 44.1022 21.2489C45.6074 22.7625 46.4324 24.7719 46.4261 26.9073V26.9083ZM32.8011 21.2167C33.4709 20.551 34.2386 20.0187 35.0709 19.6323C34.6095 20.0489 34.1772 20.5458 33.7793 21.1208C32.6001 22.825 31.8918 24.9791 31.8865 26.8844C31.8813 28.7896 32.5751 30.9479 33.7438 32.6594C34.1136 33.2 34.5136 33.6729 34.9407 34.076C34.1438 33.6885 33.4095 33.1656 32.7668 32.5187C31.2615 31.0052 30.4365 28.9958 30.4428 26.8604C30.449 24.725 31.2865 22.7219 32.8011 21.2167ZM57.8084 31.0062H57.8365C57.8834 31.0062 57.9303 31.0104 57.9782 31.0104H58.0053C60.324 31.0104 62.5063 30.1104 64.1522 28.475C65.8043 26.8333 66.7178 24.6458 66.7251 22.3167C66.7324 19.9875 65.8313 17.7948 64.1897 16.1427C62.6803 14.6239 60.7095 13.7312 58.5918 13.5917C58.4105 13.5667 58.2293 13.5531 58.0459 13.551H58.0303V13.5687H58.0178C57.9501 13.5687 57.8834 13.5708 57.8157 13.5739C53.1063 13.6739 49.297 17.5271 49.2834 22.2635C49.2761 24.5927 50.1772 26.7854 51.8188 28.4375C53.4209 30.0489 55.5418 30.9562 57.8074 31.0062H57.8084ZM58.0324 14.4375C58.1772 14.7739 58.3918 15.5614 58.5803 17.0875C58.774 18.6594 58.8866 20.5979 58.8813 22.2729C58.8761 23.9479 58.7522 25.8864 58.549 27.4573C58.348 29.0114 58.123 29.7989 57.9761 30.1229C57.8313 29.7864 57.6168 28.9989 57.4282 27.4729C57.2345 25.901 57.122 23.9625 57.1272 22.2875C57.1324 20.6125 57.2563 18.6739 57.4595 17.1031C57.6605 15.5489 57.8855 14.7614 58.0324 14.4375ZM58.8126 29.9594C58.9563 29.4906 59.0938 28.825 59.2261 27.8864C59.4616 26.2219 59.6043 24.1239 59.6105 22.275C59.6168 20.426 59.4855 18.3271 59.2605 16.6614C59.148 15.8292 59.0251 15.1208 58.8636 14.5906C59.4157 14.9927 59.9574 15.7708 60.422 16.8594C61.1084 18.4677 61.5147 20.4948 61.5095 22.2812C61.5043 24.0677 61.0855 26.0927 60.3897 27.6969C59.9178 28.7854 59.3699 29.5625 58.8136 29.9594H58.8126ZM57.1959 14.601C57.0522 15.0698 56.9147 15.7354 56.7824 16.6739C56.547 18.3385 56.4043 20.4354 56.398 22.2854C56.3918 24.1354 56.523 26.2333 56.748 27.8989C56.8605 28.7312 56.9834 29.4396 57.1449 29.9698C56.5928 29.5677 56.0511 28.7896 55.5865 27.701C54.9001 26.0927 54.4938 24.0656 54.499 22.2792C54.5043 20.4927 54.923 18.4687 55.6188 16.8635C56.0907 15.775 56.6386 14.9989 57.1949 14.601H57.1959ZM60.2688 29.4469C60.5501 29.0364 60.8147 28.5489 61.0584 27.9864C61.7918 26.2958 62.2334 24.1635 62.2386 22.2833C62.2438 20.4031 61.8157 18.2677 61.0928 16.5729C60.8365 15.9729 60.5563 15.4562 60.2574 15.0281C62.3303 16.4385 63.8324 19.5896 63.8241 22.2885C63.8147 25.3698 62.1657 28.1302 60.2688 29.4469ZM55.7407 15.1135C55.4595 15.5239 55.1949 16.0114 54.9511 16.5729C54.2178 18.2635 53.7761 20.3958 53.7709 22.276C53.7657 24.1562 54.1938 26.2917 54.9168 27.9864C55.173 28.5864 55.4532 29.1031 55.7522 29.5312C53.6793 28.1208 52.1772 24.9698 52.1855 22.2708C52.1949 19.1896 53.8438 16.4292 55.7407 15.1125V15.1135ZM65.9959 22.3135C65.9897 24.4479 65.1522 26.4521 63.6376 27.9573C62.9792 28.6138 62.211 29.15 61.3678 29.5417C61.8293 29.125 62.2616 28.6281 62.6595 28.0531C63.8386 26.3489 64.547 24.1948 64.5522 22.2896C64.5584 20.3854 63.8636 18.226 62.6949 16.5146C62.3251 15.9739 61.9251 15.501 61.498 15.0979C62.2949 15.4854 63.0293 16.0083 63.672 16.6552C65.1772 18.1687 66.0022 20.1781 65.9959 22.3135ZM54.5824 15.0698C54.1428 15.476 53.7303 15.9562 53.3491 16.5062C52.1699 18.2104 51.4615 20.3646 51.4563 22.2698C51.4501 24.1739 52.1449 26.3333 53.3136 28.0448C53.6949 28.6031 54.1105 29.0906 54.5532 29.5031C53.7397 29.1135 52.9907 28.5833 52.3365 27.925C50.8313 26.4114 50.0063 24.4021 50.0126 22.2667C50.022 19.0927 51.8907 16.351 54.5813 15.0708L54.5824 15.0698ZM61.6615 34.0573C60.298 35.4125 59.5438 37.2187 59.5376 39.1406C59.5313 41.0635 60.2751 42.8739 61.6303 44.2375C62.9855 45.601 64.7918 46.3552 66.7136 46.3614H66.7355C70.6949 46.3614 73.922 43.1469 73.9334 39.1844C73.9449 35.3625 70.9616 32.2198 67.197 31.9802C67.0886 31.9656 66.9793 31.9573 66.8709 31.9531C66.848 31.951 66.8261 31.951 66.8032 31.95C66.7876 31.9489 66.773 31.9479 66.7574 31.9479V31.9635H66.7313C64.8188 31.9646 63.0188 32.7073 61.6615 34.0562V34.0573ZM67.1209 43.3385C66.9824 44.426 66.8293 45.0583 66.7147 45.3844C66.6032 45.0531 66.4563 44.4239 66.3261 43.3521C66.1709 42.0781 66.0813 40.5114 66.0855 39.1614C66.0897 37.8114 66.1886 36.2448 66.3522 34.9719C66.4907 33.8844 66.6438 33.2521 66.7584 32.926C66.8699 33.2573 67.0168 33.8864 67.147 34.9583C67.3022 36.2323 67.3918 37.7989 67.3876 39.1489C67.3834 40.4989 67.2845 42.0656 67.1209 43.3385ZM65.9553 33.0604C65.8553 33.4312 65.7616 33.9198 65.6709 34.5604C65.4782 35.9239 65.3605 37.6437 65.3563 39.1583C65.3522 40.6739 65.4595 42.3937 65.6428 43.7583C65.7282 44.3948 65.8199 44.8812 65.9157 45.2521C64.8595 44.2854 63.9282 41.6219 63.9355 39.1531C63.9397 37.7 64.2803 36.0542 64.8459 34.75C65.1772 33.9854 65.5636 33.4062 65.9543 33.0594L65.9553 33.0604ZM67.5168 45.25C67.6168 44.8791 67.7105 44.3906 67.8011 43.75C67.9938 42.3864 68.1115 40.6666 68.1157 39.1521C68.1199 37.6364 68.0126 35.9167 67.8293 34.5521C67.7438 33.9156 67.6522 33.4291 67.5563 33.0583C68.6126 34.025 69.5438 36.6885 69.5365 39.1573C69.5324 40.6104 69.1918 42.2562 68.6261 43.5604C68.2949 44.325 67.9084 44.9052 67.5178 45.251L67.5168 45.25ZM64.6688 33.5073C64.4959 33.7896 64.3313 34.1073 64.1772 34.4614C63.574 35.8521 63.2116 37.6052 63.2063 39.1521C63.2011 40.9437 63.7063 43.2302 64.5897 44.7427C63.1907 43.601 62.0355 41.4854 62.0418 39.1479C62.0459 37.7187 62.5803 36.0969 63.472 34.8094C63.8366 34.2833 64.2407 33.8458 64.6678 33.5073H64.6688ZM68.8032 44.8031C68.9761 44.5208 69.1407 44.2031 69.2949 43.8489C69.898 42.4583 70.2605 40.7052 70.2657 39.1583C70.2709 37.3667 69.7657 35.0802 68.8824 33.5677C70.2813 34.7094 71.4365 36.825 71.4303 39.1625C71.4261 40.5917 70.8918 42.2135 70.0001 43.501C69.6355 44.0281 69.2303 44.4646 68.8043 44.8031H68.8032ZM60.2668 39.1427C60.272 37.4146 60.9501 35.7917 62.1751 34.5739C62.6011 34.15 63.0772 33.7948 63.5886 33.5094C63.3285 33.7861 63.0897 34.0821 62.8741 34.3948C61.9022 35.7989 61.3188 37.576 61.3136 39.1458C61.3084 40.7156 61.8813 42.4958 62.8449 43.9062C63.0699 44.2354 63.3084 44.5323 63.5563 44.7979C63.0459 44.5094 62.572 44.15 62.147 43.7229C60.9282 42.4969 60.2605 40.8708 60.2657 39.1427H60.2668ZM73.2053 39.1823C73.198 41.6114 71.8459 43.7271 69.8574 44.8271C70.1274 44.5428 70.375 44.2381 70.598 43.9156C71.5699 42.5114 72.1532 40.7344 72.1584 39.1646C72.1636 37.5948 71.5907 35.8146 70.6272 34.4042C70.4147 34.0937 70.1918 33.8114 69.9584 33.5573C71.9032 34.6791 73.2126 36.7823 73.2053 39.1833V39.1823ZM73.4782 49.4833C71.9313 48.5948 69.772 48.1135 67.0522 48.05V48.0427C66.9459 48.0427 66.8397 48.0427 66.7355 48.0448C66.6303 48.0437 66.5251 48.0427 66.4188 48.0427V48.05C63.7001 48.1135 61.5397 48.5958 59.9928 49.4833C57.9813 50.6385 56.9605 52.4823 56.9605 54.9635V83.9052C56.9605 84.1062 57.1241 84.2698 57.3251 84.2698H76.1449C76.3459 84.2698 76.5095 84.1062 76.5095 83.9052V54.9635C76.5095 52.4823 75.4897 50.6385 73.4772 49.4833H73.4782ZM73.098 83.5416H71.1438V55.0489C71.1438 52.6302 70.6876 50.8219 69.7897 49.6739C69.6793 49.5333 69.5615 49.4031 69.4386 49.2812C71.8949 50.0604 73.098 51.9666 73.098 55.0489V83.5416ZM62.3282 83.5416H60.3741V55.0489C60.3741 51.9666 61.5782 50.0604 64.0334 49.2812C63.9084 49.4048 63.7912 49.5359 63.6824 49.6739C62.7834 50.8219 62.3282 52.6302 62.3282 55.0489V83.5416ZM63.0574 55.0489C63.0574 51.5916 63.9636 49.6146 65.8168 49.0469C65.272 50.0927 65.0115 52.0656 65.0115 55.0489V83.5416H63.0574V55.0489ZM65.7407 55.0489C65.7407 52.75 65.9011 51.0521 66.2168 50.0042C66.3282 49.6354 66.498 49.2177 66.7365 49.0094C66.9751 49.2177 67.1459 49.6364 67.2563 50.0042C67.572 51.0521 67.7324 52.75 67.7324 55.0489V83.5416H65.7407V55.0489ZM67.6553 49.0479C69.5084 49.6146 70.4147 51.5916 70.4147 55.05V83.5427H68.4605V55.05C68.4605 52.0666 68.2001 50.0948 67.6553 49.0479ZM57.6907 54.9646C57.6907 52.7323 58.5626 51.1469 60.3563 50.1166C60.8907 49.8094 61.5105 49.5552 62.2084 49.3531C62.0834 49.4364 61.9615 49.5219 61.8459 49.6135C60.3855 50.7687 59.6449 52.5979 59.6449 55.05V83.5427H57.6907V54.9656V54.9646ZM75.7813 83.5416H73.8272V55.0489C73.8272 52.5969 73.0865 50.7677 71.6261 49.6125C71.5105 49.5208 71.3886 49.4354 71.2636 49.3521C71.9616 49.5541 72.5813 49.8083 73.1157 50.1156C74.9095 51.1458 75.7813 52.7312 75.7813 54.9635V83.5406V83.5416Z" fill="#0B301A"/>
</svg>
