<svg xmlns="http://www.w3.org/2000/svg" width="100" height="100" fill="none" viewBox="0 0 100 100"><path fill="#0b301a" d="M69.107 41.515v-1.959c0-4.52-2.422-8.972-6.649-12.214L57.75 23.75l-.017-.013c-.955-.697-1.593-1.536-1.8-2.345h1.736a.365.365 0 0 0 .364-.365v-1.883l.005-.03-.004-.073v-2.247s.004-.01.004-.015q0-.023-.002-.047v-2.17c.002-1.568-1.118-2.844-2.495-2.844H44.887c-1.377 0-2.497 1.276-2.497 2.843v6.466c0 .201.163.365.364.365h1.74c-.205.809-.845 1.648-1.8 2.344l-.017.014-4.71 3.593c-4.225 3.241-6.648 7.693-6.648 12.213v1.959c0 1.144.581 2.224 1.682 3.124V68.28c-.985.781-1.569 1.904-1.569 3.039v9.715c0 2.968 1.876 5.063 5.283 5.898l.037.01c1.372.338 4.553.51 9.468.51l.653-.001h.425q.297 0 .605-.002a27 27 0 0 0 .939-.004l.125-.002a.4.4 0 0 0 .068-.008 3 3 0 0 0 .526.009h.022l.006-.002q.04.009.08.009h1.087a.3.3 0 0 0 .08-.01h.03q.116.01.223.009.162 0 .303-.015a.4.4 0 0 0 .067.008q.036 0 .125.002.33.006.635.006.155 0 .304-.002l.606.002h.425l.654.001c4.915 0 8.096-.17 9.468-.51l.038-.01c3.406-.836 5.282-2.931 5.282-5.898V71.32c0-1.135-.583-2.259-1.569-3.039V44.638c1.101-.9 1.682-1.979 1.682-3.123zM43.117 16.78c0-.768.795-1.392 1.769-1.392h10.653c.965 0 1.75.613 1.766 1.37v1.24c-.45-.278-1.07-.448-1.766-.448H44.885c-.696 0-1.32.17-1.767.45zm1.769-4.332h10.653c.975 0 1.767.949 1.767 2.114v.722a2.73 2.73 0 0 0-1.767-.624H44.885c-.69 0-1.315.24-1.767.625v-.722c0-1.165.794-2.114 1.767-2.114zm-1.768 6.668c0-.395.756-.837 1.767-.837H55.54c.99 0 1.734.423 1.765.812v1.572H43.118zm18.64 49.349c0 .093.036.183.1.25.623.65.995 1.623.995 2.606v9.715c0 2.617-1.155 4.464-3.254 5.2l-.027.01c-.452.16-1.414.334-3.437.422 1.107-.964 1.713-2.942 1.713-5.633V71.32c0-1.108-.208-2.173-.573-2.943V44.541l.01-.02c.395-.878.605-1.919.605-3.009v-1.958c0-4.457-.88-8.86-2.414-12.081l-1.724-3.598c-.363-.725-.605-1.616-.679-2.484h.64c.144 1.015.675 2.058 1.483 2.9l.003.004 3.282 3.581c2.83 3.106 4.452 7.363 4.452 11.68v1.958c0 .904-.315 1.767-.914 2.508a.365.365 0 0 0-.262.35v24.093M50.754 86.727h-1.091a.4.4 0 0 0-.082-.01q-.018-.001-.065.004c-.734.042-.95-.165-1.013-.292l-.005-.01c-.173-.346-.576-1.564-.576-5.382v-9.715c0-1.055.07-2.101.188-2.798a.4.4 0 0 0 .005-.06v-24.09a.4.4 0 0 0-.033-.15 19.4 19.4 0 0 1-.173-2.708v-1.959c0-4.387.29-8.712.793-11.866l.578-3.59c.134-.793.221-1.765.247-2.708h1.369c.025.944.113 1.916.246 2.706l.578 3.592c.504 3.154.794 7.479.794 11.866v1.959c0 .98-.06 1.914-.174 2.708a.4.4 0 0 0-.033.15v24.09q0 .03.006.06c.117.696.187 1.742.187 2.798v9.715c0 3.818-.403 5.036-.576 5.382l-.005.01c-.064.127-.28.334-1.013.292l-.065-.003a.4.4 0 0 0-.081.009zM38.406 44.023c-.599-.74-.914-1.604-.914-2.509v-1.958c0-4.315 1.623-8.572 4.45-11.678l3.284-3.582.003-.003c.809-.842 1.339-1.886 1.483-2.901h.64a7 7 0 0 1-.682 2.49l-1.722 3.593c-1.533 3.22-2.413 7.623-2.413 12.081v1.959c0 1.09.21 2.13.606 3.008l.01.019v23.836c-.366.77-.574 1.835-.574 2.943v9.715c0 2.691.605 4.67 1.713 5.633-2.023-.088-2.985-.263-3.437-.422l-.027-.01c-2.099-.737-3.254-2.584-3.254-5.2v-9.715c0-.984.372-1.957.995-2.605a.36.36 0 0 0 .1-.251V44.374a.365.365 0 0 0-.26-.35zm8.971.405a.2.2 0 0 0 .01.046v23.96c-.122.743-.192 1.793-.192 2.888v9.715c0 2.845.22 4.806.642 5.684h-.117c-1.845-.037-2.5-.276-2.731-.433l-.015-.01c-1.06-.711-1.668-2.623-1.668-5.242v-9.715c0-1.021.2-2.028.535-2.695a.4.4 0 0 0 .038-.163v-24.09a.36.36 0 0 0-.13-.28c-.318-.757-.484-1.645-.484-2.579v-1.958c0-4.353.853-8.641 2.341-11.766l1.72-3.586c.412-.822.681-1.832.757-2.811h.717a20 20 0 0 1-.236 2.59l-.578 3.592c-.51 3.19-.804 7.558-.804 11.981v1.959c0 1.056.068 2.063.197 2.912zm4.966-23.035c.076.979.345 1.99.755 2.805l1.72 3.59c1.49 3.125 2.343 7.415 2.343 11.768v1.959c0 .933-.168 1.82-.485 2.579a.36.36 0 0 0-.13.279v24.09q.001.087.038.163c.335.667.535 1.674.535 2.695v9.715c0 2.62-.607 4.53-1.668 5.242l-.014.01c-.23.157-.884.395-2.726.433h-.122c.42-.867.641-2.83.641-5.684v-9.715c0-1.096-.07-2.146-.192-2.889v-23.96l.01-.045c.128-.849.197-1.856.197-2.912v-1.959c0-4.424-.293-8.79-.803-11.982l-.578-3.595a19.5 19.5 0 0 1-.237-2.587zM36.888 86.228c-1.766-.433-4.727-1.684-4.727-5.19v-9.716c0-.959.53-1.917 1.418-2.564a.37.37 0 0 0 .15-.292V44.374a.364.364 0 0 0-.347-.365c-.874-.741-1.335-1.602-1.335-2.493v-1.959c0-4.291 2.319-8.532 6.363-11.634l4.697-3.583.006-.005c1.162-.847 1.924-1.906 2.127-2.942h.734c-.143.83-.59 1.684-1.262 2.386l-.015.015-3.293 3.592c-2.95 3.239-4.641 7.675-4.641 12.17v1.959c0 1.122.406 2.19 1.176 3.085v23.72c-.698.785-1.096 1.87-1.096 3v9.716c0 3.285 1.596 4.823 2.94 5.537-1.529-.095-2.383-.22-2.858-.337l-.038-.009zm29.809-17.763c0 .115.056.224.15.292.889.647 1.419 1.605 1.419 2.564v9.715c0 3.507-2.962 4.758-4.727 5.191l-.039.01c-.473.116-1.325.241-2.847.336a5.3 5.3 0 0 0 1.29-.966c1.088-1.112 1.64-2.65 1.64-4.57V71.32c0-1.13-.398-2.215-1.096-3.001V44.6c.77-.897 1.176-1.964 1.176-3.086v-1.958c0-4.495-1.692-8.931-4.643-12.17l-3.292-3.592-.014-.015c-.672-.703-1.12-1.556-1.263-2.386h.734c.204 1.036.966 2.095 2.129 2.942l.004.003 4.698 3.584c4.044 3.103 6.362 7.344 6.362 11.635v1.959c0 .891-.461 1.752-1.335 2.493a.365.365 0 0 0-.347.365v24.092z"/></svg>