<svg xmlns="http://www.w3.org/2000/svg" width="100" height="100" fill="none" viewBox="0 0 100 100"><path fill="#0b301a" d="M68.3 31.2a.365.365 0 0 0 .212-.594l-.002-.002c-.733-1.812-2.684-4.941-5.819-7.892-3.333-3.14-8.74-6.728-15.558-6.004-2.375.252-5.686 2.044-8.436 4.565-3.976 3.644-5.143 7.06-5.471 9.016-3.012 1.433-6.457 3.957-9.045 8.64a.365.365 0 0 0 .639.352c2.412-4.366 5.606-6.79 8.449-8.199l.384.656c1.464 2.51 2.977 5.108 5.413 6.904 1.839 1.357 3.982 2.091 6.026 2.091q.571 0 1.13-.077c2.323-.324 4.164-1.6 5.947-2.833q.264-.184.53-.366a46.4 46.4 0 0 1 6.534-3.761c2.813-1.318 5.945-1.907 8.974-2.476l.096-.018zm-6.77-4.276-.032-.013-.13-.041a16 16 0 0 0-.753-.225c-2.595-.684-4.946-.975-7.188-.892-1.736.065-3.58.372-5.53.696l-.817.135c-.285.048-.599.109-1.017.196a196 196 0 0 0-7.517 1.715c-.935.226-2.264.548-3.786 1.133.938-1.005 2.424-1.999 4.447-2.967 2.195-1.05 4.748-1.946 7.003-2.458.373-.084.698-.147.993-.19 2.58-.371 4.626-.464 6.44-.293 2.285.215 4.603.875 7.09 2.015.266.123.527.258.78.388l.047.025c1.43.868 2.66 1.79 3.7 2.636-1.087-.607-2.343-1.274-3.73-1.863zm3.43 2.53c-1.161-.384-2.452-.799-3.84-1.123l-.038-.007-.127-.016c-.248-.03-.504-.063-.766-.082-2.59-.19-4.897-.094-7.048.293-.944.17-1.886.4-2.883.644-1.016.247-2.065.505-3.195.715q-.249.047-.51.1l-.474.092c-2.151.413-4.681.67-6.94.706-2.005.031-3.523-.127-4.645-.249 1.705-.71 3.207-1.074 4.226-1.32q.253-.061.467-.115c1.928-.484 4.425-1.05 7.029-1.596.408-.086.712-.145.986-.19q.414-.07.817-.136c2.011-.335 3.75-.624 5.438-.687 2.169-.08 4.45.203 6.975.868.242.064.483.14.717.215l.114.036c1.372.583 2.62 1.249 3.7 1.853zM38.624 31.51q.256.001.524-.004c2.3-.035 4.876-.298 7.066-.719q.243-.046.477-.092.26-.052.506-.098c1.148-.214 2.207-.473 3.232-.724.986-.24 1.918-.469 2.838-.634 2.092-.377 4.338-.47 6.867-.284.243.018.49.05.728.08l.11.013c1.274.298 2.472.677 3.56 1.035-1.226-.15-2.494-.29-3.836-.332h-.034l-.053.003c-.277.017-.563.033-.85.066-2.532.283-4.791.765-6.91 1.472a58 58 0 0 0-1.666.593c-1.3.478-2.645.972-4.14 1.286a18.01 18.01 0 0 1-7.775.018 13.1 13.1 0 0 1-4.42-1.89c.982.103 2.223.21 3.774.21zm23.304-5.988-.022-.013-.06-.03c-.26-.134-.528-.273-.81-.403-2.562-1.176-4.958-1.856-7.325-2.08-1.874-.176-3.975-.082-6.614.298-.315.046-.658.111-1.05.2-2.305.525-4.915 1.44-7.156 2.513-1.662.795-2.987 1.619-3.967 2.465.934-1.463 2.394-2.915 4.286-4.24 2.218-1.553 4.834-2.793 6.996-3.316.352-.087.689-.151.998-.19 2.346-.292 4.577-.215 6.632.231 2.388.518 4.813 1.582 7.206 3.164.291.191.57.39.827.578a30 30 0 0 1 3.586 3.312 33 33 0 0 0-3.53-2.488zm-22.82 8.378c1.273.288 2.656.435 4.03.434 1.05 0 2.094-.085 3.08-.257.295-.052.606-.112.977-.192 1.547-.324 2.916-.828 4.241-1.314a57 57 0 0 1 1.646-.587c2.069-.69 4.28-1.161 6.758-1.44.27-.03.546-.046.813-.062l.036-.002a38 38 0 0 1 3.264.268c-1.212.087-2.443.21-3.686.436q-.009.001-.018.005c-.288.068-.598.144-.914.236a40.4 40.4 0 0 0-6.77 2.648 76 76 0 0 0-.976.5c-1.423.737-2.895 1.5-4.565 1.893-.319.076-.62.135-.919.182-2.181.343-4.63-.032-6.714-1.03-1.712-.817-2.995-1.98-4.042-3.156 1.02.575 2.24 1.094 3.757 1.438zm.081-12.089c2.643-2.421 5.792-4.14 8.021-4.377 6.544-.695 11.759 2.775 14.981 5.81.885.832 2.22 2.25 3.422 3.866a30 30 0 0 0-3.3-2.992l-.009-.008a24 24 0 0 0-.857-.599c-2.47-1.63-4.977-2.73-7.455-3.267-2.135-.463-4.448-.545-6.876-.243a10 10 0 0 0-1.08.205c-2.247.544-4.954 1.825-7.242 3.427-1.485 1.04-2.717 2.162-3.658 3.314.79-1.533 2.048-3.3 4.053-5.136m19.734 11.224a47 47 0 0 0-6.637 3.821l-.533.368c-1.79 1.24-3.481 2.411-5.632 2.711-2.178.305-4.593-.38-6.623-1.879-1.438-1.06-2.551-2.438-3.53-3.917a12.5 12.5 0 0 0 3.11 2.136 12.7 12.7 0 0 0 5.406 1.224 11.2 11.2 0 0 0 2.709-.325c1.757-.413 3.27-1.197 4.733-1.955a39.595 39.595 0 0 1 7.615-3.095c.296-.087.592-.16.867-.225.93-.169 1.86-.28 2.782-.36-1.458.38-2.894.853-4.267 1.496m-7.748 49.694c-4.981.266-8.728-1.161-11.428-2.827l.354-.674c1.355-2.57 2.756-5.23 2.99-8.246.21-2.704-.547-5.305-2.08-7.137-1.504-1.8-3.562-2.687-5.552-3.545l-.59-.256a46.6 46.6 0 0 1-6.651-3.551c-2.609-1.69-4.767-4.036-6.854-6.304l-.063-.07a.363.363 0 0 0-.616.135v.003c-1.15 1.581-2.773 4.894-3.615 9.115-.898 4.49-1.083 10.976 3.142 16.377 1.471 1.881 4.744 3.743 8.339 4.74 2.09.58 3.907.795 5.454.795 2.298 0 3.995-.474 5.09-.926 2.59 1.656 6.16 3.133 10.885 3.133q.605.001 1.234-.034a.364.364 0 1 0-.038-.728zM22.669 57.73l.014.036.055.12c.105.225.213.459.335.69 1.211 2.299 2.513 4.204 3.98 5.825.644.711 1.337 1.388 2.073 2.105.748.73 1.522 1.485 2.298 2.331l.353.38q.163.172.33.354a42 42 0 0 1 4.274 5.514c1.088 1.685 1.757 3.056 2.248 4.073-1.505-1.07-2.61-2.153-3.358-2.886l-.345-.337a195 195 0 0 1-5.075-5.117c-.29-.302-.501-.53-.684-.737l-.547-.62c-1.35-1.53-2.515-2.852-3.463-4.252-1.216-1.797-2.183-3.882-2.956-6.377-.074-.24-.138-.486-.198-.725l-.03-.112c-.23-1.472-.326-2.884-.386-4.119.289 1.188.621 2.503 1.08 3.853zm16.424 20.717a35 35 0 0 0-2.1-3.756 43 43 0 0 0-4.352-5.615q-.167-.181-.332-.356l-.35-.375c-.788-.86-1.57-1.622-2.325-2.359-.727-.709-1.413-1.379-2.041-2.072-1.427-1.575-2.694-3.432-3.876-5.675-.113-.215-.217-.44-.317-.657l-.048-.103c-.42-1.238-.735-2.455-1.006-3.569.521 1.12 1.074 2.27 1.749 3.43l.017.029.034.047c.159.225.325.457.504.683 1.58 1.997 3.185 3.66 4.906 5.081.451.373.905.726 1.386 1.1 1.094.85 2.225 1.728 3.283 2.831a17.996 17.996 0 0 1 4.13 6.587c.634 1.824.773 3.395.736 4.75zm-18.23-24.471c.06 1.244.159 2.663.393 4.151l.007.033.033.129c.063.247.128.503.208.76.795 2.564 1.792 4.713 3.049 6.57.974 1.437 2.21 2.84 3.519 4.324l.547.62c.19.216.408.45.704.759a194 194 0 0 0 5.094 5.137q.158.152.341.333c.687.672 1.663 1.629 2.963 2.609-1.348-.264-2.977-.998-4.87-2.2-2.052-1.306-4.164-2.997-5.793-4.64a13 13 0 0 1-.686-.741c-1.68-1.992-2.843-3.68-3.659-5.31-1.026-2.052-1.694-4.367-2.042-7.08a19 19 0 0 1-.085-.867l-.004-.054c-.022-1.673.11-3.204.278-4.534zm18.95 23.43a13.7 13.7 0 0 0-.77-3.949 18.7 18.7 0 0 0-3.613-6.125c-.198-.22-.414-.452-.68-.727-1.094-1.14-2.246-2.036-3.36-2.902-.477-.37-.927-.72-1.37-1.085-1.68-1.39-3.25-3.016-4.798-4.972a17 17 0 0 1-.482-.653l-.023-.034a38 38 0 0 1-1.5-2.91c.714.982 1.47 1.962 2.32 2.896q.006.008.014.013c.21.209.44.431.684.65a40.5 40.5 0 0 0 5.831 4.343c.312.19.632.38.941.563 1.38.816 2.806 1.66 4.023 2.87.233.23.443.455.642.684 1.446 1.67 2.423 3.943 2.681 6.24.212 1.886-.095 3.59-.538 5.1zM19.855 58.532l.001.025.005.067c.024.292.048.593.088.901.358 2.795 1.05 5.188 2.113 7.313.842 1.684 2.035 3.416 3.755 5.455.205.241.442.499.726.783 1.664 1.68 3.823 3.407 5.92 4.742 1.554.99 2.954 1.676 4.191 2.06-1.735-.018-3.74-.487-5.868-1.393-2.491-1.059-4.927-2.621-6.517-4.179a9 9 0 0 1-.69-.746c-1.49-1.835-2.604-3.768-3.315-5.749-.825-2.3-1.206-4.92-1.13-7.788.008-.348.03-.69.051-1.007a30 30 0 0 1 .912-4.796 33 33 0 0 0-.243 4.311zm14.72 2.18.595.257c2 .862 3.888 1.676 5.28 3.342 1.411 1.688 2.11 4.098 1.913 6.614-.138 1.781-.718 3.456-1.454 5.07.222-1.159.319-2.416.166-3.771-.274-2.44-1.315-4.858-2.855-6.636-.21-.243-.434-.48-.68-.724-1.28-1.273-2.746-2.141-4.164-2.98-.307-.183-.625-.37-.932-.558a39.7 39.7 0 0 1-5.725-4.264 17 17 0 0 1-.65-.617c-.637-.7-1.222-1.43-1.778-2.17 1.094 1.035 2.256 2.004 3.529 2.83a47 47 0 0 0 6.755 3.606m-5.83 19.074c-3.454-.959-6.578-2.72-7.959-4.487-4.054-5.183-3.87-11.445-3.003-15.786.238-1.19.734-3.075 1.469-4.95a30 30 0 0 0-.792 4.384v.012c-.023.328-.044.682-.054 1.045-.076 2.959.319 5.668 1.174 8.053.738 2.058 1.894 4.063 3.436 5.963.215.264.466.536.745.807 1.65 1.617 4.171 3.236 6.742 4.33 1.668.709 3.272 1.16 4.748 1.348-1.718.142-3.883.008-6.503-.719zm53.423-19.808c-1.54-5.169-4.103-7.711-5.717-8.861.027-3.336-.737-7.538-3.818-11.912a.365.365 0 0 0-.597.42c2.872 4.08 3.656 8.01 3.68 11.183l-.758.059c-2.898.218-5.895.444-8.575 1.85-2.402 1.259-4.202 3.284-4.94 5.556-.723 2.23-.382 4.445-.05 6.586l.097.638c.385 2.563.562 5.094.527 7.52-.043 3.107-.883 6.182-1.695 9.156l-.025.092a.36.36 0 0 0 .091.35.37.37 0 0 0 .322.104h.004l.024-.004h.004q.349.022.77.023c2.06 0 5.329-.46 8.871-1.807 4.28-1.626 9.872-4.918 12.2-11.368.812-2.246.648-6.008-.418-9.584zm-17.572 6.88a92 92 0 0 0-.024-1.096c-.042-1.603-.085-3.26.292-4.934.071-.319.15-.616.238-.906.645-2.112 2.052-4.15 3.86-5.589 1.485-1.182 3.091-1.828 4.605-2.255a13.8 13.8 0 0 0-2.935 2.751 18.7 18.7 0 0 0-3.267 6.317c-.082.286-.163.593-.254.962-.384 1.533-.53 2.985-.672 4.389-.06.6-.117 1.168-.191 1.737-.284 2.163-.826 4.357-1.66 6.709-.09.255-.197.511-.3.76l-.013.031a38 38 0 0 1-1.667 2.818c.451-1.127.88-2.289 1.219-3.505l.004-.019c.065-.288.131-.6.186-.925.415-2.445.609-4.883.579-7.247zm8.173-10.947a43 43 0 0 0-2.443 6.671l-.123.463-.134.504c-.31 1.125-.54 2.192-.763 3.223-.215.993-.417 1.929-.67 2.831-.577 2.045-1.476 4.106-2.748 6.3-.123.212-.259.42-.39.623l-.059.09c-.825 1.014-1.688 1.927-2.487 2.75.67-1.038 1.351-2.116 1.976-3.306l.014-.03.02-.048c.105-.256.216-.522.313-.794.85-2.4 1.406-4.644 1.696-6.858.076-.58.133-1.153.194-1.76.139-1.377.283-2.802.654-4.285a17.981 17.981 0 0 1 3.383-6.999 13.1 13.1 0 0 1 3.631-3.15 35 35 0 0 0-2.065 3.776m2.915-3.76c-.106 1.844-.435 3.354-.66 4.378l-.1.471a197 197 0 0 1-1.637 7.019 26 26 0 0 1-.26.97l-.234.792c-.579 1.957-1.079 3.647-1.76 5.194-.876 1.985-2.128 3.913-3.83 5.894-.165.19-.34.376-.51.554l-.08.083c-1.124.978-2.267 1.81-3.282 2.517.853-.876 1.79-1.856 2.689-2.963l.023-.03.067-.105c.138-.21.28-.428.412-.656 1.303-2.248 2.225-4.364 2.817-6.468.26-.923.465-1.87.682-2.875.22-1.022.448-2.078.753-3.185q.067-.25.135-.51l.122-.46a42 42 0 0 1 2.399-6.551c.848-1.817 1.653-3.113 2.255-4.069m-8.579 25.894.025-.024.09-.095c.177-.185.359-.377.535-.582 1.75-2.037 3.04-4.024 3.944-6.076.7-1.59 1.23-3.383 1.791-5.282q.117-.389.235-.791c.081-.276.163-.586.268-1a196 196 0 0 0 1.743-7.512c.206-.94.496-2.276.636-3.899.495 1.283.737 3.055.724 5.296-.015 2.434-.324 5.121-.85 7.374-.087.372-.173.69-.263.976-.794 2.482-1.605 4.364-2.552 5.921-1.193 1.96-2.799 3.757-4.911 5.494-.226.185-.46.36-.688.53l-.046.034a33 33 0 0 1-3.988 2.175c1.02-.712 2.17-1.55 3.306-2.54zm1.089.97.02-.014.056-.042c.233-.174.475-.355.714-.55 2.177-1.79 3.836-3.648 5.071-5.679.978-1.608 1.811-3.54 2.624-6.079.096-.304.188-.64.278-1.031.538-2.303.854-5.05.869-7.536.011-1.841-.151-3.393-.482-4.644.907 1.479 1.575 3.427 1.94 5.709.426 2.674.398 5.568-.076 7.742a9 9 0 0 1-.266.98c-.762 2.236-1.808 4.21-3.107 5.863-1.51 1.922-3.526 3.637-5.994 5.1-.302.177-.602.34-.882.49a30 30 0 0 1-4.547 1.778 33 33 0 0 0 3.782-2.086m-6.055-20.517c.68-2.092 2.35-3.964 4.586-5.135 1.582-.83 3.31-1.23 5.068-1.464a12.5 12.5 0 0 0-3.283 1.864c-1.92 1.53-3.415 3.697-4.103 5.946-.095.309-.177.623-.252.96-.397 1.761-.353 3.464-.31 5.112.009.356.018.725.023 1.086.03 2.32-.162 4.713-.568 7.115a18 18 0 0 1-.177.88c-.254.91-.562 1.794-.892 2.659.295-1.478.498-2.977.52-4.493a47 47 0 0 0-.535-7.64q-.049-.32-.099-.64c-.332-2.152-.646-4.185.025-6.25zM81.9 69.314c-2.234 6.19-7.635 9.362-11.773 10.934a31 31 0 0 1-4.966 1.385 30 30 0 0 0 4.127-1.657l.01-.005c.29-.154.6-.323.915-.51 2.547-1.508 4.632-3.283 6.197-5.276 1.35-1.718 2.435-3.763 3.224-6.079.11-.323.206-.68.288-1.061.491-2.258.523-5.252.082-8.012-.285-1.79-.756-3.387-1.381-4.737 1.032 1.379 2.072 3.284 2.848 5.89 1.024 3.435 1.192 7.018.43 9.127"/></svg>