<svg width="100" height="100" viewBox="0 0 100 100" fill="none" xmlns="http://www.w3.org/2000/svg">
<path d="M68.3009 31.2C68.3636 31.1882 68.422 31.1601 68.4705 31.1186C68.5189 31.0771 68.5556 31.0236 68.5769 30.9635C68.5983 30.9035 68.6036 30.839 68.5923 30.7763C68.5809 30.7136 68.5534 30.655 68.5123 30.6062L68.5103 30.6042C67.7769 28.7917 65.8259 25.6625 62.6915 22.7125C59.3582 19.5729 53.9519 15.9844 47.1332 16.7083C44.7582 16.9604 41.4467 18.7521 38.6967 21.2729C34.7207 24.9167 33.554 28.3333 33.2259 30.2885C30.2144 31.7219 26.7686 34.2458 24.1811 38.9281C24.1345 39.0128 24.1233 39.1126 24.1501 39.2055C24.1768 39.2984 24.2393 39.377 24.3238 39.4239C24.38 39.4552 24.4405 39.4698 24.4998 39.4698C24.628 39.4698 24.753 39.4021 24.8196 39.2812C27.2321 34.9146 30.4259 32.4917 33.2686 31.0823L33.653 31.7385C35.1165 34.2489 36.63 36.8458 39.0655 38.6417C40.905 39.9989 43.0478 40.7333 45.0915 40.7333C45.4728 40.7333 45.8498 40.7073 46.2217 40.6562C48.5446 40.3323 50.3863 39.0562 52.1686 37.8229C52.3446 37.701 52.5217 37.5781 52.6988 37.4573C54.8363 35.9906 57.0353 34.725 59.2332 33.6958C62.0457 32.3781 65.178 31.7885 68.2071 31.2198L68.303 31.2021L68.3009 31.2ZM61.53 26.9239C61.5196 26.9198 61.5082 26.9156 61.4978 26.9114L61.3675 26.8698C61.1259 26.7927 60.8748 26.7135 60.6155 26.6448C58.0196 25.9614 55.6686 25.6698 53.4269 25.7531C51.6915 25.8177 49.8478 26.125 47.8967 26.4489C47.629 26.4937 47.3571 26.5385 47.08 26.5844C46.7946 26.6323 46.4811 26.6927 46.0634 26.7802C43.4509 27.3281 40.9446 27.8969 39.0071 28.3823C38.8655 28.4177 38.7113 28.4552 38.5457 28.4948C37.6113 28.7208 36.2821 29.0427 34.7603 29.6281C35.6978 28.6229 37.1842 27.6292 39.2071 26.6614C41.4019 25.6114 43.955 24.7146 46.2103 24.2031C46.5832 24.1187 46.9082 24.0562 47.203 24.0125C49.7821 23.6417 51.829 23.5489 53.6436 23.7198C55.928 23.9354 58.2457 24.5948 60.7321 25.7354C60.9988 25.8583 61.2603 25.9927 61.5123 26.1229L61.5603 26.1479C62.9905 27.0156 64.2196 27.9385 65.2603 28.7844C64.1728 28.1771 62.9175 27.5104 61.53 26.9208V26.9239ZM64.9603 29.4542C63.7988 29.0698 62.5082 28.6552 61.1196 28.3312C61.1072 28.3283 61.0947 28.3259 61.0821 28.3239L60.955 28.3083C60.7071 28.2771 60.4509 28.2448 60.1894 28.226C57.5988 28.0364 55.2925 28.1323 53.1405 28.5187C52.1967 28.6885 51.255 28.9187 50.2582 29.1625C49.2425 29.4104 48.1925 29.6677 47.0634 29.8781C46.8967 29.9094 46.7269 29.9427 46.553 29.9771C46.3978 30.0073 46.2394 30.0385 46.079 30.0698C43.928 30.4833 41.3978 30.7406 39.1384 30.776C37.1342 30.8073 35.6165 30.6489 34.4936 30.5271C36.1988 29.8167 37.7009 29.4531 38.7196 29.2062C38.8884 29.1656 39.0446 29.1281 39.1873 29.0917C41.1155 28.6083 43.6123 28.0417 46.2155 27.4958C46.6238 27.4104 46.928 27.351 47.2019 27.3052C47.478 27.2594 47.7498 27.2146 48.0186 27.1698C50.03 26.8354 51.7686 26.5458 53.4571 26.4833C55.6259 26.4031 57.9071 26.6864 60.4321 27.351C60.6738 27.4146 60.9155 27.4917 61.1488 27.5656L61.2634 27.6021C62.6353 28.1854 63.8832 28.851 64.9623 29.4552L64.9603 29.4542ZM38.6238 31.5094C38.7946 31.5094 38.9696 31.5083 39.1478 31.5052C41.4478 31.4698 44.0238 31.2073 46.2144 30.7864C46.3759 30.7552 46.5353 30.7239 46.6915 30.6937C46.8644 30.6594 47.0332 30.6271 47.1967 30.5958C48.3446 30.3823 49.404 30.1229 50.429 29.8719C51.4155 29.6312 52.3467 29.4031 53.2675 29.2375C55.3592 28.8614 57.605 28.7687 60.1342 28.9542C60.3769 28.9719 60.6238 29.0031 60.8623 29.0333L60.9717 29.0469C62.2457 29.3448 63.4436 29.7239 64.5321 30.0823C63.3061 29.9323 62.0384 29.7927 60.6957 29.75H60.6623L60.6092 29.7531C60.3321 29.7698 60.0457 29.7864 59.7582 29.8187C57.2269 30.1021 54.9675 30.5844 52.8498 31.2906C52.2946 31.476 51.755 31.6739 51.1832 31.8844C49.8832 32.3625 48.5384 32.8562 47.0425 33.1698C46.68 33.2479 46.3769 33.3073 46.0905 33.3573C43.9092 33.7385 41.4228 33.676 39.2675 33.1875C37.3842 32.7594 35.979 32.0458 34.8478 31.2979C35.83 31.401 37.0707 31.5083 38.6217 31.5083L38.6238 31.5094ZM61.928 25.5208L61.9061 25.5083L61.8467 25.4781C61.5863 25.3437 61.3175 25.2052 61.0353 25.075C58.4738 23.8989 56.078 23.2187 53.7113 22.9958C51.8373 22.8187 49.7363 22.9135 47.0967 23.2927C46.7821 23.3385 46.4394 23.4042 46.0478 23.4937C43.7415 24.0177 41.1321 24.9333 38.8905 26.0062C37.229 26.801 35.904 27.625 34.9238 28.4708C35.8582 27.0083 37.3175 25.5562 39.2103 24.2312C41.428 22.6781 44.0436 21.4385 46.2061 20.9146C46.5582 20.8281 46.8946 20.7635 47.204 20.725C49.5498 20.4333 51.7811 20.5104 53.8363 20.9562C56.2238 21.4739 58.6488 22.5375 61.0425 24.1198C61.3332 24.3114 61.6113 24.5104 61.8686 24.6979C63.1238 25.675 64.3332 26.7927 65.455 28.0104C64.4498 27.2052 63.278 26.3406 61.9248 25.5219L61.928 25.5208ZM39.1082 33.8989C40.3811 34.1875 41.7644 34.3344 43.1373 34.3333C44.1873 34.3333 45.2321 34.2479 46.2175 34.076C46.5134 34.0239 46.8238 33.9635 47.1946 33.8844C48.7415 33.5604 50.1113 33.0562 51.4363 32.5698C52.003 32.3614 52.5384 32.1646 53.0821 31.9833C55.1509 31.2927 57.3613 30.8219 59.8405 30.5437C60.1092 30.5135 60.3863 30.4969 60.653 30.4812L60.6894 30.4792C61.8186 30.5156 62.9009 30.6229 63.953 30.7469C62.7415 30.8344 61.5103 30.9562 60.2675 31.1833C60.2613 31.1844 60.255 31.1854 60.2488 31.1875C59.9613 31.2562 59.6509 31.3323 59.3353 31.4239C56.9561 32.1198 54.678 33.0104 52.5644 34.0719C52.2384 34.2354 51.9082 34.4062 51.5894 34.5719C50.1655 35.3094 48.6936 36.0729 47.0238 36.4646C46.705 36.5406 46.404 36.6 46.105 36.6469C43.9238 36.9896 41.4759 36.6146 39.3905 35.6177C37.679 34.8 36.3957 33.6364 35.3488 32.4614C36.3696 33.0364 37.5894 33.5552 39.1061 33.8989H39.1082ZM39.1894 21.8104C41.8321 19.3885 44.9811 17.6698 47.2103 17.4333C53.754 16.7385 58.9686 20.2083 62.1915 23.2427C63.0759 24.075 64.4113 25.4937 65.6134 27.1094C64.5707 26.0167 63.4613 25.0094 62.3134 24.1167C62.3103 24.1146 62.3071 24.1114 62.304 24.1094C62.0384 23.9167 61.7498 23.7104 61.4467 23.5104C58.9769 21.8792 56.4696 20.7802 53.9925 20.2427C51.8571 19.7802 49.5436 19.6979 47.1155 20C46.778 20.0427 46.4134 20.1114 46.0353 20.2052C43.7894 20.7489 41.0821 22.0302 38.7936 23.6323C37.3092 24.6719 36.0769 25.7937 35.1363 26.9458C35.9259 25.4135 37.1842 23.6469 39.1894 21.8104ZM58.9228 33.0344C56.6894 34.0802 54.4561 35.3667 52.2863 36.8552C52.1081 36.9772 51.9303 37.0997 51.753 37.2229C49.9623 38.4635 48.2717 39.6344 46.1207 39.9344C43.9425 40.2385 41.528 39.5531 39.4978 38.0552C38.0603 36.9948 36.9467 35.6167 35.9675 34.1375C36.8332 34.9385 37.8478 35.6864 39.078 36.2739C40.754 37.075 42.653 37.4979 44.4842 37.4979C45.0728 37.4979 45.655 37.4542 46.2196 37.3656C46.5384 37.3156 46.8561 37.2521 47.1925 37.1729C48.9498 36.7604 50.4634 35.976 51.9259 35.2177C52.2425 35.0531 52.5696 34.8833 52.8925 34.7219C54.9665 33.6802 57.203 32.8062 59.5405 32.1229C59.8373 32.0364 60.1332 31.9635 60.4082 31.8979C61.3384 31.7292 62.2686 31.6187 63.1905 31.5375C61.7321 31.9187 60.2957 32.3906 58.9228 33.0344ZM51.1748 82.7281C46.1936 82.9937 42.4467 81.5667 39.7467 79.901C39.8644 79.6771 39.9821 79.4521 40.1009 79.2271C41.4561 76.6562 42.8571 73.9979 43.0915 70.9812C43.3019 68.2771 42.5436 65.676 41.0113 63.8437C39.5071 62.0448 37.4488 61.1573 35.4592 60.2989C35.2623 60.2135 35.0655 60.1292 34.8686 60.0427C32.4925 59.0052 30.255 57.8104 28.2175 56.4917C25.6092 54.8021 23.4509 52.4562 21.3644 50.1875L21.3009 50.1177C21.2578 50.0706 21.203 50.0357 21.1421 50.0165C21.0812 49.9973 21.0163 49.9945 20.954 50.0083C20.8269 50.0364 20.7248 50.1292 20.6853 50.2531V50.2562C19.5353 51.8375 17.9123 55.15 17.0696 59.3708C16.1717 63.8604 15.9873 70.3469 20.2123 75.7479C21.6832 77.6292 24.9561 79.4906 28.5509 80.4885C30.6405 81.0687 32.4582 81.2833 34.005 81.2833C36.303 81.2833 37.9998 80.8094 39.0957 80.3573C41.6853 82.0125 45.255 83.4896 49.98 83.4896C50.3832 83.4896 50.7946 83.4792 51.2144 83.4562C51.311 83.4511 51.4015 83.4079 51.4662 83.336C51.5309 83.2641 51.5643 83.1695 51.5592 83.0729C51.5488 82.8719 51.378 82.7208 51.1759 82.7281H51.1748ZM22.6686 57.7292C22.6727 57.7417 22.6769 57.7531 22.6832 57.7646L22.7384 57.8844C22.8425 58.1104 22.9509 58.3437 23.0728 58.575C24.2842 60.8739 25.5863 62.7792 27.053 64.4C27.6967 65.1114 28.3905 65.7885 29.1259 66.5052C29.8738 67.2354 30.6478 67.9896 31.4238 68.8364C31.5384 68.9604 31.6571 69.0864 31.7769 69.2156C31.8853 69.3312 31.9957 69.4489 32.1071 69.5698C33.5967 71.176 35.154 73.1854 36.3811 75.0844C37.4686 76.7687 38.1384 78.1396 38.629 79.1573C37.1238 78.0864 36.0196 77.0042 35.2707 76.2708C35.1467 76.15 35.0321 76.0375 34.9259 75.9344C33.4957 74.5552 31.6936 72.7375 29.8509 70.8167C29.5613 70.5146 29.3498 70.2875 29.1665 70.0802C28.9821 69.8698 28.7998 69.6635 28.6196 69.4594C27.2707 67.9292 26.105 66.6083 25.1571 65.2083C23.9405 63.4114 22.9738 61.326 22.2009 58.8312C22.1269 58.5917 22.0634 58.3448 22.003 58.1062L21.9738 57.9937C21.7425 56.5219 21.6467 55.1104 21.5873 53.875C21.8759 55.0635 22.2082 56.3781 22.6675 57.7281L22.6686 57.7292ZM39.0925 78.4458C38.6123 77.4604 37.9686 76.201 36.9925 74.6896C35.7446 72.7573 34.1582 70.7104 32.6415 69.075C32.529 68.9542 32.4186 68.8354 32.3092 68.7187C32.1894 68.5906 32.0717 68.4656 31.9592 68.3437C31.1707 67.4833 30.3894 66.7219 29.6342 65.9854C28.9071 65.276 28.2207 64.6062 27.5925 63.9125C26.1665 62.3375 24.8988 60.4812 23.7165 58.2375C23.604 58.0229 23.4998 57.7979 23.3998 57.5812L23.3519 57.4781C22.9311 56.2396 22.6175 55.0229 22.3457 53.9094C22.8675 55.0292 23.4196 56.1781 24.0946 57.3396C24.0998 57.3489 24.1061 57.3583 24.1123 57.3677L24.1457 57.4146C24.305 57.6396 24.4707 57.8719 24.6498 58.0979C26.23 60.0948 27.8352 61.7573 29.5561 63.1792C30.0071 63.5521 30.4613 63.9052 30.9425 64.2781C32.0363 65.1281 33.1675 66.0073 34.2248 67.1104C34.4853 67.3802 34.6957 67.6052 34.8873 67.8187C36.3655 69.4677 37.629 71.6094 38.355 73.6969C38.9894 75.5208 39.128 77.0917 39.0915 78.4469L39.0925 78.4458ZM20.8623 53.975C20.9228 55.2187 21.0217 56.6375 21.2561 58.126C21.2582 58.1375 21.2603 58.1489 21.2634 58.1594L21.2957 58.2875C21.3592 58.5354 21.4238 58.7906 21.504 59.0479C22.2988 61.6125 23.2957 63.7614 24.553 65.6177C25.5269 67.0552 26.7634 68.4573 28.0717 69.9417C28.2509 70.1458 28.4332 70.3521 28.6186 70.5625C28.8092 70.7781 29.0269 71.0114 29.3228 71.3208C31.1717 73.2479 32.98 75.0729 34.4175 76.4583C34.5228 76.5594 34.6353 76.6708 34.7582 76.7906C35.4446 77.4635 36.4207 78.4198 37.7207 79.4C36.3728 79.1364 34.7436 78.4021 32.8519 77.2C30.7988 75.8937 28.6873 74.2031 27.0582 72.5604C26.7894 72.2885 26.5644 72.0458 26.3717 71.8187C24.6915 69.8271 23.529 68.1396 22.7134 66.5094C21.6873 64.4573 21.0186 62.1417 20.6707 59.4292C20.6332 59.1375 20.6092 58.8448 20.5863 58.5625L20.5821 58.5083C20.5603 56.8354 20.6925 55.3042 20.8602 53.9739L20.8623 53.975ZM39.8134 77.4052C39.7613 76.2344 39.555 74.925 39.0436 73.4562C38.2873 71.2812 36.9707 69.0489 35.43 67.3312C35.2321 67.1104 35.0155 66.8792 34.7498 66.6042C33.6561 65.4635 32.504 64.5677 31.3894 63.7021C30.9134 63.3312 30.4634 62.9823 30.0207 62.6167C28.3394 61.2271 26.7696 59.601 25.2217 57.6448C25.055 57.4333 24.8946 57.2083 24.7405 56.9917L24.7165 56.9583C24.1498 55.9812 23.6675 55.0062 23.2165 54.0489C23.9311 55.0302 24.6873 56.0104 25.5373 56.9437C25.5413 56.9488 25.5459 56.9533 25.5509 56.9573C25.7613 57.1656 25.9905 57.3885 26.2353 57.6073C28.0863 59.2573 30.0478 60.7187 32.0665 61.95C32.378 62.1406 32.6978 62.3292 33.0071 62.5125C34.3863 63.3292 35.8134 64.1739 37.03 65.3833C37.2634 65.6135 37.4728 65.8375 37.6717 66.0667C39.1175 67.7364 40.0946 70.0104 40.353 72.3073C40.5655 74.1927 40.2582 75.8979 39.8155 77.4073L39.8134 77.4052ZM19.855 58.5323C19.855 58.5406 19.855 58.5489 19.8561 58.5573L19.8613 58.6239C19.8853 58.9156 19.9092 59.2167 19.9488 59.525C20.3071 62.3198 20.9988 64.7125 22.0623 66.8385C22.904 68.5219 24.0967 70.2542 25.8165 72.2927C26.0217 72.5344 26.2592 72.7917 26.5425 73.076C28.2071 74.7552 30.3655 76.4833 32.4623 77.8177C34.0175 78.8073 35.4175 79.4937 36.654 79.8781C34.9186 79.8604 32.9134 79.3906 30.7863 78.4854C28.2946 77.426 25.8592 75.8635 24.2686 74.3062C24.0092 74.0542 23.7769 73.8031 23.579 73.5604C22.0894 71.725 20.9748 69.7917 20.2644 67.8114C19.4394 65.5114 19.0582 62.8906 19.1332 60.0229C19.1425 59.675 19.1634 59.3333 19.1853 59.0156C19.3488 57.4333 19.6582 55.8167 20.0967 54.2198C19.9457 55.4989 19.8332 56.95 19.854 58.5312L19.855 58.5323ZM34.5759 60.7114C34.7738 60.7979 34.9717 60.8833 35.1696 60.9687C37.1696 61.8312 39.0582 62.6448 40.4509 64.3114C41.8613 65.9989 42.5592 68.4094 42.3634 70.925C42.2248 72.7062 41.6446 74.3812 40.9092 75.9948C41.1311 74.8364 41.228 73.5792 41.0748 72.2239C40.8009 69.7844 39.7603 67.3656 38.2196 65.5875C38.0092 65.3448 37.7863 65.1073 37.5405 64.8635C36.2603 63.5906 34.7936 62.7229 33.3759 61.8833C33.0686 61.701 32.7509 61.5135 32.4436 61.326C30.4623 60.1177 28.5363 58.6833 26.7186 57.0625C26.4884 56.8573 26.2707 56.6448 26.0686 56.4448C25.4321 55.7448 24.8467 55.0146 24.2905 54.275C25.3853 55.3104 26.5467 56.2792 27.8196 57.1042C29.8905 58.4448 32.1634 59.6594 34.5748 60.7114H34.5759ZM28.7457 79.7864C25.2915 78.8271 22.1675 77.0656 20.7863 75.2989C16.7321 70.1156 16.9155 63.8542 17.7832 59.5135C18.0207 58.3229 18.5175 56.4385 19.2519 54.5625C18.8769 56.025 18.6092 57.5 18.4603 58.9469V58.9594C18.4373 59.2875 18.4155 59.6406 18.4061 60.0042C18.33 62.9625 18.7248 65.6719 19.58 68.0573C20.3175 70.1146 21.4738 72.1198 23.0155 74.0198C23.2311 74.2844 23.4821 74.5562 23.7613 74.8271C25.4113 76.4437 27.9321 78.0625 30.503 79.1562C32.1707 79.8656 33.7748 80.3177 35.2509 80.5052C33.5332 80.6469 31.3675 80.5135 28.7478 79.7864H28.7457ZM82.1675 59.9781C80.628 54.8094 78.0655 52.2667 76.4509 51.1167C76.478 47.7812 75.7144 43.5792 72.6332 39.2052C72.5774 39.1261 72.4926 39.0724 72.3973 39.0558C72.302 39.0392 72.204 39.0611 72.1248 39.1167C72.0458 39.1724 71.9921 39.2572 71.9755 39.3525C71.9589 39.4478 71.9807 39.5458 72.0363 39.625C74.9082 43.7042 75.6925 47.6354 75.7165 50.8083C75.4644 50.8281 75.2113 50.8479 74.9582 50.8667C72.0602 51.0854 69.0634 51.3114 66.3832 52.7167C63.9811 53.976 62.1811 56.001 61.4436 58.2729C60.7196 60.5031 61.0613 62.7177 61.3925 64.8594C61.4259 65.0719 61.4582 65.2844 61.4905 65.4969C61.8748 68.0604 62.0519 70.5906 62.0175 73.0177C61.9738 76.1239 61.1342 79.1989 60.3217 82.1729L60.2967 82.2646C60.2623 82.3896 60.2967 82.5239 60.3884 82.6156C60.4728 82.701 60.5925 82.7385 60.7103 82.7187H60.7144C60.7228 82.7177 60.73 82.7167 60.7384 82.7146H60.7415C60.9738 82.7292 61.2311 82.7385 61.5113 82.7385C63.5728 82.7385 66.8405 82.2781 70.3832 80.9312C74.6634 79.3052 80.255 76.0125 82.5832 69.5625C83.3946 67.3167 83.2311 63.5552 82.1655 59.9792L82.1675 59.9781ZM64.5957 66.8573C64.5905 66.4927 64.5811 66.1208 64.5717 65.7625C64.53 64.1594 64.4873 62.5021 64.8644 60.8281C64.9353 60.5094 65.0134 60.2125 65.1019 59.9219C65.7467 57.8104 67.154 55.7729 68.9623 54.3333C70.4467 53.151 72.053 52.5052 73.5675 52.0781C72.604 52.7448 71.605 53.6156 70.6321 54.8292C69.1925 56.626 68.0009 58.9281 67.3655 61.1458C67.2832 61.4323 67.2019 61.7385 67.1113 62.1083C66.7269 63.6406 66.5811 65.0927 66.4394 66.4969C66.379 67.0979 66.3217 67.6646 66.2478 68.2344C65.9644 70.3969 65.4217 72.5906 64.5884 74.9427C64.4978 75.1979 64.3915 75.4542 64.2884 75.7021L64.2748 75.7344C63.7488 76.7333 63.179 77.6604 62.6082 78.5521C63.0592 77.425 63.4873 76.2635 63.8269 75.0469C63.829 75.0406 63.83 75.0344 63.8311 75.0281C63.8957 74.7396 63.9623 74.4271 64.0175 74.1031C64.4321 71.6583 64.6259 69.2198 64.5957 66.8562V66.8573ZM72.7686 55.9114C71.7957 57.9958 70.905 60.4271 70.3259 62.5823C70.2842 62.7385 70.2436 62.8927 70.203 63.0448C70.1571 63.2177 70.1123 63.3864 70.0686 63.5489C69.7592 64.6739 69.529 65.7406 69.3061 66.7719C69.0915 67.7646 68.8894 68.701 68.6353 69.6031C68.0592 71.6479 67.1603 73.7094 65.8884 75.9031C65.7655 76.1146 65.629 76.3239 65.4978 76.526L65.4394 76.6156C64.6144 77.6302 63.7509 78.5427 62.9519 79.3656C63.6228 78.3281 64.303 77.25 64.928 76.0604C64.9332 76.051 64.9373 76.0406 64.9415 76.0302L64.9613 75.9823C65.0675 75.726 65.178 75.4604 65.2748 75.1875C66.1259 72.7875 66.6811 70.5437 66.9707 68.3302C67.0467 67.75 67.104 67.1771 67.1655 66.5708C67.304 65.1927 67.4478 63.7677 67.8186 62.2854C67.9082 61.9229 67.9873 61.625 68.0665 61.3479C68.6769 59.2198 69.8196 57.0104 71.2019 55.2864C72.4102 53.7792 73.6665 52.8271 74.8332 52.1364C74.254 53.0677 73.529 54.2823 72.7675 55.9125L72.7686 55.9114ZM75.6842 52.151C75.578 53.9948 75.2488 55.5052 75.0248 56.5292C74.9884 56.6979 74.954 56.8552 74.9238 57C74.5144 58.9489 73.9332 61.4417 73.2873 64.0187C73.1853 64.4239 73.105 64.7239 73.0269 64.9896L72.7925 65.7812C72.2144 67.7385 71.7144 69.4281 71.0321 70.975C70.1571 72.9604 68.905 74.8885 67.203 76.8687C67.0384 77.0594 66.8634 77.2448 66.6925 77.4229L66.6134 77.5062C65.4894 78.4844 64.3457 79.3167 63.3311 80.0229C64.1842 79.1469 65.1217 78.1667 66.0196 77.0604C66.028 77.051 66.0353 77.0406 66.0425 77.0292L66.1103 76.925C66.2478 76.7146 66.3894 76.4969 66.5217 76.2687C67.8248 74.0208 68.7467 71.9052 69.3394 69.801C69.5998 68.8781 69.804 67.9302 70.0207 66.926C70.2415 65.9042 70.4686 64.8479 70.7738 63.7406C70.8186 63.575 70.8634 63.4042 70.9092 63.2302C70.9488 63.0802 70.9894 62.926 71.0311 62.7708C71.5998 60.6552 72.4738 58.2677 73.43 56.2198C74.278 54.4031 75.0832 53.1073 75.6853 52.151H75.6842ZM67.105 78.0448C67.1134 78.0375 67.1217 78.0292 67.13 78.0208L67.2207 77.926C67.3967 77.7406 67.579 77.5489 67.755 77.3437C69.505 75.3073 70.7946 73.3198 71.6988 71.2677C72.3988 69.6781 72.929 67.8854 73.4905 65.9864C73.5675 65.7271 73.6457 65.4635 73.7248 65.1948C73.8061 64.9187 73.8884 64.6094 73.9925 64.1948C74.6415 61.6083 75.2248 59.1062 75.6363 57.1479C75.6665 57.0052 75.6998 56.85 75.7363 56.6833C75.9415 55.7437 76.2321 54.4073 76.3717 52.7844C76.8665 54.0667 77.1092 55.8385 77.0957 58.0802C77.0811 60.5135 76.7717 63.201 76.2457 65.4542C76.1592 65.826 76.0728 66.1448 75.9832 66.4302C75.1894 68.9125 74.378 70.7937 73.4311 72.351C72.2384 74.3114 70.6321 76.1083 68.5196 77.8448C68.2936 78.0302 68.0592 78.2052 67.8321 78.375L67.7863 78.4094C66.3811 79.3167 65.0144 80.0187 63.7978 80.5844C64.8186 79.8719 65.9675 79.0344 67.104 78.0437L67.105 78.0448ZM68.1936 79.0156C68.2009 79.0114 68.2071 79.0062 68.2134 79.001L68.2696 78.9594C68.503 78.7854 68.7446 78.6042 68.9842 78.4083C71.1613 76.6187 72.8196 74.7614 74.055 72.7302C75.0332 71.1219 75.8665 69.1906 76.679 66.651C76.7748 66.3469 76.8665 66.0104 76.9571 65.6198C77.4946 63.3167 77.8113 60.5698 77.8259 58.0844C77.8373 56.2427 77.6748 54.6906 77.3436 53.4396C78.2509 54.9187 78.9186 56.8667 79.2832 59.1489C79.7103 61.8229 79.6821 64.7167 79.2082 66.8906C79.1321 67.2458 79.0425 67.576 78.9425 67.8708C78.18 70.1073 77.1342 72.0802 75.8353 73.7344C74.3259 75.6562 72.3092 77.3708 69.8405 78.8333C69.5394 79.0114 69.2394 79.1739 68.9592 79.3239C67.5321 80.026 65.9978 80.625 64.4123 81.1021C65.5759 80.55 66.8655 79.8739 68.1936 79.0156ZM62.1394 58.4979C62.8186 56.4062 64.4894 54.5344 66.7248 53.3625C68.3071 52.5323 70.0342 52.1333 71.7925 51.8989C70.6936 52.3271 69.5769 52.9135 68.5103 53.7635C66.5894 55.2927 65.0946 57.4604 64.4071 59.7094C64.3123 60.0177 64.23 60.3323 64.155 60.6687C63.7582 62.4302 63.8019 64.1333 63.8446 65.7812C63.854 66.1375 63.8634 66.5062 63.8675 66.8667C63.8978 69.1864 63.7061 71.5802 63.2998 73.9823C63.2478 74.2864 63.1842 74.5844 63.1228 74.8614C62.8686 75.7719 62.5613 76.6562 62.2311 77.5208C62.5259 76.0427 62.729 74.5437 62.7509 73.0281C62.7863 70.5614 62.6061 67.9917 62.2155 65.3885C62.1832 65.175 62.1509 64.9604 62.1175 64.7479C61.7853 62.5958 61.4707 60.5635 62.1415 58.4989L62.1394 58.4979ZM81.8998 69.3135C79.6655 75.5031 74.2644 78.676 70.1259 80.2479C68.9925 80.6792 67.1363 81.2583 65.1603 81.6333C66.5957 81.1739 67.9842 80.6167 69.2873 79.976C69.2915 79.9739 69.2946 79.9719 69.2978 79.9708C69.5863 79.8167 69.8967 79.6479 70.2123 79.4614C72.7592 77.9531 74.8436 76.1781 76.4092 74.1854C77.7592 72.4667 78.8436 70.4219 79.6332 68.1062C79.7425 67.7833 79.8394 67.426 79.9207 67.0448C80.4123 64.7875 80.4436 61.7927 80.003 59.0333C79.7175 57.2437 79.2467 55.6458 78.6217 54.2958C79.654 55.675 80.6936 57.5802 81.4696 60.1854C82.4936 63.6208 82.6623 67.2042 81.8998 69.3125V69.3135Z" fill="#0B301A"/>
</svg>
