<svg xmlns="http://www.w3.org/2000/svg" width="100" height="100" fill="none" viewBox="0 0 100 100"><path fill="#0b301a" d="m74.49 37.707-.005-.011.004-.032-.065-.09-.016-.032-.008-.018c-.002-.006 0 0 0-.001l-.006-.012-.074-.142v-.005l-.004-.008c-3.327-6.458-8.954-11.255-15.866-13.516-6.972-2.282-14.414-1.712-20.957 1.604-.94.476-1.858 1.01-2.737 1.59l-.003-.006-.074.05-.05.031-.046.033q-.004.001-.007.004-.003.001-.007.005h-.002l-.002.002a16 16 0 0 0-.35.245l-.03.02q-.003.002-.004.003h-.002A27.45 27.45 0 0 0 23.32 43.064 27.43 27.43 0 0 0 25.337 62.2q.026.057.056.114l.019.04.326-.165-.325.164c2.404 4.745 6.044 8.602 10.523 11.236a.36.36 0 0 0-.055.154c-.254 2.433 1.518 4.42 3.114 5.383 2.37 1.43 5.611 1.767 9.632.998.23-.044.518-.117.853-.2 1.24-.31 3.314-.83 4.274-.25.254.153.414.377.488.685.07.292.019.647-.147 1.001-.206.44-.51.857-.832 1.142-2.28 2.02-5.124 3.23-8.454 3.594-2.942.32-6.165-.048-9.32-1.066-5.217-1.684-8.762-4.084-10.252-6.941-2.552-4.863-2.808-9.762-2.995-13.343-.134-2.25-.25-4.194-.775-5.814-.597-1.842-1.654-3.004-3.326-3.657-1.77-.796-4.066-.752-6.304.122-3.983 1.598-6.498 5.546-6.522 5.585a.365.365 0 1 0 .62.382c.024-.037 2.408-3.78 6.17-5.289 2.058-.803 4.151-.851 5.745-.131l.018.007c3.193 1.24 3.383 4.428 3.647 8.839.19 3.643.45 8.635 3.077 13.637 1.603 3.073 5.195 5.528 10.675 7.298 2.487.803 5.019 1.214 7.433 1.214q1.114 0 2.189-.117c3.483-.38 6.463-1.65 8.858-3.773.395-.35.763-.852 1.008-1.378.167-.356.337-.902.195-1.482a1.76 1.76 0 0 0-.82-1.138c-1.22-.737-3.391-.194-4.828.167-.324.081-.604.15-.812.191-4.782.914-7.598.012-9.119-.906-2.044-1.233-2.857-3.138-2.776-4.538a27.7 27.7 0 0 0 4.772 2.073 27.5 27.5 0 0 0 8.57 1.376c4.255 0 8.482-1.002 12.387-2.982 6.517-3.303 11.369-8.942 13.66-15.88 2.286-6.923 1.757-14.325-1.49-20.845zm.75 8.75c-.262 2.859-1.189 5.94-2.682 8.915-2.944 5.861-7.81 10.937-13.018 13.577a24.7 24.7 0 0 1-3.837 1.538c-1.432-.89-2.93-1.996-4.458-3.29 2.225-.638 4.306-1.442 6.192-2.397 5.337-2.705 10.584-7.374 14.037-12.487 1.789-2.65 2.977-5.228 3.532-7.664q.162-.714.25-1.399.135 1.549-.015 3.207zM27.412 44.13v-.019c.115-3.356.778-6.546 1.917-9.227q.785-1.845 1.85-3.359c-.885 2.087-1.35 4.66-1.349 7.603q-.001.235.005.47a34 34 0 0 0 .55 5.436 40.084 40.084 0 0 0 1.169 4.778 40 40 0 0 0 1.926 5.02c.257.551.521 1.089.789 1.597a33 33 0 0 0 1.582 2.7c.236.36.485.723.74 1.08.348.483.718.97 1.1 1.45a38 38 0 0 0 2.667 2.98 41.402 41.402 0 0 0 5.29 4.495 35 35 0 0 0 5.696 3.322c2.856 1.303 5.537 1.97 7.913 2-4.171.845-9.06.171-14.068-2.026a33.43 33.43 0 0 1-7.347-4.433 31 31 0 0 1-1.689-1.445 29 29 0 0 1-1.683-1.678l-.047-.05c-.4-.436-.784-.884-1.145-1.334a23 23 0 0 1-1.315-1.81l-.03-.047-.052-.08c-.368-.572-.723-1.18-1.054-1.81a27 27 0 0 1-.992-2.112 29 29 0 0 1-.665-1.747 32 32 0 0 1-.64-2.09 33 33 0 0 1-.811-4.008 33.3 33.3 0 0 1-.305-5.657zm24.233 27.663a34.355 34.355 0 0 1-5.575-3.252 40.551 40.551 0 0 1-5.195-4.412 37 37 0 0 1-2.615-2.925 34 34 0 0 1-1.076-1.419c-.25-.347-.493-.703-.723-1.054a32 32 0 0 1-1.547-2.64 35 35 0 0 1-.773-1.564 39 39 0 0 1-1.892-4.928 40 40 0 0 1-1.147-4.693 33 33 0 0 1-.542-5.777c-.002-3.737.765-6.84 2.196-9.045-.412 1.541-.473 3.527-.166 5.908q.007.06.015.118l.008.056c.22 1.64.608 3.433 1.155 5.33q.084.297.175.594a53 53 0 0 0 1.519 4.327q.166.422.358.88a58 58 0 0 0 2.752 5.7 50 50 0 0 0 1.878 3.122 49 49 0 0 0 2.11 2.968 57 57 0 0 0 4.122 4.803 54 54 0 0 0 4.022 3.803c1.63 1.386 3.232 2.564 4.756 3.5q.072.046.142.088c2.122 1.288 4.017 2.059 5.63 2.302-2.694.451-5.985-.149-9.585-1.791zm22.65-27.307c-.528 2.316-1.713 4.88-3.426 7.418-3.386 5.016-8.531 9.593-13.763 12.245-1.974 1-4.168 1.832-6.523 2.476a54 54 0 0 1-3.375-3.239q-.122-.127-.242-.254c2.82-.897 5.57-2.01 7.986-3.234 5.31-2.692 10.809-6.802 14.708-10.996 2.69-2.893 4.362-5.534 4.946-7.749.06 1.04-.042 2.154-.311 3.334M71.6 35.213c-2.116-.835-5.21-1.052-9.102-.605-5.707.657-12.302 2.664-17.643 5.37-2.972 1.507-6.04 3.478-8.896 5.715a52 52 0 0 1-1.428-4.182c2.562-2.373 5.383-4.37 8.171-5.784 5.212-2.642 11.923-4.084 17.954-3.863 3.052.112 5.818.664 8 1.595q1.713.733 2.945 1.752zm-26.414 5.416c5.267-2.67 11.77-4.65 17.397-5.296 5.029-.578 8.717-.007 10.432 1.568-.518-.024-1.176.037-1.989.183-1.623.291-3.788.902-6.438 1.815-5.12 1.764-11.35 4.427-16.67 7.123a145 145 0 0 0-9.439 5.26 58 58 0 0 1-2.24-4.881c2.87-2.263 5.958-4.255 8.948-5.772zm3.062 6.042c5.29-2.681 11.488-5.33 16.577-7.084 2.577-.888 4.767-1.506 6.33-1.786 2.08-.374 2.501-.066 2.579.03v.008l.023.043c.03.13.007.657-1.502 2.092-1.15 1.095-2.942 2.495-5.183 4.049-4.425 3.069-10.224 6.5-15.513 9.181a144 144 0 0 1-9.287 4.278 49 49 0 0 1-1.216-1.762 49 49 0 0 1-2.24-3.793 145 145 0 0 1 9.431-5.255zm3.64 7.183c5.318-2.695 11.15-6.146 15.6-9.232 2.303-1.597 4.076-2.983 5.27-4.12.598-.569 1.036-1.064 1.323-1.495.259 2.326-1.483 5.663-4.956 9.397-3.844 4.134-9.265 8.188-14.503 10.842-2.475 1.254-5.308 2.39-8.207 3.292a56 56 0 0 1-3.7-4.452c3.163-1.33 6.326-2.79 9.174-4.233zM68.943 32.79c-2.296-.98-5.075-1.537-8.26-1.655-6.149-.227-12.994 1.247-18.311 3.942-2.749 1.394-5.526 3.34-8.064 5.649-.452-1.649-.779-3.21-.971-4.645 2.15-2.162 4.543-3.943 6.932-5.154 5.207-2.639 12.176-3.564 18.642-2.473 3.28.553 6.313 1.627 8.773 3.105q1.425.858 2.593 1.88-.63-.348-1.335-.65m-31.124-6.697c6.369-3.228 13.615-3.784 20.4-1.563 4.584 1.5 8.586 4.146 11.698 7.668a20 20 0 0 0-1.855-1.265c-2.574-1.546-5.612-2.623-9.029-3.199-6.614-1.115-13.752-.165-19.092 2.542-2.305 1.169-4.613 2.851-6.71 4.885-.368-3.696.226-6.243 1.729-7.39l.02-.015a27 27 0 0 1 2.84-1.663zm3.77 49.252c-6.786-2.221-12.3-6.951-15.528-13.32L26.047 62l-.01-.02-.05-.1a26.7 26.7 0 0 1-1.966-18.634 26.8 26.8 0 0 1 5.797-10.955 20 20 0 0 0-1.162 2.308c-1.171 2.756-1.854 6.03-1.973 9.47v.018q-.02.572-.02 1.166c.003 1.535.114 3.094.33 4.635a34 34 0 0 0 .83 4.095c.196.734.417 1.453.653 2.14.21.61.44 1.213.681 1.79a28 28 0 0 0 1.02 2.171c.34.65.707 1.276 1.085 1.862l.055.086.029.045c.41.628.868 1.257 1.36 1.87.384.48.795.958 1.222 1.422l.073.078c.523.562 1.08 1.114 1.654 1.643a33.251 33.251 0 0 0 3.516 2.806 34.3 34.3 0 0 0 5.72 3.203c3.71 1.627 7.364 2.44 10.734 2.44q1.273 0 2.487-.156c-5.344 1.737-11.082 1.743-16.524-.038m33.699-17.022c-1.932 5.847-5.732 10.746-10.834 14.043l-.004-.008-.02.013-.036.022-.052.032c-1.665 1.013-4.423.498-7.808-1.44a25 25 0 0 0 3.336-1.387c5.342-2.707 10.33-7.904 13.34-13.9 1.555-3.098 2.483-6.184 2.756-9.175q.103-1.14.076-2.236c1.005 4.615.764 9.434-.755 14.035"/></svg>