<svg width="930" height="800" viewBox="0 0 930 800" fill="none" xmlns="http://www.w3.org/2000/svg">
<path d="M490.878 775.246C488.824 775.006 486.892 774.886 484.839 774.524C513.945 771.734 543.774 764.475 573.721 752.867C662.599 718.528 741.681 649.403 796.236 558.425C850.912 467.447 874.665 365.247 863.155 270.55C859.762 241.802 853.109 214.868 843.558 190.109C843.558 190.23 843.679 190.351 843.799 190.472C891.05 261.117 914.877 348.2 905.371 439.16C883.712 646.087 697.776 796.909 490.757 775.126M522.983 720.877C597.244 678.088 667.99 604.618 722.304 514.244C799.671 385.328 826.309 248.58 801.393 154.371C821.938 188.306 835.481 228.646 840.812 273.458C851.717 363.202 829.049 460.329 776.908 547.078C724.766 633.828 649.79 699.568 565.501 732.094C524.443 747.934 483.744 754.956 444.974 753.401C469.972 747.231 496.056 736.47 522.862 720.877M472.365 688.283C531.888 637.285 594.42 559.712 648.372 469.821C721.997 347.187 773.393 207.41 766.597 122.979C811.317 207.395 789.033 359.482 703.096 502.655C650.713 589.888 582.744 660.457 511.743 701.434C471.413 724.763 433.011 736.615 398.952 737.112C421.292 727.319 445.924 710.881 472.365 688.404M420.297 654.964C463.513 597.208 517.106 515.652 571.42 425.037C625.854 334.421 672.924 248.277 703.817 182.554C723.125 141.356 733.622 113.932 738.325 95.5696C761.173 151.729 728.015 293.311 629.043 458.232C576.298 546.069 515.456 621.709 457.624 671.257C419.592 703.886 385.903 722.38 360.661 725.168C374.546 712.359 393.499 690.488 420.177 654.964M336.624 716.601C338.671 701.622 348.322 673.836 365.095 635.9C371.863 645.682 379.113 654.376 386.483 661.983C363.185 691.707 346.162 709.833 336.624 716.48M333.365 721.555L333.606 721.072C333.606 721.072 333.727 721.434 333.848 721.555L333.244 721.555L333.365 721.555ZM314.324 519.355C319.035 521.769 323.746 524.062 328.337 526.356C331.598 527.925 334.86 529.614 338.001 531.063C337.278 535.774 336.917 540.485 336.678 545.196C335.6 570.201 341.648 592.666 351.076 612.11C338.043 640.38 328.149 664.905 321.755 684.234C315.346 661.89 299.981 595.339 314.324 519.234M318.861 694.382C318.861 694.382 319.102 693.536 319.223 693.053C319.344 693.416 319.464 693.778 319.706 694.019L318.861 694.261L318.861 694.382ZM225.889 452.349C233.866 464.667 244.498 475.293 256.579 484.589C255.026 527.35 258.312 591.973 282.011 660.816C246.473 584.006 227.967 515.282 226.01 452.47M180.684 362.859C185.743 326.378 199.614 281.075 236.321 257.144C236.562 257.144 236.683 256.902 236.683 256.902C242.479 253.276 248.758 250.012 255.762 247.473C271.34 241.79 284.986 236.59 297.061 231.754C287.523 239.247 277.864 247.223 269.051 255.803C259.754 264.745 251.063 276.224 241.528 291.689C221.371 324.673 208.946 363.452 204.857 406.698C197.88 478.572 213.007 557.323 250.724 645.729C199.009 588.131 168.761 448.627 180.684 362.739M103.876 377.384C110.758 371.825 117.278 365.542 123.314 358.775C139.612 340.408 149.507 318.299 157.952 296.07C166.526 292.201 174.496 288.574 181.62 285.069C170.275 305.608 162.555 330.615 158.46 359.727C148.825 429.67 162.507 515.79 189.103 582.578C155.629 533.912 120.698 465.436 103.876 377.143M99.518 351.174C98.1859 341.874 96.9744 332.331 96.1252 322.668C107.597 317.953 118.224 313.479 128.126 309.248C122.333 321.813 115.454 333.653 106.399 343.803C104.106 346.341 101.812 348.757 99.3973 351.174M121.446 213.341C136.176 202.464 154.414 203.786 173.859 204.986C168.066 215.014 162.756 225.283 157.687 235.915C151.774 248.359 146.827 261.527 142.122 274.213C141.519 275.904 140.916 277.595 140.312 279.407C126.667 285.452 111.452 291.981 94.5458 298.994C93.4467 267.829 96.9349 231.228 121.445 213.22M36.0024 383.813C30.3259 383.574 26.4603 381.763 23.5602 377.899C23.3185 377.657 21.7475 375.242 23.0743 370.893C24.763 365.094 33.3323 350.354 74.6305 331.736C75.8431 344.057 77.4179 356.014 79.3548 367.61C63.7788 378.125 47.8388 384.412 36.0024 383.813ZM569.452 24.6091C572.471 24.9703 575.37 25.3315 578.39 25.6927C520.662 33.2043 465.111 50.6201 414.758 77.2141C392.057 89.1814 370.323 103.806 349.192 118.068C305.966 147.196 264.792 174.994 215.88 181.777C296.274 71.7037 430.433 10.168 569.452 24.6091ZM177.981 245.571C184.498 231.798 191.739 218.508 199.585 205.821C262.75 203.502 312.98 169.539 361.64 136.665C382.166 122.766 403.417 108.504 425.152 97.0201C468.261 74.2943 515.357 58.5729 564.51 50.4607C563.182 50.9443 561.853 51.428 560.525 51.9117C554.366 54.33 548.329 56.7482 542.291 59.2872C536.253 61.947 530.336 64.6067 524.419 67.508C518.502 70.2886 512.706 73.3107 506.91 76.3327C501.114 79.3548 495.439 82.6184 489.763 85.882C484.088 89.1456 478.534 92.4092 472.979 95.9144C467.425 99.2987 461.991 102.804 456.558 106.43C451.245 109.935 445.932 113.561 440.62 117.307C435.428 120.933 430.236 124.68 425.165 128.426C420.094 132.052 415.022 135.799 410.072 139.666C405.242 143.412 400.292 147.159 395.583 150.905C390.874 154.652 386.166 158.398 381.578 162.144C379.284 163.957 376.99 165.891 374.696 167.704C374.213 168.308 373.247 168.912 372.643 169.275C372.039 169.758 371.315 170.242 370.59 170.725C369.141 171.692 367.692 172.659 366.244 173.626C363.225 175.56 360.327 177.373 357.308 179.186C355.497 180.273 353.565 181.361 351.754 182.328C349.459 183.537 347.165 184.867 344.992 185.955C342.214 187.405 339.437 188.856 336.66 190.186C333.399 191.757 330.018 193.329 326.758 194.901C322.894 196.714 319.03 198.407 315.165 200.099C310.577 202.034 306.109 203.968 301.641 205.903C296.448 208.079 291.256 210.134 286.063 212.19C280.267 214.487 274.35 216.784 268.432 218.961C256.477 223.435 244.402 228.151 232.93 233.712C220.975 239.514 209.625 246.404 197.791 252.327C196.825 252.811 195.739 253.294 194.773 253.899C190.788 255.833 186.924 257.767 182.939 259.701C180.765 260.789 178.471 261.878 176.297 262.965C175.211 263.449 170.018 265.142 169.535 266.23C172.31 259.222 175.085 252.215 178.223 245.571M579.252 69.2986C519.723 104.352 445.584 148.108 434.143 234.479C431.133 257.31 421.839 271.567 405.778 277.855C392.615 283.054 376.794 282.698 361.334 282.341C357.107 282.222 352.88 282.103 348.894 282.104C326.43 282.113 305.658 287.919 283.44 300.007C276.316 303.996 262.913 312.094 249.632 324.058C253.011 316.93 256.632 309.923 260.736 303.277C269.185 289.383 276.79 279.354 284.758 271.741C294.175 262.557 305.041 253.977 315.546 245.638C320.979 241.287 326.291 237.057 331.483 232.707L359.132 209.625C360.218 208.779 378.933 193.189 378.933 193.189L382.676 190.168C437.007 144.97 504.984 94.09 579.977 68.6944C579.735 68.8152 579.494 68.9361 579.252 69.057M451.786 257.423C453.837 251.261 455.404 244.617 456.367 237.49C465.399 169.359 520.096 131.047 573.466 99.0159C536.884 131.282 494.873 180.823 451.907 257.423M259.945 443.035C259.463 446.538 258.982 451.008 258.38 456.202C244.727 442.679 235.059 426.859 233.239 407.774C229.601 369.605 262.319 337.22 294.197 319.813C312.913 309.538 330.303 304.7 348.903 304.693C352.768 304.691 356.874 304.69 360.86 304.809C378.372 305.164 396.61 305.64 413.999 298.748C424.263 294.758 432.957 288.353 439.717 280.016C431.873 295.722 422.34 318.193 403.017 321.945C340.46 334.29 268.977 377.32 260.065 442.914M279.522 473.467C280.242 461.75 281.326 452.449 282.169 446.046C287.95 404.008 328.638 370.895 373.923 353.604C334.566 395.655 311.757 441.565 299.335 485.901C292.57 482.038 285.804 477.813 279.522 473.467ZM286.21 588.459C280.158 555.123 278.455 524.684 278.687 499.8C283.64 502.818 288.714 505.836 293.788 508.492C288.001 536.759 285.959 563.818 286.21 588.339M586.759 117.371C574.446 131.992 563.823 146.974 554.891 160.265C536.423 187.813 520.492 217.293 505.164 245.927C490.923 272.386 476.199 299.691 459.663 325.064C446.023 345.966 430.692 366.265 415.965 385.839C403.894 401.789 391.46 418.342 379.752 435.258C361.646 461.477 349.577 485.399 342.944 508.473C341.494 507.748 339.924 506.903 338.353 506.179C332.192 503.162 325.911 500.024 319.508 496.765C318.784 496.403 324.212 480.818 324.695 479.369C326.625 473.328 328.797 467.408 331.21 461.489C336.157 449.166 341.95 437.205 348.467 425.727C362.95 400.234 381.299 376.914 402.548 356.613C409.55 349.846 417.036 343.561 424.521 337.277C431.645 331.235 438.527 325.676 443.959 318.064C450.236 309.364 455.063 299.699 459.891 290.154C461.822 286.409 463.511 282.785 465.321 279.522C508.77 199.782 550.901 149.275 587.001 117.371M651.001 88.5976C659.091 83.2795 675.754 73.4888 692.3 71.7913C646.422 116.744 564.702 231.891 482.506 368.903C434.831 448.403 393.917 523.431 364.351 584.443C360.723 572.607 358.785 559.803 359.263 546.274C360.459 516.196 372.887 485.027 398.235 448.055C409.582 431.502 421.895 415.19 433.845 399.361C448.814 379.425 464.507 358.763 478.388 337.377C495.528 311.279 510.493 283.491 524.855 256.669C540.062 228.64 555.631 199.522 573.495 172.82C591.963 145.272 617.434 110.836 650.88 88.5976M719.718 77.3371C716.952 107.053 665.909 224.242 552.333 413.569C490.294 516.871 438.511 593.353 400.365 644.101C391.786 634.803 383.328 623.935 376.318 611.496C404.315 551.813 446.556 472.436 501.835 380.37C602.376 212.912 686.514 102.596 719.839 77.3371M929.75 391.8C929.502 375.493 928.167 359.066 925.745 342.88C923.444 326.937 920.177 311.114 915.944 295.533C911.831 280.194 906.632 265.097 900.708 250.363C894.785 235.749 888.016 221.378 880.401 207.489C872.787 193.722 864.327 180.317 855.264 167.517C846.08 154.716 836.172 142.52 825.539 130.807C814.906 119.215 803.67 108.227 791.709 97.8439C778.902 86.7359 765.371 76.353 751.237 66.9367C748.096 64.8844 744.955 62.8321 741.693 60.7799C728.525 52.5711 714.874 45.0873 700.862 38.4491C683.346 30.1212 665.106 23.1223 646.504 17.4523C627.54 11.6616 607.973 7.32071 588.406 4.42929C582.85 3.5859 577.415 2.86326 571.859 2.38225C418.708 -13.6236 271.027 57.7016 187.498 183.359C185.808 183.359 184.117 183.36 182.426 183.119L175.904 182.638C154.284 181.197 129.766 179.395 108.274 195.227C73.2588 220.97 70.5001 270.133 72.6889 308.062C30.062 326.318 5.91437 345.896 1.09133 366.432C-2.1643 380.083 3.87809 389.261 5.81145 391.676C11.9743 400.009 21.0344 404.837 32.1463 406.04C32.9917 406.04 33.958 406.281 34.9242 406.281C49.2968 406.879 66.5657 401.316 83.712 391.283C122.676 581.638 240.954 678.83 254.123 689.092C254.364 689.334 254.606 689.455 254.727 689.575C254.727 689.575 254.968 689.696 254.968 689.817C254.968 689.817 254.968 689.938 255.089 689.938C319.366 751.155 400.059 788.327 488.471 797.594C707.689 820.58 904.733 660.815 927.716 441.567C929.4 425.018 930.119 408.348 929.75 391.679" fill="#E5FFC3"/>
</svg>
